<svg width="1152" height="700" viewBox="0 0 1152 700" fill="none" xmlns="http://www.w3.org/2000/svg">
<rect width="1152" height="700" fill="white"/>
<path d="M1058.94 434H1037.36C1036.9 434.001 1036.44 433.888 1036.03 433.668C1035.61 433.449 1035.25 433.13 1034.96 432.734C1034.68 432.348 1034.48 431.897 1034.38 431.415C1034.28 430.932 1034.28 430.431 1034.38 429.948C1036.4 420.143 1036.31 409.953 1034.09 400.196C1033.92 399.45 1033.99 398.662 1034.29 397.966C1034.59 397.27 1035.1 396.71 1035.74 396.381C1044.75 391.756 1053.03 391.877 1060.34 396.738C1060.72 396.989 1061.05 397.329 1061.3 397.734C1061.55 398.139 1061.72 398.599 1061.79 399.082C1063.34 409.689 1063.4 420.494 1061.97 431.121C1061.87 431.921 1061.5 432.653 1060.95 433.182C1060.39 433.712 1059.68 434.002 1058.94 434Z" fill="#4682B4"/>
<path d="M1058.5 418H1042.5C1042.1 417.999 1041.72 417.841 1041.44 417.56C1041.16 417.278 1041 416.897 1041 416.5C1041 416.103 1041.16 415.722 1041.44 415.44C1041.72 415.159 1042.1 415.001 1042.5 415H1058.5C1058.9 415.001 1059.28 415.159 1059.56 415.44C1059.84 415.722 1060 416.103 1060 416.5C1060 416.897 1059.84 417.278 1059.56 417.56C1059.28 417.841 1058.9 417.999 1058.5 418V418Z" fill="white"/>
<path d="M1058.5 412H1042.5C1042.1 411.999 1041.72 411.788 1041.44 411.413C1041.16 411.038 1041 410.53 1041 410C1041 409.47 1041.16 408.962 1041.44 408.587C1041.72 408.212 1042.1 408.001 1042.5 408H1058.5C1058.9 408.001 1059.28 408.212 1059.56 408.587C1059.84 408.962 1060 409.47 1060 410C1060 410.53 1059.84 411.038 1059.56 411.413C1059.28 411.788 1058.9 411.999 1058.5 412V412Z" fill="white"/>
<path d="M917.79 497.977C921.498 496.921 924.756 494.395 926.983 490.849C929.209 487.304 930.259 482.97 929.946 478.623C929.879 477.743 928.679 477.819 928.745 478.7C929.044 482.748 928.066 486.784 925.986 490.081C923.907 493.378 920.863 495.717 917.406 496.677C916.654 496.887 917.043 498.186 917.79 497.977Z" fill="white"/>
<path d="M912.663 535.681C905.257 531.177 899.766 523.955 897.284 515.454C897.039 514.612 895.787 515.049 896.032 515.891C898.63 524.732 904.359 532.236 912.076 536.904C912.812 537.349 913.395 536.123 912.663 535.681V535.681Z" fill="white"/>
<path d="M905.156 460.546C903.699 461.308 902.09 461.666 900.474 461.588C898.858 461.511 897.284 461 895.896 460.101C895.185 459.638 894.618 460.89 895.324 461.35C896.863 462.335 898.601 462.897 900.386 462.987C902.172 463.077 903.951 462.692 905.567 461.866C905.726 461.802 905.856 461.676 905.931 461.511C906.006 461.347 906.02 461.159 905.972 460.983C905.916 460.809 905.8 460.665 905.647 460.583C905.494 460.501 905.318 460.488 905.156 460.546V460.546Z" fill="white"/>
<path d="M1029.91 387.772L1023.65 321.664L1022 294.457L1039.52 291C1039.52 291 1042.14 309.704 1044.44 320.681C1046.7 331.512 1041.42 386.321 1041.28 387.766C1042.57 389.022 1043.47 390.674 1043.88 392.504C1044.29 394.334 1044.18 396.256 1043.56 398.015C1042.95 399.775 1041.86 401.289 1040.43 402.358C1039.01 403.426 1037.33 403.999 1035.6 404C1033.88 404.001 1032.19 403.43 1030.77 402.363C1029.35 401.296 1028.26 399.783 1027.64 398.024C1027.02 396.265 1026.91 394.343 1027.31 392.513C1027.72 390.682 1028.63 389.029 1029.91 387.772V387.772Z" fill="#FFB8B8"/>
<path d="M958.999 592H949.513L945 555L959 555.001L958.999 592Z" fill="#FFB6B6"/>
<path d="M960.999 601L932 600.999V600.601C932 597.354 933.19 594.24 935.306 591.945C937.423 589.649 940.294 588.359 943.287 588.359H943.288L948.585 584L958.469 588.359L961 588.36L960.999 601Z" fill="#2F2E41"/>
<path d="M1037 592H1028.19L1024 555L1037 555.001L1037 592Z" fill="#FFB6B6"/>
<path d="M1040 601L1011 600.999V600.601C1011 597.354 1012.19 594.24 1014.31 591.945C1016.42 589.649 1019.29 588.359 1022.29 588.359H1022.29L1027.59 584L1037.47 588.359L1040 588.36L1040 601Z" fill="#2F2E41"/>
<path d="M1023.69 390.055L1031.3 468.143C1031.3 468.143 1041.43 546.331 1039.52 557.12C1037.62 567.908 1040 569.449 1040 569.449L1022.65 568.114C1022.65 568.114 1023.12 561.435 1020.27 558.353C1017.42 555.271 1018.85 546.023 1018.85 546.023L985.186 418.824L964.744 485.61C964.744 485.61 961.416 559.074 960.94 560.102C960.465 561.129 959.039 575 959.039 575H941.449C941.449 575 943.826 566.78 940.498 564.212C937.17 561.643 934.317 563.698 937.17 559.074C940.022 554.451 940.973 548.799 940.022 546.231C939.072 543.662 939.071 533.387 939.071 533.387C939.071 533.387 940.498 394.679 948.58 390.055C956.662 385.431 1023.69 390.055 1023.69 390.055Z" fill="#2F2E41"/>
<path d="M988 232C997.941 232 1006 223.27 1006 212.5C1006 201.73 997.941 193 988 193C978.059 193 970 201.73 970 212.5C970 223.27 978.059 232 988 232Z" fill="#FFB8B8"/>
<path d="M1042 300.61L1024.32 307.809L1018.93 310L1015 253L1028.49 261.123C1028.51 261.142 1028.53 261.164 1028.55 261.19C1030.89 264.119 1032.84 267.413 1034.36 270.971C1041.76 288.045 1042 300.61 1042 300.61Z" fill="#BBBACE"/>
<path d="M917.779 383.742C917.779 383.742 935.877 320.867 936.194 320.113C938.564 299.985 945.382 291.107 946.404 292.071L964 298.887C964 298.887 958.766 317.42 955.222 328.428C951.836 338.947 928.646 387.511 927.994 388.78C928.694 390.506 928.908 392.429 928.608 394.294C928.309 396.16 927.51 397.88 926.317 399.226C925.125 400.573 923.595 401.483 921.93 401.836C920.264 402.189 918.543 401.969 916.992 401.204C915.441 400.439 914.135 399.166 913.245 397.553C912.356 395.939 911.925 394.062 912.011 392.17C912.096 390.277 912.693 388.458 913.723 386.953C914.753 385.448 916.168 384.328 917.78 383.742H917.779Z" fill="#FFB8B8"/>
<path d="M974 259.083C974 259.083 957.952 250.9 951.728 266.972C947.652 277.811 945.722 282.539 943 293.829C943 293.829 959.358 296.382 964.603 306L974 259.083Z" fill="#BBBACE"/>
<path d="M1028.64 399.46C993.527 407.586 947 393.616 947 393.616L959.412 333.321L954.999 270.221C954.46 262.504 958.382 255.271 964.483 252.708L972.907 249.172L979.87 238L999.759 238.731L1007.71 250.46L1013.99 254.191L1027.59 262.276L1027.65 262.31V262.343L1023.38 308.749L1020.8 336.729C1020.8 336.729 1028.62 368.199 1027.02 372.372C1025.41 376.539 1026.81 374.526 1027.2 376.754C1027.59 378.982 1028.78 379.122 1028.96 383.511C1029.14 387.892 1028.64 399.46 1028.64 399.46Z" fill="#BBBACE"/>
<path d="M1008.58 204.705C1007.14 203.145 1009.32 199.016 1008.9 196.841C1008.43 194.347 1005.92 194.274 1005.32 191.813C1004.67 189.166 1002.09 187.725 999.702 186.887C993.583 184.748 987.054 184.421 980.782 185.94C978.006 186.68 975.273 187.6 972.597 188.694C970.749 189.405 972.531 187.472 970.684 188.182C969.984 188.352 969.367 188.8 968.952 189.438C968.619 190.124 969.067 191.221 969.766 191.082C967.511 192.168 965.255 193.255 963 194.341C964.265 195.789 965.53 197.236 966.795 198.684C964.997 198.125 963.079 200.467 963.788 202.357C964.074 202.953 964.487 203.465 964.994 203.848C965.5 204.231 966.085 204.474 966.696 204.556C968.728 204.988 967.187 207.1 969.256 207.059C971.325 207.018 985.755 202.384 986.761 204.36C987.477 205.767 987.399 207.63 988.421 208.789C989.73 210.272 992.015 209.73 993.681 208.765C995.346 207.799 997.035 206.472 998.909 206.704C1000.87 206.945 1002.34 210.894 1002.83 212.979C1003.31 215.065 1003 217.259 1002.7 219.383C1002.29 222.173 998.263 224.963 997.86 227.753C1002.33 229.105 1007.13 224.804 1008.9 217.324C1008.73 212.596 1011.67 208.029 1008.58 204.705Z" fill="#2F2E41"/>
<path d="M914.105 394H845.895C844.067 393.998 842.314 393.203 841.022 391.79C839.729 390.377 839.002 388.461 839 386.463V340.537C839.002 338.539 839.729 336.623 841.022 335.21C842.314 333.797 844.067 333.002 845.895 333H914.105C915.933 333.002 917.686 333.797 918.978 335.21C920.271 336.623 920.998 338.539 921 340.537V386.463C920.998 388.461 920.271 390.377 918.978 391.79C917.686 393.203 915.933 393.998 914.105 394V394Z" fill="#E6E6E6"/>
<path d="M887.647 388H850.59C848.843 387.998 847.168 387.256 845.932 385.937C844.697 384.619 844.002 382.83 844 380.965V346.035C844.002 344.17 844.697 342.381 845.932 341.063C847.168 339.744 848.843 339.002 850.59 339H910.41C912.158 339.002 913.832 339.744 915.068 341.063C916.303 342.382 916.998 344.17 917 346.035V356.665C916.991 364.973 913.896 372.937 908.393 378.812C902.89 384.686 895.43 387.991 887.647 388V388Z" fill="white"/>
<path d="M904.439 358H856.561C856.147 358 855.75 357.789 855.457 357.414C855.165 357.039 855 356.53 855 356C855 355.47 855.165 354.961 855.457 354.586C855.75 354.211 856.147 354 856.561 354H904.439C904.853 354 905.25 354.211 905.543 354.586C905.835 354.961 906 355.47 906 356C906 356.53 905.835 357.039 905.543 357.414C905.25 357.789 904.853 358 904.439 358V358Z" fill="#4682B4"/>
<path d="M876.496 371H856.504C856.105 371 855.723 370.842 855.441 370.561C855.158 370.279 855 369.898 855 369.5C855 369.102 855.158 368.721 855.441 368.439C855.723 368.158 856.105 368 856.504 368H876.496C876.895 368 877.277 368.158 877.559 368.439C877.842 368.721 878 369.102 878 369.5C878 369.898 877.842 370.279 877.559 370.561C877.277 370.842 876.895 371 876.496 371V371Z" fill="#4682B4"/>
<path d="M1072.38 602H873.618C873.454 602 873.297 601.947 873.181 601.854C873.065 601.76 873 601.633 873 601.5C873 601.367 873.065 601.24 873.181 601.146C873.297 601.053 873.454 601 873.618 601H1072.38C1072.55 601 1072.7 601.053 1072.82 601.146C1072.93 601.24 1073 601.367 1073 601.5C1073 601.633 1072.93 601.76 1072.82 601.854C1072.7 601.947 1072.55 602 1072.38 602V602Z" fill="#CCCCCC"/>
<path d="M209 332.038L93.1491 366L55 218.962L170.851 185L209 332.038Z" fill="white"/>
<path d="M209 332.038L93.1491 366L55 218.962L170.851 185L209 332.038ZM94.6293 363.228L206.393 330.465L169.371 187.772L57.6074 220.535L94.6293 363.228Z" fill="#F1F1F1"/>
<path d="M145.802 251.183L116.223 259.937C115.806 260.06 115.36 260.001 114.984 259.771C114.608 259.542 114.331 259.162 114.216 258.715L106.058 226.971C105.944 226.523 105.999 226.045 106.213 225.641C106.427 225.237 106.781 224.941 107.198 224.817L136.777 216.063C137.194 215.94 137.64 215.999 138.016 216.229C138.392 216.458 138.669 216.838 138.784 217.285L146.942 249.029C147.056 249.477 147.001 249.955 146.787 250.359C146.573 250.763 146.219 251.059 145.802 251.183V251.183ZM107.371 225.492C107.121 225.567 106.909 225.745 106.78 225.987C106.652 226.229 106.619 226.516 106.688 226.785L114.845 258.528C114.914 258.797 115.08 259.025 115.306 259.162C115.532 259.3 115.799 259.336 116.05 259.262L145.629 250.508C145.879 250.433 146.091 250.255 146.22 250.013C146.348 249.771 146.381 249.484 146.312 249.215L138.155 217.472C138.085 217.203 137.92 216.975 137.694 216.838C137.468 216.7 137.201 216.664 136.95 216.738L107.371 225.492Z" fill="#E5E5E5"/>
<path d="M137.913 257.522L108.097 265.946C107.718 266.052 107.314 266.001 106.973 265.802C106.631 265.604 106.381 265.274 106.276 264.887L98.0529 234.343C97.949 233.955 97.9994 233.541 98.1932 233.191C98.387 232.842 98.7083 232.585 99.0866 232.478L128.903 224.054C129.282 223.948 129.686 223.999 130.027 224.198C130.369 224.396 130.619 224.726 130.724 225.113L138.947 255.657C139.051 256.045 139.001 256.459 138.807 256.809C138.613 257.158 138.292 257.415 137.913 257.522V257.522Z" fill="#85B3DC"/>
<path d="M171.342 261.447L90.7022 285.248L91.5616 288.583L172.201 264.782L171.342 261.447Z" fill="#F1F1F1"/>
<path d="M173.583 270.143L92.943 293.943L93.8024 297.278L174.442 273.478L173.583 270.143Z" fill="#F1F1F1"/>
<path d="M175.823 278.838L95.1837 302.639L96.0431 305.974L176.683 282.173L175.823 278.838Z" fill="#F1F1F1"/>
<path d="M179.767 294.142L99.1274 317.942L99.9868 321.277L180.627 297.477L179.767 294.142Z" fill="#F1F1F1"/>
<path d="M182.008 302.837L101.368 326.638L102.228 329.973L182.867 306.172L182.008 302.837Z" fill="#F1F1F1"/>
<path d="M184.249 311.532L103.609 335.333L104.468 338.668L185.108 314.867L184.249 311.532Z" fill="#F1F1F1"/>
<path d="M246 365H125V213H246V365Z" fill="white"/>
<path d="M246 365H125V213H246V365ZM127.135 362.754H243.865V215.246H127.135V362.754Z" fill="#E5E5E5"/>
<path d="M223 279H155V282H223V279Z" fill="#85B3DC"/>
<path d="M223 287H155V292H223V287Z" fill="#85B3DC"/>
<path d="M223 296H155V300H223V296Z" fill="#85B3DC"/>
<path d="M149 283C150.105 283 151 282.105 151 281C151 279.895 150.105 279 149 279C147.895 279 147 279.895 147 281C147 282.105 147.895 283 149 283Z" fill="#85B3DC"/>
<path d="M223 241H155V243H223V241Z" fill="#E5E5E5"/>
<path d="M223 250H155V252H223V250Z" fill="#E5E5E5"/>
<path d="M223 258H155V262H223V258Z" fill="#E5E5E5"/>
<path d="M149 244C150.105 244 151 243.105 151 242C151 240.895 150.105 240 149 240C147.895 240 147 240.895 147 242C147 243.105 147.895 244 149 244Z" fill="#E5E5E5"/>
<path d="M223 318H155V322H223V318Z" fill="#E5E5E5"/>
<path d="M223 327H155V331H223V327Z" fill="#E5E5E5"/>
<path d="M223 336H155V340H223V336Z" fill="#E5E5E5"/>
<path d="M149 322C150.105 322 151 320.881 151 319.5C151 318.119 150.105 317 149 317C147.895 317 147 318.119 147 319.5C147 320.881 147.895 322 149 322Z" fill="#E5E5E5"/>
<path d="M239.5 379C253.031 379 264 367.359 264 353C264 338.641 253.031 327 239.5 327C225.969 327 215 338.641 215 353C215 367.359 225.969 379 239.5 379Z" fill="#85B3DC"/>
<path d="M245.848 350.885V346.032C245.848 345.109 245.685 344.194 245.366 343.341C245.047 342.488 244.58 341.713 243.99 341.06C243.401 340.407 242.701 339.889 241.93 339.535C241.16 339.182 240.334 339 239.5 339C238.666 339 237.84 339.182 237.07 339.535C236.299 339.889 235.599 340.407 235.01 341.06C234.42 341.713 233.953 342.488 233.634 343.341C233.315 344.194 233.152 345.109 233.152 346.032V350.885C232.304 350.927 231.502 351.33 230.915 352.009C230.328 352.688 230 353.592 230 354.533V366H249V354.533C249 353.592 248.672 352.688 248.085 352.009C247.498 351.33 246.696 350.927 245.848 350.885V350.885ZM239.5 341.479C240.59 341.481 241.636 341.961 242.407 342.814C243.178 343.668 243.611 344.825 243.613 346.032V350.876H235.387V346.032C235.389 344.825 235.822 343.668 236.593 342.814C237.364 341.961 238.41 341.481 239.5 341.479Z" fill="white"/>
<path d="M242 357.251C242 356.863 241.911 356.481 241.742 356.144C241.572 355.806 241.328 355.523 241.032 355.323C240.737 355.123 240.401 355.012 240.056 355.001C239.711 354.99 239.37 355.08 239.065 355.261C238.76 355.442 238.502 355.709 238.316 356.036C238.13 356.363 238.022 356.738 238.003 357.125C237.984 357.512 238.054 357.899 238.207 358.246C238.36 358.594 238.59 358.892 238.875 359.11V364H241.125V359.11C241.394 358.904 241.615 358.627 241.768 358.303C241.92 357.978 242 357.617 242 357.251V357.251Z" fill="#85B3DC"/>
</svg>
