<svg width="484" height="456" viewBox="0 0 484 456" fill="none" xmlns="http://www.w3.org/2000/svg">
<path d="M108.804 419.498C192.125 468.167 327.217 468.167 410.538 419.498C493.859 370.828 493.87 291.894 410.538 243.225C327.205 194.555 192.125 194.542 108.804 243.225C25.483 291.907 25.483 370.815 108.804 419.498Z" fill="#EBEBEB"/>
<path d="M435.045 298.739L422.891 291.005C422.891 291.005 419.912 262.507 421.89 240.441C424.682 209.417 442.983 172.128 464.805 180.867C486.628 189.606 454.783 221.275 447.717 247.569C440.651 273.863 435.045 298.739 435.045 298.739Z" fill="#02897A"/>
<path opacity="0.1" d="M435.045 298.739L422.891 291.005C422.891 291.005 419.912 262.507 421.89 240.441C424.682 209.417 442.983 172.128 464.805 180.867C486.628 189.606 454.783 221.275 447.717 247.569C440.651 273.863 435.045 298.739 435.045 298.739Z" fill="black"/>
<path d="M428.721 295.246C428.607 295.247 428.497 295.204 428.411 295.123C428.324 295.043 428.267 294.931 428.25 294.808C424.116 260.007 435.434 207.406 458.281 187.453C458.328 187.412 458.382 187.381 458.44 187.362C458.498 187.343 458.559 187.337 458.619 187.345C458.68 187.352 458.738 187.372 458.791 187.404C458.844 187.436 458.891 187.479 458.929 187.531C459.006 187.637 459.042 187.772 459.029 187.908C459.016 188.043 458.954 188.167 458.858 188.253C436.258 207.999 425.082 260.187 429.18 294.666C429.197 294.801 429.164 294.938 429.089 295.046C429.014 295.155 428.903 295.227 428.78 295.246H428.721Z" fill="white"/>
<path d="M441.534 304.243L432.89 298.765C432.89 298.765 431.418 279.212 440.18 255.457C447.799 234.834 466.725 217.614 476.24 221.223C485.756 224.832 485.521 232.218 480.881 239.964C476.24 247.711 448.011 266.181 441.534 304.243Z" fill="#02897A"/>
<path d="M436.176 304.745C436.114 304.742 436.054 304.726 435.999 304.696C435.943 304.667 435.894 304.626 435.853 304.576C435.813 304.525 435.782 304.466 435.762 304.402C435.743 304.339 435.735 304.271 435.74 304.204C438.59 255.534 461.084 231.599 474.603 227.952C474.725 227.92 474.853 227.941 474.961 228.011C475.069 228.081 475.147 228.193 475.18 228.325C475.209 228.457 475.189 228.595 475.125 228.711C475.061 228.827 474.959 228.91 474.839 228.944C460.601 232.811 439.355 258.718 436.694 304.269C436.689 304.338 436.672 304.405 436.644 304.466C436.615 304.528 436.575 304.583 436.527 304.627C436.479 304.672 436.423 304.705 436.362 304.725C436.302 304.746 436.239 304.753 436.176 304.745Z" fill="white"/>
<path d="M84.9912 302.528C84.9912 302.528 86.6047 273.953 71.4361 254.361C56.2676 234.77 36.5179 234.847 29.9817 238.495C23.4456 242.142 19.0529 252.57 30.2997 260.033C41.5466 267.495 65.4653 282.434 69.4458 295.761L84.9912 302.528Z" fill="#02897A"/>
<path opacity="0.1" d="M84.9912 302.528C84.9912 302.528 86.6047 273.953 71.4361 254.361C56.2676 234.77 36.5179 234.847 29.9817 238.495C23.4456 242.142 19.0529 252.57 30.2997 260.033C41.5466 267.495 65.4653 282.434 69.4458 295.761L84.9912 302.528Z" fill="black"/>
<path d="M77.8543 295.375C77.7085 295.373 77.5684 295.313 77.4601 295.207C77.3517 295.1 77.2826 294.954 77.2654 294.795C74.1446 263.178 45.2678 245.662 33.7619 243.677C33.6845 243.664 33.6103 243.635 33.5433 243.591C33.4762 243.546 33.4178 243.488 33.3714 243.42C33.3249 243.351 33.2912 243.273 33.2724 243.189C33.2535 243.106 33.2497 243.02 33.2613 242.935C33.2729 242.851 33.2997 242.77 33.34 242.696C33.3803 242.623 33.4334 242.559 33.4963 242.508C33.5592 242.457 33.6306 242.42 33.7065 242.4C33.7823 242.379 33.8612 242.375 33.9385 242.388C45.7153 244.411 75.2398 262.327 78.4431 294.653C78.4512 294.738 78.4439 294.824 78.4216 294.905C78.3993 294.987 78.3625 295.063 78.3132 295.129C78.2639 295.195 78.2032 295.249 78.1345 295.289C78.0659 295.33 77.9906 295.354 77.9131 295.362L77.8543 295.375Z" fill="white"/>
<path d="M72.2369 288.118C68.433 278.632 64.1344 274.378 51.7688 276.647C39.4031 278.915 41.1696 278.567 26.0364 274.327C19.6534 272.548 12.4813 272.265 6.35739 275.281C1.18736 277.858 -2.67543 283.014 2.32972 288.505C7.95903 294.64 16.3559 296.741 22.5741 302.142C23.9847 303.233 25.1061 304.714 25.8245 306.434C27.4614 310.997 24.1875 316.139 25.1414 320.921C26.0953 325.703 30.6883 328.255 34.9986 328.565C39.3089 328.874 43.5603 327.456 47.8589 326.915C52.1574 326.374 56.9859 326.915 59.9537 330.408C63.1334 334.107 63.2158 340.023 66.1718 343.954C70.5999 349.845 81.4817 351.482 87.3701 347.821L102.786 338.09C112.973 323.061 96.8975 311.151 88.4771 299.487C84.3905 293.802 74.5216 293.828 72.2369 288.118Z" fill="#02897A"/>
<path d="M93.2349 329.016C93.1346 329.018 93.0355 328.991 92.9484 328.936C92.8613 328.882 92.7893 328.802 92.7403 328.707C75.1575 297.528 27.2847 281.751 10.3497 280.462C10.1955 280.449 10.0523 280.37 9.9509 280.242C9.84954 280.114 9.79819 279.948 9.80794 279.779C9.82 279.609 9.89181 279.451 10.0082 279.338C10.1247 279.225 10.2766 279.166 10.4321 279.173C27.5909 280.462 75.923 296.471 93.7413 328.062C93.8202 328.21 93.8434 328.385 93.806 328.551C93.7686 328.717 93.6736 328.861 93.5411 328.952C93.4448 328.998 93.3401 329.02 93.2349 329.016Z" fill="white"/>
<path d="M37.5425 314.322C37.4507 314.324 37.3599 314.302 37.2778 314.257C37.1957 314.212 37.1249 314.146 37.0714 314.064C36.9777 313.928 36.9374 313.756 36.9595 313.587C36.9816 313.417 37.0642 313.265 37.1892 313.162C37.8015 312.659 52.4048 300.93 66.6312 300.698C66.708 300.697 66.7843 300.712 66.8556 300.743C66.927 300.774 66.992 300.82 67.0469 300.879C67.1017 300.937 67.1453 301.008 67.175 301.085C67.2047 301.163 67.22 301.246 67.22 301.33C67.2216 301.414 67.2079 301.499 67.1797 301.577C67.1516 301.656 67.1095 301.728 67.0559 301.789C67.0023 301.85 66.9383 301.899 66.8674 301.933C66.7966 301.967 66.7203 301.986 66.643 301.987C52.8288 302.206 38.0724 314.077 37.9193 314.193C37.813 314.287 37.6784 314.333 37.5425 314.322Z" fill="white"/>
<path d="M92.1398 339.972C92.2656 341.846 92.7928 343.661 93.6787 345.271C94.5646 346.881 95.7843 348.241 97.2391 349.239L240.127 439.528C241.707 440.405 243.455 440.863 245.227 440.863C246.999 440.863 248.746 440.405 250.326 439.528L445.821 315.985C447.362 315.095 448.652 313.761 449.551 312.128C450.451 310.495 450.926 308.624 450.926 306.717C450.926 304.81 450.451 302.94 449.551 301.307C448.652 299.674 447.362 298.34 445.821 297.45L302.945 207.225C301.364 206.348 299.617 205.891 297.845 205.891C296.073 205.891 294.326 206.348 292.746 207.225L97.2391 330.73C95.7873 331.726 94.5695 333.081 93.6838 334.686C92.7981 336.291 92.2692 338.102 92.1398 339.972Z" fill="#37474F"/>
<path d="M151.095 296.676L97.2392 330.73C95.6983 331.62 94.4085 332.953 93.5089 334.586C92.6092 336.219 92.1338 338.09 92.1338 339.997C92.1338 341.904 92.6092 343.775 93.5089 345.408C94.4085 347.041 95.6983 348.374 97.2392 349.264L240.127 439.553C241.699 440.452 243.454 440.895 245.227 440.842V296.676H151.095Z" fill="#263238"/>
<path d="M87.3466 330.91C85.9273 329.852 84.7551 328.443 83.9246 326.797C83.0941 325.151 82.6284 323.315 82.5652 321.437V134.814C82.66 132.877 83.1713 130.992 84.0574 129.312C84.9435 127.632 86.1794 126.205 87.6645 125.147L283.16 1.60376C284.635 0.590726 286.335 0.036897 288.077 0.00178051C289.819 -0.033336 291.536 0.451581 293.045 1.40444C294.554 2.3573 295.797 3.74208 296.64 5.40999C297.484 7.07789 297.897 8.96588 297.834 10.8711V197.507C297.737 199.443 297.225 201.328 296.339 203.007C295.453 204.687 294.218 206.114 292.734 207.174L97.2391 330.73C95.7188 331.607 94.0311 332.081 92.3125 332.112C90.594 332.144 88.8928 331.732 87.3466 330.91Z" fill="#455A64"/>
<path d="M106.496 143.488L84.0607 129.31C83.1673 130.983 82.6769 132.877 82.6357 134.814V321.437C82.699 323.315 83.1646 325.151 83.9952 326.797C84.8257 328.443 85.9978 329.852 87.4171 330.91C88.9636 331.726 90.6636 332.132 92.38 332.096C94.0963 332.06 95.7809 331.584 97.2979 330.704L119.603 316.616L106.496 143.488Z" fill="#263238"/>
<path d="M92.1398 140.872V327.482C92.1398 331.039 94.4245 332.483 97.2391 330.704L292.734 207.174C294.218 206.114 295.453 204.686 296.339 203.007C297.225 201.327 297.737 199.443 297.834 197.507V10.8837C297.834 7.32631 295.549 5.88272 292.734 7.66143L97.2391 131.205C95.754 132.263 94.518 133.69 93.6319 135.37C92.7458 137.05 92.2346 138.935 92.1398 140.872Z" fill="#37474F"/>
<path d="M97.2391 337.174L240.127 427.399C241.707 428.276 243.454 428.733 245.227 428.733C246.999 428.733 248.746 428.276 250.326 427.399L445.821 303.855C448.647 302.077 448.647 299.19 445.821 297.411L302.945 207.186C301.364 206.309 299.617 205.851 297.845 205.851C296.073 205.851 294.326 206.309 292.746 207.186L97.2391 330.729C94.4127 332.482 94.4127 335.37 97.2391 337.174Z" fill="#455A64"/>
<path d="M99.9831 141.555L290.002 21.4918C291.686 20.4219 293.064 21.2855 293.064 23.4251V184.966C293.005 186.127 292.697 187.258 292.165 188.265C291.633 189.273 290.892 190.129 290.002 190.766L99.9831 310.829C98.2873 311.899 96.9211 311.035 96.9211 308.895V147.355C96.9777 146.192 97.2846 145.061 97.8167 144.053C98.3489 143.045 99.0912 142.189 99.9831 141.555Z" fill="white"/>
<path d="M113.821 332.315L295.29 217.601C296.08 217.163 296.954 216.934 297.839 216.934C298.725 216.934 299.599 217.163 300.389 217.601L309.681 223.466C309.989 223.58 310.256 223.797 310.445 224.086C310.634 224.375 310.736 224.721 310.736 225.077C310.736 225.432 310.634 225.779 310.445 226.068C310.256 226.357 309.989 226.574 309.681 226.688L128.177 341.389C127.387 341.827 126.513 342.056 125.627 342.056C124.741 342.056 123.868 341.827 123.077 341.389L113.821 335.537C113.513 335.423 113.246 335.206 113.057 334.917C112.868 334.628 112.766 334.282 112.766 333.926C112.766 333.571 112.868 333.224 113.057 332.935C113.246 332.646 113.513 332.429 113.821 332.315Z" fill="#263238"/>
<path d="M137.751 347.485L319.208 232.771C320.001 232.333 320.876 232.105 321.764 232.105C322.652 232.105 323.527 232.333 324.32 232.771L381.402 268.861C381.709 268.975 381.977 269.192 382.166 269.481C382.355 269.77 382.457 270.117 382.457 270.472C382.457 270.828 382.355 271.175 382.166 271.464C381.977 271.752 381.709 271.969 381.402 272.084L200.145 386.566C199.353 387.004 198.477 387.232 197.589 387.232C196.701 387.232 195.826 387.004 195.034 386.566L137.751 350.643C137.459 350.522 137.206 350.306 137.028 350.024C136.851 349.742 136.755 349.407 136.755 349.064C136.755 348.722 136.851 348.387 137.028 348.105C137.206 347.823 137.459 347.607 137.751 347.485Z" fill="#263238"/>
<path d="M300.413 284.329L306.101 280.733C306.336 280.578 306.325 280.333 306.101 280.165L299.529 276.015C299.389 275.936 299.234 275.895 299.076 275.895C298.918 275.895 298.763 275.936 298.622 276.015L292.946 279.611C292.699 279.766 292.711 280.011 292.946 280.178L299.518 284.329C299.656 284.406 299.81 284.446 299.965 284.446C300.121 284.446 300.274 284.406 300.413 284.329ZM289.201 270.15L283.525 273.747C283.277 273.888 283.289 274.146 283.525 274.314L290.096 278.464C290.236 278.543 290.392 278.584 290.55 278.584C290.707 278.584 290.863 278.543 291.003 278.464L296.691 274.868C296.927 274.713 296.915 274.455 296.691 274.301L290.108 270.15C289.968 270.071 289.812 270.03 289.654 270.03C289.497 270.03 289.341 270.071 289.201 270.15ZM270.853 281.751L261.231 287.822C260.996 287.976 261.007 288.234 261.231 288.402L267.803 292.552C267.943 292.631 268.098 292.672 268.256 292.672C268.414 292.672 268.569 292.631 268.709 292.552L278.319 286.481C278.567 286.326 278.543 286.069 278.319 285.914L271.748 281.751C271.61 281.672 271.456 281.63 271.3 281.63C271.144 281.63 270.991 281.672 270.853 281.751ZM280.898 275.396L275.222 278.992C274.975 279.147 274.986 279.405 275.222 279.56L281.793 283.71C281.934 283.789 282.089 283.83 282.247 283.83C282.405 283.83 282.56 283.789 282.7 283.71L288.388 280.114C288.624 279.959 288.612 279.714 288.388 279.547L281.805 275.306C281.665 275.227 281.51 275.186 281.352 275.186C281.194 275.186 281.039 275.227 280.898 275.306V275.396ZM258.605 289.484L252.928 293.067C252.681 293.222 252.705 293.48 252.928 293.648L259.5 297.798C259.639 297.874 259.792 297.913 259.947 297.913C260.103 297.913 260.256 297.874 260.395 297.798L266.083 294.202C266.319 294.047 266.307 293.789 266.083 293.635L259.512 289.484C259.372 289.405 259.216 289.364 259.058 289.364C258.901 289.364 258.745 289.405 258.605 289.484ZM250.361 294.73L244.685 298.326C244.437 298.468 244.461 298.726 244.685 298.893L251.256 303.044C251.396 303.123 251.552 303.164 251.71 303.164C251.867 303.164 252.023 303.123 252.163 303.044L257.851 299.448C258.087 299.293 258.075 299.035 257.851 298.881L251.209 294.64C251.069 294.561 250.913 294.52 250.756 294.52C250.598 294.52 250.442 294.561 250.302 294.64L250.361 294.73ZM276.211 311.615L281.888 308.019C282.135 307.864 282.111 307.619 281.888 307.452L275.316 303.302C275.178 303.222 275.025 303.181 274.869 303.181C274.713 303.181 274.559 303.222 274.421 303.302L268.733 306.898C268.497 307.052 268.509 307.297 268.733 307.465L275.304 311.615C275.441 311.674 275.588 311.699 275.735 311.688C275.882 311.676 276.024 311.63 276.152 311.551L276.211 311.615ZM267.897 316.861L273.585 313.265C273.821 313.123 273.809 312.865 273.585 312.698L267.014 308.547C266.873 308.468 266.718 308.427 266.56 308.427C266.402 308.427 266.247 308.468 266.107 308.547L260.43 312.144C260.183 312.298 260.207 312.556 260.43 312.711L267.002 316.861C267.137 316.92 267.282 316.944 267.427 316.933C267.571 316.922 267.712 316.875 267.838 316.797L267.897 316.861ZM259.594 322.107L265.282 318.524C265.518 318.369 265.506 318.111 265.282 317.944L258.711 313.793C258.57 313.717 258.415 313.678 258.257 313.678C258.1 313.678 257.945 313.717 257.804 313.793L252.128 317.389C251.88 317.544 251.904 317.802 252.128 317.957L258.687 322.107C258.824 322.166 258.971 322.191 259.118 322.179C259.265 322.168 259.407 322.122 259.535 322.042L259.594 322.107ZM251.35 327.353L257.039 323.77C257.274 323.615 257.262 323.357 257.039 323.19L250.467 319.039C250.327 318.96 250.171 318.919 250.014 318.919C249.856 318.919 249.701 318.96 249.56 319.039L243.884 322.622C243.637 322.777 243.648 323.035 243.884 323.202L250.455 327.353C250.712 327.444 250.991 327.421 251.233 327.288L251.35 327.353ZM292.228 289.665L297.916 286.069C298.151 285.927 298.14 285.669 297.916 285.502L291.344 281.351C291.203 281.275 291.048 281.235 290.891 281.235C290.734 281.235 290.579 281.275 290.438 281.351L284.761 284.947C284.514 285.102 284.526 285.36 284.761 285.514L291.333 289.665C291.459 289.712 291.594 289.731 291.727 289.72C291.861 289.709 291.991 289.668 292.11 289.6L292.228 289.665ZM284.573 306.421L297.245 298.404C297.48 298.262 297.468 298.004 297.245 297.837L281.287 287.757C281.147 287.678 280.991 287.637 280.834 287.637C280.676 287.637 280.52 287.678 280.38 287.757L273.832 291.907C273.585 292.049 273.609 292.307 273.832 292.475L282.288 297.811C282.547 297.978 282.559 298.236 282.288 298.391L276.953 301.561C276.718 301.703 276.729 301.961 276.953 302.129L283.548 306.24C283.684 306.33 283.837 306.382 283.994 306.393C284.152 306.404 284.31 306.374 284.455 306.305L284.573 306.421ZM242.117 299.976L236.441 303.572C236.194 303.727 236.205 303.972 236.441 304.139L243.012 308.29C243.153 308.369 243.308 308.41 243.466 308.41C243.624 308.41 243.779 308.369 243.919 308.29L249.607 304.694C249.843 304.539 249.831 304.294 249.607 304.126L243.036 299.976C242.886 299.861 242.709 299.795 242.526 299.783C242.343 299.772 242.161 299.816 242 299.912L242.117 299.976ZM233.874 305.222L228.009 308.818C227.773 308.973 227.785 309.231 228.009 309.385L234.58 313.536C234.72 313.615 234.876 313.656 235.034 313.656C235.191 313.656 235.347 313.615 235.487 313.536L241.175 309.939C241.411 309.798 241.399 309.54 241.175 309.372L234.557 305.183C234.424 305.109 234.278 305.067 234.129 305.063C233.981 305.058 233.833 305.091 233.697 305.158L233.874 305.222ZM192.16 363.997C192.3 364.076 192.456 364.117 192.614 364.117C192.771 364.117 192.927 364.076 193.067 363.997L198.755 360.401C198.991 360.259 198.979 360.001 198.755 359.834L192.16 355.709C192.02 355.63 191.864 355.589 191.707 355.589C191.549 355.589 191.394 355.63 191.253 355.709L185.577 359.305C185.33 359.46 185.341 359.718 185.577 359.872L192.16 363.997ZM167.229 347.138L161.54 350.734C161.305 350.889 161.317 351.133 161.54 351.301L168.112 355.451C168.252 355.53 168.408 355.572 168.565 355.572C168.723 355.572 168.878 355.53 169.019 355.451L174.707 351.855C174.942 351.701 174.931 351.456 174.707 351.288L168.135 347.138C168 347.065 167.851 347.027 167.7 347.027C167.549 347.027 167.4 347.065 167.264 347.138H167.229ZM180.595 359.447C180.735 359.526 180.891 359.567 181.049 359.567C181.206 359.567 181.362 359.526 181.502 359.447L187.179 355.851C187.426 355.709 187.402 355.451 187.179 355.284L180.619 351.133C180.479 351.054 180.323 351.013 180.165 351.013C180.008 351.013 179.852 351.054 179.712 351.133L174.024 354.729C173.788 354.884 173.8 355.142 174.024 355.297L180.595 359.447ZM206.822 367.18L212.51 363.584C212.746 363.43 212.734 363.185 212.51 363.017L205.939 358.867C205.799 358.788 205.643 358.747 205.486 358.747C205.328 358.747 205.172 358.788 205.032 358.867L199.356 362.463C199.108 362.605 199.132 362.863 199.356 363.03L205.915 367.18C206.059 367.268 206.221 367.315 206.385 367.318C206.55 367.32 206.712 367.277 206.858 367.193L206.822 367.18ZM197.613 372.336C197.753 372.415 197.908 372.457 198.066 372.457C198.224 372.457 198.379 372.415 198.52 372.336L204.208 368.74C204.443 368.598 204.432 368.34 204.208 368.173L197.636 364.023C197.496 363.943 197.341 363.902 197.183 363.902C197.025 363.902 196.87 363.943 196.73 364.023L191.053 367.619C190.806 367.773 190.818 368.031 191.053 368.186L197.613 372.336ZM175.531 341.815L169.855 345.411C169.608 345.552 169.619 345.81 169.855 345.978L176.426 350.128C176.567 350.207 176.722 350.248 176.88 350.248C177.037 350.248 177.193 350.207 177.333 350.128L183.021 346.532C183.257 346.377 183.245 346.12 183.021 345.965L176.45 341.815C176.307 341.751 176.153 341.725 176 341.739C175.847 341.752 175.698 341.805 175.567 341.892L175.531 341.815ZM217.056 315.585L211.368 319.168C211.133 319.323 211.144 319.581 211.368 319.735L217.94 323.899C218.081 323.975 218.236 324.014 218.393 324.014C218.55 324.014 218.705 323.975 218.846 323.899L224.523 320.315C224.77 320.161 224.758 319.903 224.523 319.735L217.951 315.585C217.812 315.526 217.662 315.502 217.513 315.516C217.364 315.529 217.22 315.579 217.092 315.662L217.056 315.585ZM183.916 336.646L178.24 340.229C177.993 340.384 178.004 340.642 178.24 340.809L184.811 344.959C184.952 345.036 185.108 345.075 185.265 345.075C185.422 345.075 185.577 345.036 185.718 344.959L191.406 341.363C191.642 341.209 191.63 340.951 191.406 340.796L184.835 336.633C184.691 336.557 184.534 336.518 184.374 336.52C184.215 336.523 184.058 336.566 183.916 336.646ZM225.441 310.404L219.706 313.974C219.471 314.128 219.482 314.386 219.706 314.541L226.278 318.691C226.418 318.77 226.573 318.812 226.731 318.812C226.889 318.812 227.044 318.77 227.184 318.691L232.861 315.108C233.108 314.953 233.096 314.696 232.861 314.528L226.313 310.429C226.172 310.347 226.016 310.302 225.856 310.297C225.697 310.293 225.539 310.329 225.394 310.404H225.441ZM208.836 320.908L203.148 324.491C202.912 324.646 202.924 324.904 203.148 325.071L209.719 329.222C209.86 329.298 210.016 329.338 210.173 329.338C210.33 329.338 210.485 329.298 210.626 329.222L216.303 325.639C216.55 325.484 216.526 325.226 216.303 325.059L209.743 320.908C209.596 320.824 209.432 320.779 209.266 320.779C209.1 320.779 208.936 320.824 208.789 320.908H208.836ZM200.522 326.154L194.845 329.737C194.598 329.892 194.621 330.15 194.845 330.317L201.417 334.468C201.558 334.544 201.713 334.583 201.87 334.583C202.027 334.583 202.183 334.544 202.324 334.468L208 330.884C208.235 330.73 208.224 330.472 208 330.304L201.428 326.154C201.281 326.069 201.118 326.025 200.952 326.025C200.785 326.025 200.622 326.069 200.475 326.154H200.522ZM192.16 331.4L186.484 334.983C186.236 335.138 186.26 335.396 186.484 335.563L193.043 339.714C193.184 339.793 193.339 339.834 193.497 339.834C193.655 339.834 193.81 339.793 193.95 339.714L199.638 336.13C199.874 335.976 199.862 335.718 199.638 335.55L193.067 331.4C192.926 331.324 192.771 331.284 192.614 331.284C192.456 331.284 192.301 331.324 192.16 331.4ZM234.616 337.845L240.292 334.261C240.539 334.107 240.527 333.849 240.292 333.681L233.709 329.441C233.568 329.365 233.413 329.325 233.255 329.325C233.098 329.325 232.943 329.365 232.802 329.441L227.114 333.024C226.878 333.179 226.89 333.437 227.114 333.604L233.685 337.754C233.828 337.844 233.989 337.894 234.153 337.898C234.318 337.903 234.481 337.862 234.627 337.78L234.616 337.845ZM307.573 258.55L301.885 262.146C301.649 262.301 301.661 262.546 301.885 262.713L308.456 266.864C308.596 266.943 308.752 266.984 308.91 266.984C309.067 266.984 309.223 266.943 309.363 266.864L315.039 263.268C315.287 263.113 315.275 262.868 315.039 262.701L308.468 258.55C308.329 258.473 308.176 258.433 308.02 258.433C307.865 258.433 307.712 258.473 307.573 258.55ZM297.515 264.905L291.839 268.501C291.592 268.642 291.615 268.9 291.839 269.068L298.399 273.218C298.54 273.294 298.695 273.334 298.852 273.334C299.009 273.334 299.165 273.294 299.306 273.218L304.994 269.622C305.229 269.467 305.218 269.21 304.994 269.055L298.422 264.905C298.285 264.813 298.13 264.76 297.97 264.748C297.81 264.737 297.65 264.769 297.504 264.84L297.515 264.905ZM315.876 253.304L310.199 256.9C309.952 257.042 309.964 257.3 310.199 257.467L316.771 261.618C316.911 261.697 317.066 261.738 317.224 261.738C317.382 261.738 317.537 261.697 317.677 261.618L323.366 258.022C323.601 257.867 323.589 257.609 323.366 257.455L316.794 253.304C316.65 253.202 316.485 253.142 316.313 253.13C316.142 253.119 315.971 253.157 315.817 253.24L315.876 253.304ZM272.89 301.819L278.578 298.223C278.814 298.069 278.802 297.811 278.578 297.656L272.007 293.506C271.867 293.427 271.711 293.385 271.554 293.385C271.396 293.385 271.24 293.427 271.1 293.506L265.424 297.102C265.176 297.244 265.188 297.501 265.424 297.669L271.995 301.819C272.137 301.884 272.29 301.912 272.444 301.901C272.597 301.89 272.746 301.84 272.878 301.755L272.89 301.819ZM325.085 248.084C324.945 248.005 324.789 247.964 324.632 247.964C324.474 247.964 324.318 248.005 324.178 248.084L318.502 251.68C318.254 251.822 318.266 252.08 318.502 252.247L325.073 256.398C325.214 256.474 325.369 256.513 325.527 256.513C325.684 256.513 325.839 256.474 325.98 256.398L331.668 252.802C331.904 252.647 331.892 252.389 331.668 252.234L325.085 248.084ZM242.93 332.534L248.618 328.951C248.854 328.796 248.842 328.539 248.618 328.371L242.011 324.285C241.871 324.206 241.716 324.165 241.558 324.165C241.4 324.165 241.245 324.206 241.105 324.285L235.428 327.868C235.181 328.023 235.193 328.281 235.428 328.448L242 332.599C242.148 332.669 242.31 332.7 242.472 332.689C242.634 332.678 242.791 332.625 242.93 332.534ZM344.764 268.191L350.452 264.595C350.688 264.453 350.676 264.196 350.452 264.028L343.845 259.839C343.705 259.76 343.55 259.719 343.392 259.719C343.234 259.719 343.079 259.76 342.939 259.839L337.262 263.435C337.015 263.59 337.027 263.848 337.262 264.002L343.834 268.153C343.974 268.242 344.132 268.293 344.294 268.299C344.457 268.306 344.618 268.269 344.764 268.191ZM327.099 267.508L332.787 263.912C333.023 263.757 333.011 263.513 332.787 263.345L326.216 259.195C326.075 259.116 325.92 259.074 325.762 259.074C325.604 259.074 325.449 259.116 325.309 259.195L319.632 262.791C319.385 262.945 319.397 263.19 319.632 263.358L326.204 267.508C326.335 267.591 326.482 267.64 326.633 267.651C326.784 267.663 326.935 267.636 327.075 267.573L327.099 267.508ZM334.483 253.949C334.343 253.87 334.187 253.828 334.029 253.828C333.872 253.828 333.716 253.87 333.576 253.949L327.9 257.545C327.652 257.687 327.664 257.944 327.9 258.112L334.471 262.262C334.611 262.341 334.767 262.383 334.925 262.383C335.082 262.383 335.238 262.341 335.378 262.262L341.066 258.666C341.302 258.512 341.29 258.254 341.066 258.099L334.483 253.949ZM336.238 252.84L352.183 262.92C352.324 262.999 352.479 263.04 352.637 263.04C352.795 263.04 352.95 262.999 353.09 262.92L358.778 259.324C359.014 259.169 359.002 258.924 358.778 258.756L342.821 248.677C342.681 248.598 342.525 248.557 342.367 248.557C342.21 248.557 342.054 248.598 341.914 248.677L336.238 252.273C335.931 252.415 335.955 252.673 336.214 252.84H336.238ZM316.971 264.441L311.283 268.037C311.047 268.191 311.059 268.449 311.283 268.604L317.854 272.754C317.994 272.833 318.15 272.875 318.307 272.875C318.465 272.875 318.621 272.833 318.761 272.754L324.437 269.158C324.685 269.016 324.673 268.758 324.437 268.591L317.866 264.441C317.732 264.364 317.584 264.321 317.433 264.317C317.282 264.312 317.132 264.346 316.994 264.415L316.971 264.441ZM254.471 303.933L248.759 307.529C248.524 307.684 248.536 307.942 248.759 308.096L255.331 312.247C255.471 312.326 255.627 312.367 255.784 312.367C255.942 312.367 256.098 312.326 256.238 312.247L261.914 308.651C262.162 308.509 262.15 308.251 261.914 308.083L255.343 303.933C255.206 303.852 255.054 303.808 254.898 303.803C254.742 303.799 254.588 303.834 254.448 303.907L254.471 303.933ZM335.578 273.437C335.718 273.516 335.874 273.558 336.032 273.558C336.189 273.558 336.345 273.516 336.485 273.437L342.173 269.841C342.409 269.699 342.397 269.442 342.173 269.274L335.602 265.124C335.461 265.048 335.306 265.008 335.148 265.008C334.991 265.008 334.836 265.048 334.695 265.124L329.018 268.72C328.771 268.874 328.783 269.132 329.018 269.287L335.578 273.437ZM262.774 298.687L257.097 302.283C256.85 302.438 256.862 302.683 257.097 302.85L263.669 307.001C263.809 307.08 263.965 307.121 264.122 307.121C264.28 307.121 264.436 307.08 264.576 307.001L270.264 303.405C270.499 303.25 270.488 303.005 270.264 302.838L263.692 298.687C263.55 298.597 263.389 298.548 263.224 298.544C263.06 298.539 262.897 298.58 262.75 298.661L262.774 298.687ZM200.522 358.777C200.662 358.856 200.817 358.897 200.975 358.897C201.133 358.897 201.288 358.856 201.428 358.777L207.117 355.181C207.352 355.026 207.34 354.781 207.117 354.614L200.545 350.463C200.405 350.384 200.25 350.343 200.092 350.343C199.934 350.343 199.779 350.384 199.638 350.463L193.962 354.059C193.715 354.214 193.738 354.459 193.962 354.626L200.522 358.777ZM188.038 345.888L182.35 349.484C182.115 349.638 182.126 349.883 182.35 350.051L188.922 354.201C189.062 354.28 189.217 354.321 189.375 354.321C189.533 354.321 189.688 354.28 189.828 354.201L195.505 350.605C195.752 350.45 195.74 350.205 195.505 350.038L188.933 345.888C188.792 345.806 188.634 345.764 188.474 345.764C188.314 345.764 188.156 345.806 188.015 345.888H188.038ZM209.743 353.531L215.419 349.935C215.655 349.78 215.643 349.522 215.419 349.368L208.848 345.217C208.708 345.138 208.552 345.097 208.394 345.097C208.237 345.097 208.081 345.138 207.941 345.217L202.206 348.775C201.97 348.916 201.982 349.174 202.206 349.342L208.777 353.492C208.919 353.584 209.079 353.635 209.244 353.642C209.408 353.649 209.572 353.611 209.719 353.531H209.743ZM218.046 348.285L223.722 344.689C223.969 344.534 223.946 344.276 223.722 344.122L217.162 339.971C217.022 339.892 216.867 339.851 216.709 339.851C216.551 339.851 216.396 339.892 216.255 339.971L210.567 343.555C210.332 343.709 210.344 343.967 210.567 344.135L217.139 348.285C217.283 348.365 217.442 348.407 217.604 348.407C217.766 348.407 217.925 348.365 218.069 348.285H218.046ZM226.289 343.026L231.966 339.443C232.213 339.288 232.201 339.03 231.966 338.876L225.394 334.713C225.253 334.636 225.098 334.597 224.941 334.597C224.784 334.597 224.628 334.636 224.487 334.713L218.799 338.296C218.564 338.45 218.576 338.708 218.799 338.876L225.371 343.026C225.515 343.112 225.677 343.157 225.842 343.157C226.006 343.157 226.168 343.112 226.313 343.026H226.289ZM196.282 340.642L190.594 344.238C190.358 344.379 190.37 344.637 190.594 344.805L197.165 348.955C197.305 349.034 197.461 349.076 197.619 349.076C197.776 349.076 197.932 349.034 198.072 348.955L203.76 345.359C203.996 345.204 203.984 344.947 203.76 344.792L197.189 340.642C197.053 340.569 196.904 340.531 196.753 340.531C196.602 340.531 196.453 340.569 196.317 340.642H196.282ZM204.585 335.396L198.908 338.979C198.661 339.134 198.673 339.391 198.908 339.559L205.48 343.709C205.621 343.785 205.776 343.825 205.933 343.825C206.09 343.825 206.245 343.785 206.387 343.709L212.181 340.139C212.416 339.984 212.404 339.726 212.181 339.572L205.609 335.421C205.461 335.323 205.291 335.268 205.118 335.263C204.944 335.259 204.772 335.305 204.62 335.396H204.585ZM237.807 314.412L232.201 317.995C231.966 318.15 231.978 318.408 232.201 318.575L238.773 322.726C238.914 322.802 239.069 322.841 239.226 322.841C239.383 322.841 239.539 322.802 239.68 322.726L245.356 319.142C245.603 318.988 245.58 318.73 245.356 318.562L238.796 314.412C238.65 314.324 238.486 314.278 238.319 314.278C238.153 314.278 237.988 314.324 237.842 314.412H237.807ZM229.493 319.658L223.816 323.241C223.581 323.396 223.592 323.654 223.816 323.821L230.388 327.971C230.529 328.048 230.684 328.087 230.841 328.087C230.998 328.087 231.153 328.048 231.294 327.971L236.971 324.388C237.218 324.234 237.195 323.976 236.971 323.808L230.399 319.658C230.263 319.588 230.114 319.551 229.964 319.551C229.813 319.551 229.664 319.588 229.528 319.658H229.493ZM246.11 309.153L240.445 312.749C240.21 312.904 240.221 313.162 240.445 313.316L247.017 317.48C247.158 317.556 247.313 317.595 247.47 317.595C247.627 317.595 247.782 317.556 247.923 317.48L253.6 313.884C253.847 313.742 253.835 313.484 253.6 313.316L247.028 309.166C246.891 309.092 246.741 309.052 246.588 309.05C246.435 309.048 246.284 309.083 246.145 309.153H246.11ZM212.887 330.15L207.211 333.733C206.964 333.888 206.975 334.145 207.211 334.313L213.782 338.463C213.923 338.539 214.078 338.579 214.236 338.579C214.393 338.579 214.548 338.539 214.689 338.463L220.377 334.867C220.613 334.713 220.601 334.455 220.377 334.3L213.806 330.137C213.667 330.067 213.516 330.032 213.363 330.034C213.21 330.036 213.06 330.076 212.923 330.15H212.887ZM221.19 324.904L215.514 328.487C215.266 328.642 215.29 328.9 215.514 329.067L222.085 333.217C222.223 333.296 222.377 333.338 222.533 333.338C222.688 333.338 222.842 333.296 222.98 333.217L228.668 329.634C228.904 329.48 228.892 329.222 228.668 329.054L222.097 324.904C221.96 324.834 221.812 324.797 221.661 324.797C221.51 324.797 221.362 324.834 221.225 324.904H221.19ZM215.137 361.947L220.813 358.351C221.049 358.197 221.037 357.939 220.813 357.784L214.242 353.634C214.101 353.555 213.946 353.514 213.788 353.514C213.631 353.514 213.475 353.555 213.335 353.634L207.658 357.23C207.411 357.372 207.435 357.63 207.658 357.797L214.23 361.947C214.375 362.033 214.536 362.078 214.701 362.078C214.865 362.078 215.027 362.033 215.172 361.947H215.137ZM166.44 356.508L159.868 352.358C159.728 352.279 159.572 352.237 159.415 352.237C159.257 352.237 159.101 352.279 158.961 352.358L153.297 355.98C153.061 356.134 153.073 356.379 153.297 356.547L159.868 360.697C160.008 360.776 160.164 360.818 160.322 360.818C160.479 360.818 160.635 360.776 160.775 360.697L166.451 357.101C166.71 356.985 166.699 356.727 166.44 356.508ZM178.876 360.504L172.304 356.354C172.165 356.278 172.012 356.238 171.857 356.238C171.702 356.238 171.548 356.278 171.409 356.354L162.718 361.909C162.483 362.063 162.494 362.321 162.718 362.476L169.29 366.626C169.43 366.705 169.585 366.747 169.743 366.747C169.901 366.747 170.056 366.705 170.196 366.626L178.935 361.11C179.206 360.981 179.135 360.723 178.876 360.555V360.504ZM156.359 348.478L149.764 344.379C149.623 344.3 149.468 344.259 149.31 344.259C149.152 344.259 148.997 344.3 148.857 344.379L141.885 348.775C141.649 348.929 141.661 349.187 141.885 349.355L148.456 353.505C148.597 353.584 148.752 353.625 148.91 353.625C149.068 353.625 149.223 353.584 149.363 353.505L156.347 349.097C156.629 348.955 156.618 348.697 156.359 348.53V348.478ZM161.717 345.088C161.857 345.168 162.013 345.209 162.17 345.209C162.328 345.209 162.484 345.168 162.624 345.088L168.3 341.492C168.548 341.351 168.536 341.093 168.3 340.925L161.729 336.775C161.589 336.696 161.433 336.654 161.275 336.654C161.118 336.654 160.962 336.696 160.822 336.775L155.134 340.371C154.898 340.526 154.91 340.783 155.134 340.938L161.717 345.088ZM190.452 365.054L183.916 360.955C183.775 360.879 183.62 360.839 183.463 360.839C183.306 360.839 183.151 360.879 183.01 360.955L172.081 367.864C171.845 368.018 171.857 368.276 172.081 368.431L178.652 372.594C178.793 372.67 178.948 372.71 179.106 372.71C179.263 372.71 179.418 372.67 179.559 372.594L190.488 365.685C190.723 365.531 190.712 365.273 190.452 365.105V365.054ZM195.905 373.47L189.334 369.397C189.193 369.318 189.038 369.277 188.88 369.277C188.723 369.277 188.567 369.318 188.427 369.397L181.431 373.818C181.196 373.973 181.208 374.231 181.431 374.398L188.003 378.549C188.144 378.625 188.299 378.665 188.456 378.665C188.614 378.665 188.769 378.625 188.91 378.549L195.905 374.128C196.176 373.947 196.164 373.69 195.905 373.522V373.47ZM223.463 306.073C223.603 306.152 223.759 306.193 223.916 306.193C224.074 306.193 224.23 306.152 224.37 306.073L230.046 302.49C230.293 302.335 230.27 302.077 230.046 301.91L223.475 297.759C223.334 297.683 223.179 297.643 223.021 297.643C222.864 297.643 222.709 297.683 222.568 297.759L216.891 301.407C216.656 301.561 216.668 301.819 216.891 301.974L223.463 306.073ZM206.846 316.577C206.987 316.654 207.142 316.693 207.299 316.693C207.456 316.693 207.612 316.654 207.753 316.577L213.441 312.994C213.676 312.84 213.665 312.582 213.441 312.414L206.869 308.264C206.728 308.188 206.573 308.148 206.416 308.148C206.259 308.148 206.104 308.188 205.963 308.264L200.286 311.847C200.039 312.002 200.062 312.26 200.286 312.427L206.846 316.577ZM170.02 339.894C170.16 339.973 170.315 340.014 170.473 340.014C170.631 340.014 170.786 339.973 170.927 339.894L176.603 336.298C176.85 336.143 176.838 335.898 176.603 335.731L170.032 331.58C169.891 331.501 169.736 331.46 169.578 331.46C169.42 331.46 169.265 331.501 169.125 331.58L163.436 335.177C163.201 335.331 163.213 335.576 163.436 335.744L170.02 339.894ZM215.16 311.396C215.299 311.472 215.452 311.512 215.608 311.512C215.763 311.512 215.916 311.472 216.055 311.396L221.743 307.813C221.979 307.658 221.967 307.4 221.743 307.233L215.172 303.082C215.032 303.003 214.876 302.962 214.719 302.962C214.561 302.962 214.405 303.003 214.265 303.082L208.589 306.666C208.341 306.82 208.365 307.078 208.589 307.246L215.16 311.396ZM198.543 321.888C198.683 321.967 198.839 322.008 198.997 322.008C199.154 322.008 199.31 321.967 199.45 321.888L205.138 318.305C205.374 318.15 205.362 317.892 205.138 317.725L198.567 313.574C198.426 313.498 198.271 313.458 198.113 313.458C197.956 313.458 197.801 313.498 197.66 313.574L191.983 317.157C191.736 317.312 191.748 317.57 191.983 317.737L198.543 321.888ZM200.463 374.205C200.322 374.129 200.167 374.089 200.009 374.089C199.852 374.089 199.697 374.129 199.556 374.205L190.818 379.709C190.582 379.863 190.594 380.121 190.818 380.289L197.389 384.439C197.529 384.518 197.685 384.56 197.842 384.56C198 384.56 198.156 384.518 198.296 384.439L207.034 378.923C207.282 378.768 207.258 378.51 207.034 378.343L200.463 374.205ZM186.625 329.441C186.766 329.517 186.921 329.557 187.078 329.557C187.236 329.557 187.391 329.517 187.532 329.441L193.22 325.845C193.456 325.69 193.444 325.432 193.22 325.278L186.649 321.127C186.508 321.048 186.353 321.007 186.195 321.007C186.037 321.007 185.882 321.048 185.742 321.127L180.065 324.723C179.818 324.865 179.83 325.123 180.065 325.291L186.625 329.441ZM178.322 334.597C178.463 334.676 178.618 334.717 178.776 334.717C178.934 334.717 179.089 334.676 179.229 334.597L184.917 331C185.153 330.846 185.141 330.588 184.917 330.433L178.346 326.283C178.206 326.204 178.05 326.163 177.893 326.163C177.735 326.163 177.579 326.204 177.439 326.283L171.763 329.879C171.515 330.021 171.527 330.279 171.763 330.446L178.322 334.597ZM354.315 276.982C354.175 276.903 354.019 276.861 353.862 276.861C353.704 276.861 353.548 276.903 353.408 276.982L339.37 285.798C339.135 285.953 339.147 286.21 339.37 286.378L345.942 290.528C346.083 290.604 346.238 290.644 346.395 290.644C346.552 290.644 346.708 290.604 346.849 290.528L360.91 281.751C361.157 281.596 361.146 281.338 360.91 281.171L354.315 276.982ZM335.955 288.582C335.815 288.503 335.659 288.462 335.502 288.462C335.344 288.462 335.188 288.503 335.048 288.582L329.372 292.165C329.124 292.32 329.136 292.578 329.372 292.745L335.943 296.896C336.084 296.972 336.239 297.011 336.397 297.011C336.554 297.011 336.709 296.972 336.85 296.896L342.538 293.312C342.774 293.158 342.762 292.9 342.538 292.732L335.955 288.582ZM223.475 356.702L229.151 353.105C229.398 352.951 229.375 352.693 229.151 352.538L222.591 348.375C222.45 348.299 222.295 348.259 222.138 348.259C221.981 348.259 221.826 348.299 221.685 348.375L215.996 351.958C215.761 352.113 215.773 352.371 215.996 352.538L222.568 356.689C222.708 356.767 222.863 356.809 223.02 356.811C223.177 356.813 223.333 356.776 223.475 356.702ZM319.35 299.074C319.209 298.998 319.054 298.958 318.896 298.958C318.739 298.958 318.584 298.998 318.443 299.074L312.755 302.657C312.519 302.812 312.531 303.07 312.755 303.237L319.326 307.387C319.466 307.467 319.622 307.508 319.78 307.508C319.937 307.508 320.093 307.467 320.233 307.387L325.909 303.804C326.157 303.65 326.145 303.392 325.909 303.224L319.35 299.074ZM362.618 271.736C362.477 271.66 362.322 271.62 362.164 271.62C362.007 271.62 361.852 271.66 361.711 271.736L356.034 275.306C355.787 275.461 355.799 275.719 356.034 275.873L362.606 280.037C362.747 280.113 362.902 280.152 363.059 280.152C363.217 280.152 363.372 280.113 363.513 280.037L369.201 276.453C369.436 276.299 369.425 276.041 369.201 275.873L362.618 271.736ZM377.492 270.64L361.534 260.561C361.394 260.482 361.239 260.44 361.081 260.44C360.923 260.44 360.768 260.482 360.627 260.561L354.951 264.157C354.704 264.312 354.715 264.569 354.951 264.724L370.909 274.803C371.049 274.883 371.204 274.924 371.362 274.924C371.52 274.924 371.675 274.883 371.815 274.803L377.504 271.207C377.763 271.066 377.751 270.808 377.492 270.64ZM288.318 318.691C288.178 318.612 288.022 318.571 287.864 318.571C287.707 318.571 287.551 318.612 287.411 318.691L280.416 323.112C280.18 323.267 280.192 323.525 280.416 323.679L286.987 327.83C287.127 327.909 287.283 327.95 287.44 327.95C287.598 327.95 287.754 327.909 287.894 327.83L294.889 323.409C295.125 323.254 295.113 322.996 294.889 322.842L288.318 318.691ZM309.292 305.428C309.152 305.349 308.997 305.308 308.839 305.308C308.681 305.308 308.526 305.349 308.385 305.428L299.647 310.945C299.412 311.1 299.423 311.357 299.647 311.512L306.219 315.675C306.36 315.751 306.515 315.791 306.672 315.791C306.829 315.791 306.984 315.751 307.125 315.675L315.864 310.159C316.099 310.004 316.088 309.746 315.864 309.579L309.292 305.428ZM269.086 330.833C268.945 330.757 268.79 330.717 268.633 330.717C268.476 330.717 268.32 330.757 268.179 330.833L221.414 360.375C221.178 360.53 221.19 360.787 221.414 360.955L227.985 365.105C228.126 365.182 228.281 365.221 228.439 365.221C228.596 365.221 228.751 365.182 228.892 365.105L275.658 335.55C275.893 335.396 275.881 335.138 275.658 334.97L269.086 330.833ZM219.694 362.051C219.554 361.971 219.399 361.93 219.241 361.93C219.083 361.93 218.928 361.971 218.787 362.051L211.804 366.472C211.557 366.626 211.568 366.884 211.804 367.039L218.375 371.189C218.516 371.268 218.671 371.309 218.829 371.309C218.986 371.309 219.142 371.268 219.282 371.189L226.313 366.82C226.548 366.665 226.537 366.407 226.313 366.252L219.694 362.051ZM278.696 324.762C278.555 324.686 278.4 324.646 278.243 324.646C278.085 324.646 277.93 324.686 277.789 324.762L270.806 329.183C270.558 329.338 270.57 329.596 270.806 329.763L277.377 333.913C277.518 333.99 277.673 334.029 277.831 334.029C277.988 334.029 278.143 333.99 278.284 333.913L285.279 329.492C285.527 329.351 285.503 329.093 285.279 328.925L278.696 324.762ZM210.084 368.109C209.943 368.032 209.788 367.993 209.631 367.993C209.474 367.993 209.319 368.032 209.178 368.109L202.182 372.53C201.947 372.684 201.958 372.942 202.182 373.11L208.754 377.26C208.895 377.336 209.05 377.376 209.207 377.376C209.364 377.376 209.519 377.336 209.66 377.26L216.644 372.852C216.891 372.697 216.88 372.439 216.644 372.272L210.084 368.109ZM297.928 312.595C297.787 312.518 297.632 312.479 297.474 312.479C297.317 312.479 297.162 312.518 297.021 312.595L290.037 317.003C289.79 317.157 289.802 317.415 290.037 317.583L296.609 321.733C296.75 321.809 296.905 321.849 297.062 321.849C297.219 321.849 297.374 321.809 297.515 321.733L304.511 317.312C304.758 317.157 304.735 316.9 304.511 316.732L297.928 312.595ZM327.652 293.815C327.512 293.736 327.357 293.695 327.199 293.695C327.041 293.695 326.886 293.736 326.746 293.815L321.069 297.398C320.822 297.553 320.834 297.811 321.069 297.978L327.641 302.129C327.782 302.205 327.937 302.244 328.094 302.244C328.251 302.244 328.406 302.205 328.547 302.129L334.236 298.545C334.471 298.391 334.459 298.133 334.236 297.965L327.652 293.815ZM345.848 279.353L351.524 275.77C351.771 275.615 351.759 275.358 351.524 275.19L344.952 271.04C344.811 270.964 344.656 270.924 344.499 270.924C344.342 270.924 344.187 270.964 344.046 271.04L338.357 274.636C338.122 274.791 338.134 275.048 338.357 275.203L344.929 279.366C345.071 279.444 345.229 279.485 345.388 279.485C345.548 279.485 345.705 279.444 345.848 279.366V279.353ZM308.751 279.173L314.439 275.577C314.674 275.422 314.663 275.164 314.439 275.01L307.867 270.859C307.727 270.78 307.572 270.739 307.414 270.739C307.256 270.739 307.101 270.78 306.96 270.859L301.284 274.455C301.037 274.61 301.06 274.855 301.284 275.023L307.844 279.173C307.984 279.252 308.139 279.293 308.297 279.293C308.455 279.293 308.61 279.252 308.751 279.173ZM289.908 314.786L306.513 304.294C306.749 304.139 306.737 303.882 306.513 303.714L299.941 299.564C299.8 299.488 299.645 299.448 299.488 299.448C299.331 299.448 299.176 299.488 299.035 299.564L282.429 310.068C282.194 310.21 282.206 310.468 282.429 310.636L289.001 314.786C289.146 314.855 289.304 314.886 289.461 314.874C289.619 314.863 289.772 314.811 289.908 314.721V314.786ZM336.638 284.664C336.779 284.74 336.934 284.78 337.091 284.78C337.249 284.78 337.404 284.74 337.545 284.664L343.221 281.081C343.469 280.926 343.457 280.668 343.221 280.501L336.65 276.35C336.51 276.271 336.354 276.23 336.196 276.23C336.039 276.23 335.883 276.271 335.743 276.35L330.055 279.933C329.819 280.088 329.831 280.346 330.055 280.513L336.638 284.664ZM328.159 278.748L333.835 275.164C334.082 275.01 334.071 274.752 333.835 274.584L327.264 270.434C327.123 270.358 326.968 270.318 326.81 270.318C326.653 270.318 326.498 270.358 326.357 270.434L320.669 274.03C320.433 274.185 320.445 274.443 320.669 274.597L327.24 278.76C327.388 278.827 327.548 278.855 327.708 278.841C327.867 278.828 328.022 278.774 328.159 278.683V278.748ZM281.605 319.993L287.281 316.397C287.529 316.242 287.505 315.997 287.281 315.83L280.71 311.68C280.57 311.6 280.414 311.559 280.257 311.559C280.099 311.559 279.943 311.6 279.803 311.68L274.091 315.263C273.844 315.417 273.868 315.662 274.091 315.83L280.663 319.98C280.816 320.076 280.989 320.125 281.165 320.123C281.341 320.12 281.513 320.067 281.664 319.967L281.605 319.993ZM318.278 296.225C318.419 296.302 318.574 296.341 318.731 296.341C318.889 296.341 319.044 296.302 319.185 296.225L324.873 292.642C325.109 292.487 325.097 292.23 324.873 292.062L318.302 287.912C318.161 287.836 318.005 287.796 317.848 287.796C317.691 287.796 317.536 287.836 317.395 287.912L311.718 291.508C311.471 291.663 311.483 291.92 311.718 292.075L318.278 296.225ZM240.08 346.197L245.756 342.614C246.004 342.459 245.992 342.201 245.756 342.034L239.185 337.883C239.044 337.807 238.889 337.768 238.732 337.768C238.574 337.768 238.419 337.807 238.278 337.883L232.59 341.466C232.354 341.621 232.366 341.879 232.59 342.047L239.161 346.197C239.304 346.275 239.461 346.316 239.621 346.316C239.78 346.316 239.937 346.275 240.08 346.197ZM248.383 340.951L254.071 337.368C254.306 337.213 254.295 336.955 254.071 336.788L247.511 332.637C247.371 332.558 247.215 332.517 247.058 332.517C246.9 332.517 246.745 332.558 246.604 332.637L240.916 336.221C240.681 336.375 240.692 336.633 240.916 336.801L247.488 340.951C247.627 341.025 247.78 341.064 247.935 341.064C248.09 341.064 248.243 341.025 248.383 340.951ZM231.777 351.443L237.454 347.86C237.701 347.705 237.689 347.447 237.454 347.28L230.894 343.129C230.753 343.053 230.598 343.013 230.441 343.013C230.283 343.013 230.128 343.053 229.987 343.129L224.299 346.712C224.063 346.867 224.075 347.125 224.299 347.292L230.87 351.443C231.011 351.522 231.166 351.563 231.324 351.563C231.482 351.563 231.637 351.522 231.777 351.443ZM264.988 330.459L270.676 326.876C270.912 326.721 270.9 326.463 270.676 326.296L264.105 322.146C263.964 322.069 263.808 322.03 263.651 322.03C263.494 322.03 263.339 322.069 263.198 322.146L257.521 325.742C257.274 325.896 257.286 326.154 257.521 326.309L264.093 330.459C264.232 330.536 264.385 330.576 264.54 330.576C264.696 330.576 264.849 330.536 264.988 330.459ZM256.744 335.705L262.432 332.122C262.668 331.967 262.656 331.709 262.432 331.542L255.755 327.391C255.615 327.312 255.459 327.271 255.302 327.271C255.144 327.271 254.988 327.312 254.848 327.391L249.172 330.975C248.924 331.129 248.936 331.387 249.172 331.542L255.743 335.705C255.889 335.787 256.05 335.831 256.214 335.831C256.378 335.831 256.54 335.787 256.685 335.705H256.744ZM273.349 325.213L279.038 321.617C279.273 321.475 279.261 321.218 279.038 321.05L272.466 316.9C272.326 316.821 272.171 316.779 272.013 316.779C271.855 316.779 271.7 316.821 271.559 316.9L265.789 320.418C265.541 320.573 265.565 320.831 265.789 320.986L272.348 325.136C272.487 325.234 272.646 325.292 272.811 325.306C272.975 325.319 273.14 325.287 273.291 325.213H273.349ZM311.341 247.581C311.482 247.661 311.637 247.702 311.795 247.702C311.953 247.702 312.108 247.661 312.248 247.581L317.936 243.985C318.172 243.844 318.16 243.586 317.936 243.418L316.194 242.31C316.053 242.234 315.897 242.194 315.74 242.194C315.583 242.194 315.428 242.234 315.287 242.31L309.598 245.893C309.363 246.048 309.375 246.305 309.598 246.473L311.341 247.581ZM270.488 276.453C270.628 276.532 270.783 276.574 270.941 276.574C271.099 276.574 271.254 276.532 271.395 276.453L277.071 272.87C277.318 272.715 277.306 272.458 277.071 272.29L270.499 268.14C270.358 268.064 270.203 268.024 270.046 268.024C269.889 268.024 269.734 268.064 269.593 268.14L263.904 271.723C263.669 271.878 263.681 272.135 263.904 272.303L270.488 276.453ZM287.093 265.961C287.234 266.038 287.389 266.077 287.546 266.077C287.704 266.077 287.859 266.038 288 265.961L293.688 262.378C293.924 262.224 293.912 261.966 293.688 261.798L287.117 257.648C286.976 257.569 286.821 257.528 286.663 257.528C286.505 257.528 286.35 257.569 286.21 257.648L280.486 261.231C280.239 261.386 280.251 261.644 280.486 261.811L287.093 265.961ZM260.348 282.859C260.489 282.935 260.644 282.975 260.801 282.975C260.959 282.975 261.114 282.935 261.255 282.859L266.931 279.263C267.178 279.108 267.167 278.851 266.931 278.696L260.36 274.533C260.219 274.457 260.063 274.417 259.906 274.417C259.749 274.417 259.594 274.457 259.453 274.533L253.765 278.116C253.529 278.271 253.541 278.528 253.765 278.696L260.348 282.859ZM278.79 271.259C278.931 271.335 279.087 271.375 279.244 271.375C279.401 271.375 279.556 271.335 279.697 271.259L285.385 267.676C285.621 267.521 285.609 267.263 285.385 267.096L278.814 262.945C278.673 262.869 278.518 262.83 278.361 262.83C278.203 262.83 278.048 262.869 277.907 262.945L272.231 266.529C271.983 266.683 271.995 266.941 272.231 267.109L278.79 271.259ZM243.684 293.351C243.824 293.43 243.979 293.471 244.137 293.471C244.295 293.471 244.45 293.43 244.59 293.351L250.267 289.755C250.514 289.6 250.491 289.343 250.267 289.188L243.707 285.038C243.567 284.958 243.412 284.917 243.254 284.917C243.096 284.917 242.941 284.958 242.8 285.038L237.112 288.634C236.877 288.775 236.888 289.033 237.112 289.201L243.684 293.351ZM251.986 288.105C252.127 288.181 252.282 288.221 252.44 288.221C252.597 288.221 252.752 288.181 252.893 288.105L258.57 284.509C258.817 284.354 258.805 284.097 258.57 283.942L252.01 279.792C251.87 279.712 251.714 279.671 251.556 279.671C251.399 279.671 251.243 279.712 251.103 279.792L245.415 283.388C245.179 283.529 245.191 283.787 245.415 283.955L251.986 288.105ZM294.677 258.086C294.818 258.162 294.973 258.202 295.131 258.202C295.288 258.202 295.443 258.162 295.584 258.086L301.272 254.503C301.508 254.348 301.496 254.091 301.272 253.923L299.518 252.814C299.377 252.738 299.221 252.699 299.064 252.699C298.907 252.699 298.752 252.738 298.611 252.814L292.934 256.398C292.687 256.552 292.711 256.81 292.934 256.978L294.677 258.086ZM319.597 242.336C319.735 242.415 319.889 242.456 320.045 242.456C320.2 242.456 320.354 242.415 320.492 242.336L326.18 238.739C326.416 238.585 326.404 238.34 326.18 238.172L324.437 237.064C324.297 236.985 324.142 236.943 323.984 236.943C323.826 236.943 323.671 236.985 323.53 237.064L317.842 240.647C317.607 240.802 317.618 241.06 317.842 241.227L319.597 242.336ZM333.388 251.062C333.529 251.138 333.684 251.177 333.841 251.177C333.998 251.177 334.153 251.138 334.294 251.062L339.983 247.465C340.218 247.311 340.206 247.053 339.983 246.898L333.411 242.735C333.27 242.659 333.115 242.619 332.958 242.619C332.801 242.619 332.645 242.659 332.504 242.735L326.828 246.318C326.581 246.473 326.604 246.731 326.828 246.898L333.388 251.062ZM354.15 274.12L359.838 270.524C360.074 270.382 360.062 270.125 359.838 269.957L353.267 265.807C353.126 265.731 352.971 265.691 352.814 265.691C352.656 265.691 352.501 265.731 352.36 265.807L346.684 269.403C346.436 269.558 346.448 269.815 346.684 269.97L353.255 274.12C353.394 274.197 353.547 274.237 353.703 274.237C353.858 274.237 354.011 274.197 354.15 274.12ZM302.98 252.84C303.121 252.916 303.276 252.956 303.433 252.956C303.591 252.956 303.746 252.916 303.887 252.84L309.575 249.257C309.81 249.102 309.799 248.845 309.575 248.677L307.82 247.569C307.679 247.492 307.524 247.453 307.367 247.453C307.21 247.453 307.054 247.492 306.913 247.569L301.237 251.152C301.001 251.306 301.013 251.564 301.237 251.732L302.98 252.84ZM235.381 298.597C235.521 298.676 235.677 298.717 235.834 298.717C235.992 298.717 236.148 298.676 236.288 298.597L241.964 295.001C242.2 294.846 242.188 294.601 241.964 294.434L235.393 290.283C235.253 290.204 235.097 290.163 234.939 290.163C234.782 290.163 234.626 290.204 234.486 290.283L228.81 293.88C228.574 294.034 228.586 294.279 228.81 294.447L235.381 298.597Z" fill="#455A64"/>
<path d="M269.145 355.09L331.327 315.791L369.602 339.971L307.408 379.271L269.145 355.09Z" fill="#263238"/>
<path d="M130.921 157.061L316.241 39.9621C319.856 37.6678 322.824 39.5496 322.824 44.1253V201.206C322.764 202.368 322.456 203.498 321.925 204.506C321.393 205.513 320.652 206.37 319.762 207.006L129.743 327.082C128.059 328.139 126.681 327.276 126.681 325.149V165.091C126.766 163.483 127.193 161.919 127.929 160.525C128.666 159.13 129.69 157.944 130.921 157.061Z" fill="#F5F5F5"/>
<path d="M322.883 47.8884V44.1248C322.883 39.5491 319.915 37.6802 316.3 39.9615L130.921 157.06C129.69 157.943 128.666 159.13 127.929 160.524C127.193 161.918 126.766 163.482 126.681 165.09V171.831L322.883 47.8884Z" fill="#F03E3D"/>
<path d="M295.231 56.4604C294.569 56.9317 294.019 57.5672 293.624 58.3152C293.229 59.0633 293.001 59.9027 292.958 60.7654C292.958 62.3508 293.971 62.9953 295.231 62.1961C295.89 61.7262 296.438 61.0925 296.831 60.3466C297.224 59.6007 297.451 58.7638 297.492 57.904C297.492 56.3186 296.479 55.6742 295.231 56.4604Z" fill="white"/>
<path d="M304.228 50.7756C303.569 51.2483 303.021 51.8844 302.628 52.6324C302.235 53.3803 302.009 54.2191 301.967 55.0806C301.967 56.666 302.98 57.2975 304.228 56.5113C304.89 56.04 305.441 55.4046 305.836 54.6565C306.23 53.9085 306.459 53.069 306.501 52.2063C306.501 50.6209 305.488 49.9765 304.228 50.7756Z" fill="white"/>
<path d="M313.237 45.0789C312.578 45.5524 312.029 46.1885 311.634 46.936C311.239 47.6836 311.01 48.5219 310.964 49.3839C310.964 50.9693 311.989 51.6137 313.237 50.8146C313.898 50.3454 314.448 49.7121 314.843 48.9663C315.238 48.2205 315.467 47.3832 315.51 46.5225C315.51 44.9371 314.486 44.2927 313.237 45.0789Z" fill="white"/>
<path d="M172.442 248.737L165.232 244.181L147.572 277.657L154.783 282.213L172.442 248.737Z" fill="#37474F"/>
<path d="M172.457 248.727L168.856 246.452L151.197 279.928L154.797 282.203L172.457 248.727Z" fill="#263238"/>
<path d="M128.212 343.026C124.926 349.277 109.369 339.353 112.643 333.192L153.214 263.938C153.324 263.75 153.495 263.616 153.692 263.563C153.89 263.51 154.098 263.543 154.274 263.654L162.424 268.81C162.599 268.919 162.729 269.098 162.786 269.309C162.844 269.521 162.823 269.749 162.73 269.944L128.212 343.026Z" fill="#4682B4"/>
<path opacity="0.1" d="M128.212 343.026L162.718 269.944C162.811 269.749 162.832 269.521 162.774 269.309C162.717 269.098 162.587 268.919 162.412 268.81L158.702 266.464L119.144 343.426C122.748 345.372 126.728 345.849 128.212 343.026Z" fill="black"/>
<path d="M247.511 179.99C247.511 179.462 247.511 178.946 247.44 178.431C247.37 177.915 247.44 177.413 247.334 176.91C247.228 176.407 247.334 176.24 247.24 175.905C247.158 175.028 247.04 174.164 246.91 173.327C246.852 172.953 246.793 172.566 246.722 172.192C246.651 171.819 246.592 171.483 246.522 171.135C246.322 170.182 246.11 169.254 245.862 168.364C245.733 167.939 245.615 167.514 245.485 167.075C245.461 167.013 245.441 166.948 245.427 166.882C245.285 166.47 245.156 166.07 245.014 165.683C244.873 165.297 244.685 164.781 244.496 164.394C244.308 164.008 244.237 163.763 244.084 163.454C243.999 163.221 243.896 162.997 243.778 162.783C243.66 162.513 243.53 162.242 243.389 161.984C243.248 161.726 243.33 161.855 243.295 161.804C243.26 161.752 243.048 161.34 242.918 161.108C242.789 160.876 242.741 160.811 242.659 160.669C242.056 159.629 241.378 158.642 240.633 157.718L240.257 157.254L239.939 156.893C239.809 156.738 239.668 156.596 239.526 156.442C239.157 156.016 238.763 155.616 238.349 155.243C238.148 155.05 237.937 154.869 237.725 154.702L237.077 154.186C236.74 153.916 236.39 153.667 236.029 153.439L235.746 153.245H235.687L218.999 142.702L218.905 142.637C215.704 140.683 212.089 139.683 208.424 139.737C202.959 139.737 196.788 141.697 190.252 145.821C167.806 159.999 149.599 194.517 149.599 222.899C149.599 237.077 154.121 247.001 161.434 251.667H161.505L178.205 262.198H178.275L178.475 262.314C178.789 262.516 179.111 262.701 179.441 262.868C179.841 263.087 180.254 263.28 180.619 263.461C180.984 263.641 181.361 263.783 181.738 263.912L182.338 264.105C182.549 264.194 182.765 264.263 182.986 264.312C183.203 264.384 183.423 264.444 183.645 264.492C183.804 264.543 183.965 264.582 184.128 264.608C184.411 264.673 184.717 264.737 185.012 264.776C185.078 264.788 185.145 264.788 185.212 264.776C185.565 264.844 185.918 264.896 186.272 264.93C192.325 265.626 199.367 263.757 206.905 259.001C229.363 244.823 247.57 210.293 247.57 181.924C247.511 181.331 247.511 180.661 247.511 179.99ZM220.271 159.922C221.153 163.449 221.585 167.092 221.555 170.749C221.555 195.78 204.82 227.461 185.047 240.015C182.156 241.896 179.035 243.315 175.778 244.23C174.902 240.698 174.47 237.051 174.495 233.39C174.495 208.36 191.23 176.678 211.003 164.124C213.883 162.25 216.992 160.835 220.236 159.922H220.271Z" fill="#4682B4"/>
<path opacity="0.1" d="M177.521 261.837L161.305 251.603C153.991 246.924 149.469 236.974 149.469 222.847C149.469 210.19 153.096 196.321 159.091 183.587L175.79 194.104C169.784 206.839 166.169 220.708 166.169 233.365C166.169 247.234 170.479 257.042 177.521 261.837Z" fill="black"/>
<path opacity="0.4" d="M247.511 179.991C247.511 179.462 247.511 178.947 247.441 178.431C247.37 177.915 247.441 177.413 247.335 176.91C247.229 176.407 247.335 176.24 247.24 175.905C247.158 175.028 247.04 174.165 246.911 173.327C246.852 172.953 246.793 172.566 246.722 172.193C246.651 171.819 246.593 171.484 246.522 171.136C246.322 170.182 246.11 169.254 245.862 168.365C245.733 167.939 245.615 167.514 245.486 167.076C245.461 167.013 245.441 166.949 245.427 166.882C245.285 166.47 245.156 166.07 245.015 165.684C244.873 165.297 244.685 164.781 244.496 164.395C244.308 164.008 244.237 163.763 244.084 163.454C243.999 163.222 243.896 162.997 243.778 162.783C243.66 162.513 243.531 162.242 243.389 161.984C243.248 161.727 243.33 161.855 243.295 161.804C243.26 161.752 243.048 161.34 242.918 161.108C242.789 160.876 242.742 160.811 242.659 160.67C242.056 159.629 241.378 158.642 240.634 157.718L240.257 157.254L239.939 156.893C239.809 156.738 239.668 156.597 239.527 156.442C239.157 156.017 238.763 155.616 238.349 155.243C238.149 155.05 237.937 154.869 237.725 154.702L237.077 154.186C236.74 153.916 236.39 153.667 236.029 153.439C228.645 148.528 218.364 149.108 206.928 156.313C184.47 170.491 166.263 205.009 166.263 233.391C166.263 247.762 170.974 257.803 178.452 262.366C178.765 262.568 179.087 262.753 179.418 262.92C179.818 263.139 180.23 263.332 180.595 263.513C180.96 263.693 181.337 263.835 181.714 263.964L182.315 264.157C182.525 264.245 182.742 264.314 182.962 264.363C183.179 264.436 183.4 264.496 183.622 264.544C183.78 264.595 183.942 264.634 184.105 264.66C184.387 264.724 184.694 264.789 184.988 264.827C185.054 264.84 185.122 264.84 185.188 264.827C185.542 264.896 185.895 264.948 186.248 264.982C192.301 265.678 199.344 263.809 206.881 259.053C229.34 244.875 247.547 210.345 247.547 181.976C247.511 181.331 247.511 180.661 247.511 179.991ZM202.759 251.281C197.719 254.464 192.867 256.14 188.721 256.14C180.937 256.14 177.357 250.327 175.767 244.23C174.89 240.698 174.458 237.051 174.483 233.391C174.483 208.36 191.218 176.678 210.991 164.124C213.882 162.247 217.003 160.832 220.26 159.922C221.801 159.504 223.382 159.283 224.97 159.265C237.842 159.265 239.22 175.17 239.22 182.014C239.267 206.993 222.533 238.765 202.759 251.281Z" fill="white"/>
<path opacity="0.1" d="M239.267 182.014C239.267 207.045 222.544 238.726 202.759 251.281C197.719 254.464 192.867 256.14 188.721 256.14C180.937 256.14 177.357 250.327 175.767 244.23C179.024 243.315 182.145 241.896 185.035 240.015C204.844 227.5 221.543 195.78 221.543 170.749C221.574 167.092 221.142 163.449 220.26 159.922C221.801 159.504 223.382 159.283 224.97 159.264C237.878 159.303 239.267 175.17 239.267 182.014Z" fill="black"/>
<path opacity="0.7" d="M232.201 177.645C232.201 202.675 215.478 234.357 195.693 246.911C190.653 250.095 185.801 251.77 181.655 251.77C180.83 251.773 180.007 251.699 179.194 251.551C177.602 249.399 176.443 246.905 175.79 244.23C174.913 240.698 174.481 237.051 174.507 233.39C174.507 208.36 191.241 176.678 211.015 164.124C213.905 162.247 217.026 160.832 220.283 159.922C221.825 159.504 223.406 159.283 224.994 159.265C225.822 159.262 226.649 159.336 227.467 159.484C231.542 164.73 232.201 173.146 232.201 177.645Z" fill="white"/>
<path d="M260.666 151.57V180.107C260.666 182.246 262.044 183.11 263.728 182.04L434.61 74.0673C435.499 73.4307 436.24 72.5742 436.772 71.5666C437.304 70.5591 437.612 69.4289 437.672 68.2671V39.6917C437.672 37.5521 436.294 36.6885 434.61 37.7584L263.728 145.731C262.834 146.372 262.091 147.235 261.559 148.25C261.027 149.264 260.721 150.402 260.666 151.57Z" fill="#E6E6E6"/>
<path d="M263.728 145.731L294.159 126.513V162.783L263.728 182.001C262.044 183.071 260.666 182.207 260.666 180.068V151.57C260.721 150.401 261.027 149.264 261.559 148.249C262.091 147.235 262.834 146.372 263.728 145.731Z" fill="#BA68C8"/>
<path d="M284.09 142.342C282.17 141.13 279.744 141.323 277.259 142.896C274.898 144.552 272.933 146.802 271.53 149.46C270.126 152.117 269.325 155.104 269.192 158.17C269.109 160.157 269.682 162.11 270.806 163.673L267.532 169.809C267.319 170.248 267.267 170.759 267.387 171.238C267.508 171.718 267.791 172.129 268.18 172.386C268.449 172.552 268.753 172.641 269.063 172.644C269.373 172.644 269.678 172.555 269.947 172.385C270.215 172.216 270.439 171.972 270.594 171.678L273.832 165.542C274.182 165.614 274.537 165.653 274.892 165.658C276.338 165.629 277.751 165.185 278.991 164.369C281.348 162.71 283.309 160.458 284.71 157.801C286.111 155.144 286.912 152.16 287.046 149.096C287.081 145.964 286.021 143.566 284.09 142.342ZM277.259 161.031C276.846 161.518 276.293 161.837 275.692 161.936C275.092 162.035 274.478 161.908 273.951 161.576C273.425 161.244 273.017 160.726 272.795 160.107C272.572 159.489 272.547 158.805 272.725 158.17C272.863 155.785 273.503 153.467 274.596 151.398C275.689 149.33 277.206 147.567 279.026 146.247C279.732 145.755 280.545 145.475 281.381 145.435C281.726 145.421 282.068 145.51 282.371 145.693C282.814 146.108 283.154 146.638 283.36 147.235C283.566 147.832 283.631 148.477 283.548 149.108C283.412 151.492 282.774 153.809 281.683 155.878C280.592 157.946 279.078 159.71 277.259 161.031Z" fill="white"/>
</svg>
