<svg width="516" height="435" viewBox="0 0 516 435" fill="none" xmlns="http://www.w3.org/2000/svg">
<path d="M270.962 195.95C270.649 195.95 270.336 195.835 270.102 195.604C269.867 195.373 269.75 195.084 269.731 194.757L268.324 2.19897C268.324 1.54441 268.851 0.986103 269.535 0.986103L399.217 0.0620117C399.529 0.0620117 399.842 0.177523 400.076 0.408546C400.311 0.639569 400.428 0.928348 400.448 1.25563L401.874 193.794C401.874 194.449 401.347 195.007 400.663 195.007L270.962 195.95C270.981 195.95 270.981 195.95 270.962 195.95ZM270.766 3.39259L272.173 193.524L399.412 192.6L398.005 2.4685L270.766 3.39259Z" fill="#C2AC96"/>
<path d="M269.73 29.4021C269.066 29.4021 268.519 28.863 268.519 28.2084C268.519 27.5539 269.066 26.9956 269.73 26.9956L398.533 26.0715C399.197 26.0715 399.744 26.6105 399.744 27.2651C399.744 27.9197 399.197 28.478 398.533 28.478L269.73 29.4021C269.73 29.4021 269.75 29.4021 269.73 29.4021Z" fill="#C2AC96"/>
<path d="M334.024 194.988C333.36 194.988 332.812 194.449 332.812 193.794L331.581 27.7656C331.581 27.111 332.109 26.5527 332.793 26.5527C333.457 26.5527 334.004 27.0918 334.004 27.7464L335.236 193.775C335.255 194.429 334.708 194.988 334.024 194.988Z" fill="#C2AC96"/>
<path d="M423.508 125.989C422.843 125.989 422.296 125.45 422.296 124.795L422.179 109.066C422.179 108.412 422.726 107.854 423.391 107.854C424.055 107.854 424.602 108.393 424.602 109.047L424.719 124.776C424.739 125.45 424.192 125.989 423.508 125.989C423.527 125.989 423.527 125.989 423.508 125.989Z" fill="#C2AC96"/>
<path d="M464.996 144.066C464.331 144.066 463.784 143.527 463.784 142.872L463.667 127.144C463.667 126.489 464.214 125.931 464.879 125.931C465.543 125.931 466.09 126.47 466.09 127.124L466.207 142.853C466.227 143.527 465.68 144.066 464.996 144.066C464.996 144.066 465.015 144.066 464.996 144.066Z" fill="#C2AC96"/>
<path d="M409.027 127.414C408.363 127.414 407.815 126.875 407.815 126.22C407.815 125.566 408.363 125.007 409.027 125.007L489.58 124.43C490.244 124.43 490.791 124.969 490.791 125.623C490.791 126.278 490.244 126.836 489.58 126.836L409.027 127.414Z" fill="#C2AC96"/>
<path d="M430.992 144.317C430.328 144.317 429.781 143.778 429.781 143.123C429.781 142.469 430.328 141.91 430.992 141.91L488.642 141.487C489.306 141.487 489.853 142.026 489.853 142.68C489.853 143.335 489.306 143.893 488.642 143.893L430.992 144.317Z" fill="#C2AC96"/>
<path d="M86.9725 236.052C86.3081 236.052 85.7609 235.513 85.7609 234.858L85.6437 219.129C85.6437 218.475 86.1908 217.917 86.8553 217.917C87.5197 217.917 88.0669 218.456 88.0669 219.11L88.1841 234.839C88.2037 235.513 87.6565 236.052 86.9725 236.052Z" fill="#C2AC96"/>
<path d="M45.7581 254.726C45.0937 254.726 44.5465 254.187 44.5465 253.533L44.4292 237.804C44.4292 237.149 44.9569 236.591 45.6408 236.591C46.3053 236.591 46.8525 237.13 46.8525 237.784L46.9697 253.513C46.9892 254.187 46.4421 254.726 45.7581 254.726Z" fill="#C2AC96"/>
<path d="M20.9397 237.842C20.2753 237.842 19.7281 237.303 19.7281 236.649C19.7281 235.994 20.2558 235.436 20.9397 235.436L101.492 234.858C102.157 234.858 102.704 235.397 102.704 236.052C102.704 236.706 102.176 237.265 101.492 237.265L20.9397 237.842Z" fill="#C2AC96"/>
<path d="M22.1319 254.899C21.4675 254.899 20.9203 254.36 20.9203 253.706C20.9203 253.051 21.448 252.493 22.1319 252.493L79.7812 252.069C80.4456 252.069 80.9928 252.608 80.9928 253.263C80.9928 253.918 80.4456 254.476 79.7812 254.476L22.1319 254.899Z" fill="#C2AC96"/>
<path d="M515.297 420.12C515.355 427.243 400.135 433.846 257.966 434.867C115.797 435.887 0.498712 430.939 0.440086 423.816C0.381459 416.693 115.602 410.089 257.771 409.069C399.94 408.049 515.238 412.996 515.297 420.12Z" fill="#C2AC96"/>
<path d="M318.664 373.761L319.015 421.525L339.144 421.39L350.341 380.692L354.484 365.618L318.664 373.761Z" fill="#24435C"/>
<g opacity="0.5">
<g opacity="0.5">
<g opacity="0.5">
<g opacity="0.5">
<g opacity="0.5">
<path opacity="0.5" d="M318.664 373.761L318.761 385.948C327.887 384.889 340.883 382.521 350.341 380.692L354.484 365.618L318.664 373.761Z" fill="#24435C"/>
</g>
</g>
</g>
</g>
</g>
<path d="M205.3 374.57L205.652 422.353L185.543 422.488L173.739 381.962L169.362 366.946L205.3 374.57Z" fill="#24435C"/>
<g opacity="0.5">
<g opacity="0.5">
<g opacity="0.5">
<g opacity="0.5">
<g opacity="0.5">
<path opacity="0.5" d="M205.3 374.57L205.397 386.756C196.271 385.813 183.237 383.637 173.739 381.962L169.362 366.946L205.3 374.57Z" fill="#24435C"/>
</g>
</g>
</g>
</g>
</g>
<path d="M127.523 106.217C129.438 124.641 145.638 191.619 153.787 224.636C154.608 227.928 155.331 230.873 155.956 233.415C157.5 239.594 158.419 243.291 158.419 243.291L327.653 238.574C327.653 238.574 328.103 236.437 328.904 232.645C334.747 204.691 358.843 86.8113 352.159 75.3757C351.69 74.5671 351.006 73.7778 350.107 73.0077C349.482 72.4494 348.739 71.9104 347.919 71.3713C347.098 70.8323 346.16 70.3125 345.144 69.7926C332.852 63.5165 307.271 58.3955 278.231 55.4692C243.994 52.0039 204.968 51.6188 177.316 55.989C176.534 56.1045 175.753 56.2393 174.971 56.3741C172.958 56.7206 171.023 57.0671 169.167 57.4329C132.916 64.4599 125.959 74.2591 125.842 88.0435V88.0627C125.822 93.4725 126.819 99.4983 127.523 106.217Z" fill="#4682B4"/>
<path d="M326.345 202.862C326.696 202.862 327.009 202.612 327.068 202.265C327.126 201.976 332.266 172.887 336.389 143.335C338.812 125.97 340.395 111.82 341.118 101.327C342.35 83.2882 340.767 79.7074 339.477 78.5715C331.992 72.0451 293.494 67.2899 271.216 65.0374C260.546 63.9593 249.681 63.6705 238.913 64.1903C213.176 65.4225 168.894 68.522 161.429 75.395C160.178 76.5501 158.693 80.1887 160.451 98.1892C161.468 108.682 163.48 122.755 166.392 140.062C171.356 169.498 177.355 198.434 177.414 198.723C177.492 199.108 177.883 199.358 178.274 199.281C178.665 199.204 178.919 198.819 178.841 198.434C178.782 198.145 172.802 169.248 167.838 139.831C159.162 88.3707 160.725 78.0517 162.425 76.4731C167.623 71.6793 195.51 67.7327 238.972 65.6535C249.661 65.1337 260.448 65.4225 271.04 66.5006C293.142 68.7338 331.308 73.4313 338.48 79.6881C340.239 81.209 342.095 91.4896 334.924 143.162C330.82 172.694 325.68 201.764 325.621 202.053C325.543 202.438 325.817 202.823 326.227 202.9C326.247 202.862 326.305 202.862 326.345 202.862Z" fill="#24435C"/>
<path d="M125.862 88.0437C125.979 93.107 126.859 98.6708 127.503 104.812C129.419 123.236 145.619 190.214 153.768 223.231L181.42 223.038C181.42 223.038 150.114 113.668 148.12 86.7346C146.811 69.1576 159.924 60.9948 169.187 57.4332C132.936 64.4601 125.979 74.2593 125.862 88.0437Z" fill="#24435C"/>
<path d="M328.846 234.762C328.846 234.762 357.299 231.836 359.703 241.962C361.579 249.875 359.664 320.799 358.745 351.621C358.491 359.707 364.862 366.484 373.069 366.888C374.887 366.984 376.782 367.042 378.756 367.1C388.195 367.369 398.885 367.158 406.213 365.463C422.159 361.786 422.511 339.454 427.905 302.375C433.298 265.296 437.969 199.281 402.832 186.844C401.62 186.421 400.409 186.036 399.197 185.67C365.37 175.851 333.34 195.97 333.34 195.97C325.699 217.243 328.846 234.762 328.846 234.762Z" fill="#24435C"/>
<path d="M378.737 367.1C388.175 367.369 398.865 367.157 406.193 365.463C422.14 361.786 422.491 339.454 427.885 302.375C433.279 265.295 437.949 199.281 402.812 186.844C401.601 186.42 400.389 186.035 399.178 185.67C393.217 187.113 387.765 191.06 384.873 199.646C377.017 222.98 390.364 303.684 378.737 367.1Z" fill="#4682B4"/>
<path d="M397.341 361.421C404.61 361.363 410.258 358.36 413.678 352.719C419.013 343.882 426.263 268.28 426.576 265.065C426.615 264.68 426.322 264.314 425.911 264.275C425.52 264.237 425.149 264.526 425.11 264.93C425.032 265.719 417.586 343.42 412.408 351.987C404.552 364.982 386.964 358.206 386.788 358.148C386.417 357.994 385.987 358.186 385.85 358.552C385.694 358.918 385.889 359.341 386.26 359.476C386.456 359.553 391.009 361.324 396.676 361.421C396.911 361.421 397.126 361.421 397.341 361.421Z" fill="#24435C"/>
<path d="M393.647 212.68C393.647 212.68 394.116 199.993 403.848 200.937C413.56 201.88 414.186 222.788 405.529 225.56C392.846 229.603 393.647 212.68 393.647 212.68Z" fill="#24435C"/>
<path d="M415.984 208.734C416.042 208.734 416.082 208.734 416.14 208.714C416.531 208.618 416.785 208.233 416.687 207.848C416.57 207.386 413.893 196.278 404.474 194.141C400.663 193.274 397.282 193.967 394.429 196.22C390.306 199.473 388.429 205.307 388.449 208.214C388.449 208.618 388.781 208.926 389.172 208.926C389.582 208.926 389.895 208.599 389.895 208.214C389.876 205.942 391.459 200.398 395.328 197.356C397.81 195.392 400.78 194.795 404.122 195.565C412.662 197.51 415.222 208.098 415.241 208.195C415.339 208.522 415.632 208.734 415.984 208.734Z" fill="#24435C"/>
<path d="M130.766 231.451C132.642 238.978 133.776 243.464 133.776 243.464L339.613 237.727C339.613 237.727 340.16 235.128 341.118 230.527C304.593 224.674 179.407 227.639 130.766 231.451Z" fill="#24435C"/>
<path d="M87.3739 269.743C87.4672 273.574 87.607 277.617 87.7934 281.814C89.4946 319.605 95.5303 369.41 115.408 373.646C147.777 380.576 348.283 382.983 358.607 367.1C361.683 362.364 363.57 354.394 364.759 344.652C364.992 342.746 365.202 340.763 365.365 338.742C366.926 321.126 366.763 299.218 367.299 280.139C367.439 275.018 367.649 270.09 367.952 265.508C370.142 231.855 337.004 231.586 337.004 231.586C290.14 230.97 221.347 233.184 167.819 235.378C139.924 236.514 116.177 237.65 101.869 238.362C92.6639 238.824 87.3739 239.094 87.3739 239.094C87.3739 239.094 86.9312 251.954 87.3739 269.743Z" fill="#4682B4"/>
<path d="M264.923 345.865C268.304 345.846 271.802 345.788 275.417 345.692C329.666 344.209 360.796 331.965 361.109 331.83C361.559 331.638 361.793 331.137 361.598 330.675C361.402 330.232 360.894 330.001 360.425 330.194C360.113 330.309 329.256 342.457 275.358 343.92C221.403 345.384 191.699 338.029 191.405 337.972C190.917 337.856 190.448 338.126 190.311 338.607C190.194 339.069 190.467 339.55 190.956 339.685C191.23 339.743 217.338 346.211 264.923 345.865Z" fill="#24435C"/>
<path d="M132.681 269.743C132.76 273.574 132.877 277.617 133.033 281.814C134.46 319.606 139.521 369.41 156.191 373.646C183.335 380.576 351.475 382.983 360.132 367.1C362.712 362.364 364.295 354.394 365.291 344.652C365.487 342.746 365.663 340.763 365.799 338.742C357.865 344.036 333.985 351.082 317.55 352.854C249.035 360.266 195.607 351.217 195.607 351.217C204.342 314.581 201.509 256.209 200.121 235.34C176.729 236.476 156.816 237.612 144.817 238.324L132.681 269.743Z" fill="#24435C"/>
<path d="M334.219 239.96C332.226 241.75 329.998 243.445 327.516 245.043C327.438 245.1 327.36 245.139 327.282 245.197C325.542 246.313 323.706 247.353 321.771 248.354C321.067 248.72 320.364 249.066 319.66 249.393C314.013 252.089 307.622 254.322 300.763 255.939C300.138 256.093 299.512 256.228 298.868 256.363C297.05 256.767 295.194 257.113 293.318 257.421C292.692 257.537 292.047 257.633 291.422 257.73C284.172 258.808 276.57 259.212 268.909 258.808C268.01 258.75 267.112 258.711 266.213 258.634C263.809 258.461 261.405 258.192 259.021 257.826C258.962 257.826 258.904 257.807 258.845 257.807C258.122 257.691 257.399 257.595 256.676 257.46C252.787 256.805 248.937 255.901 245.146 254.765C241.844 253.783 238.58 252.609 235.395 251.222C234.848 250.991 234.32 250.741 233.773 250.51C233.108 250.202 232.424 249.894 231.779 249.567C231.721 249.547 231.662 249.509 231.584 249.47C227.754 238.786 223.806 200.782 222.751 189.405C222.536 187.133 222.38 184.88 222.243 182.609C222.223 182.224 222.204 181.819 222.184 181.434C222.145 180.837 222.126 180.26 222.106 179.663C221.93 175.524 221.891 171.365 221.93 167.149C221.93 166.475 221.95 165.782 221.969 165.109C221.969 164.781 221.969 164.435 221.989 164.108C221.989 164.069 221.989 164.011 221.989 163.973C222.008 163.491 222.008 163.01 222.028 162.51C222.145 158.159 222.341 153.75 222.595 149.264C222.614 148.841 222.634 148.436 222.673 148.013C222.692 147.801 222.692 147.589 222.712 147.378C222.868 144.759 223.044 142.103 223.239 139.427C223.259 139.022 223.298 138.599 223.337 138.175C223.357 138.021 223.357 137.867 223.376 137.713C223.845 131.283 224.373 124.66 224.881 117.768C225.155 113.995 225.643 110.491 226.288 107.276C226.366 106.872 226.444 106.487 226.542 106.102C227.871 100.153 229.825 95.2434 232.444 91.4701C232.659 91.1428 232.893 90.8155 233.128 90.5075C233.988 89.3716 234.906 88.3705 235.883 87.4849C236.841 86.6186 237.857 85.8485 238.951 85.1939C240.984 83.9811 243.212 83.1917 245.654 82.826C247.96 82.4987 250.051 82.0366 251.966 81.5168C252.318 81.4206 252.67 81.3243 253.002 81.228C254.077 80.92 255.093 80.5735 256.051 80.2269C256.539 80.0344 257.028 79.8612 257.477 79.6686C257.849 79.5146 258.22 79.3606 258.572 79.2066C258.728 79.1296 258.904 79.0718 259.06 78.9948C259.197 78.9371 259.353 78.8601 259.49 78.8023C259.744 78.6868 259.979 78.5713 260.213 78.4558C264.141 76.5306 266.369 74.7979 266.369 74.7979L293.376 75.0674C293.591 75.3755 293.806 75.6642 294.002 75.953C294.021 75.9723 294.041 75.9915 294.041 76.0108C295.096 77.3777 296.268 78.5328 297.519 79.5146C297.832 79.7649 298.164 79.9959 298.496 80.2269C299.102 80.6505 299.727 81.0355 300.372 81.4013C300.822 81.6516 301.271 81.8826 301.701 82.0944C302.053 82.2677 302.405 82.4217 302.756 82.5757C302.854 82.6142 302.952 82.6719 303.05 82.7104C303.323 82.826 303.577 82.9415 303.851 83.0377C303.988 83.0955 304.144 83.1532 304.281 83.211C305.023 83.4998 305.766 83.75 306.508 84.0003C306.528 84.0003 306.528 84.0003 306.548 84.0003C312.449 85.9255 318.468 86.8881 322.22 90.623C322.611 91.008 322.963 91.4316 323.315 91.8744C323.862 92.6059 324.35 93.4338 324.741 94.3578C325.132 95.2819 325.445 96.3215 325.66 97.4767C325.797 98.1312 325.855 98.8243 325.875 99.5944C326.011 105.447 323.412 115.092 322.201 130.975C322.162 131.437 322.123 131.88 322.103 132.361C321.927 134.922 321.79 137.617 321.693 140.505C321.673 140.928 321.673 141.371 321.654 141.795C321.615 143.335 321.595 144.933 321.595 146.569C321.595 147.416 321.595 148.263 321.595 149.13C321.615 150.824 321.654 152.556 321.693 154.347C321.712 154.886 321.732 155.425 321.751 155.964C321.79 157.061 321.829 158.178 321.908 159.314C321.947 159.911 321.986 160.527 322.005 161.123C322.025 161.547 322.064 161.971 322.084 162.394C322.084 162.529 322.103 162.664 322.103 162.779C322.24 164.858 322.396 167.015 322.611 169.209C322.611 169.325 322.631 169.44 322.65 169.556C322.67 169.845 322.709 170.153 322.728 170.441C322.885 172.193 323.08 174.003 323.295 175.832C323.549 178.027 323.803 180.279 324.116 182.589C325.347 191.792 328.142 210.043 331.132 225.386C331.601 227.812 332.07 230.142 332.539 232.356C332.597 232.587 332.636 232.818 332.695 233.049C333.164 235.551 333.692 237.881 334.219 239.96Z" fill="white"/>
<path d="M340.199 138.31C333.652 138.31 327.36 136.096 322.044 132.38C322.025 132.361 321.986 132.342 321.966 132.322C320.97 131.629 320.032 130.878 319.133 130.108C310.554 122.716 305.981 111.954 304.085 100.961C303.167 95.609 302.268 88.8901 303.01 82.7102C303.284 82.8257 303.538 82.9412 303.812 83.0375C303.948 83.0952 304.105 83.153 304.242 83.2108C304.124 84.1926 304.085 85.1745 304.066 86.1563C303.831 98.054 306.196 110.933 312.762 121.06C314.54 123.813 316.729 126.374 319.191 128.588C320.129 129.435 321.126 130.243 322.142 130.975C327.36 134.767 333.574 137.116 340.199 137.116C340.961 137.135 340.961 138.31 340.199 138.31Z" fill="#D7C4AC"/>
<path d="M298.438 80.2464C295.858 84.5973 292.907 88.7172 289.507 92.4906C279.345 103.811 265.001 111.858 249.504 112.551C249.172 112.57 248.82 112.59 248.488 112.59C240.73 112.782 232.972 110.934 226.21 107.295C222.497 105.312 219.116 102.771 216.185 99.7486C216.459 99.479 216.752 99.2095 217.025 98.94C219.761 101.789 222.966 104.215 226.445 106.121C228.067 107.007 229.747 107.796 231.486 108.47C237.388 110.761 243.563 111.627 249.719 111.3C258.415 110.857 267.034 108.027 274.538 103.464C284.211 97.6116 291.793 89.1022 297.461 79.4955C297.793 79.7843 298.106 80.0154 298.438 80.2464Z" fill="#D7C4AC"/>
<path d="M282.628 100.73C276.902 100.673 271.665 97.111 267.346 90.3151C263.653 84.501 261.933 78.4367 261.874 78.1864C261.718 77.6473 262.05 77.1083 262.578 76.9543C263.125 76.8002 263.672 77.1275 263.829 77.6473C263.887 77.8783 270.59 101.173 285.071 98.5164C288.862 97.8233 291.657 96.0907 293.415 93.3569C297.246 87.3888 294.959 78.5714 294.94 78.4944C294.803 77.9554 295.116 77.4163 295.663 77.2815C296.21 77.1468 296.757 77.4548 296.894 77.9939C296.992 78.3982 299.415 87.7353 295.116 94.435C293.044 97.6501 289.8 99.6908 285.442 100.48C284.485 100.673 283.547 100.75 282.628 100.73Z" fill="#D5963D"/>
<path d="M332.774 145.741C332.187 145.914 331.621 146.088 331.034 146.242C330.292 145.914 329.569 145.568 328.826 145.221C326.422 144.105 324.019 142.969 321.615 141.814C320.579 141.313 319.563 140.832 318.527 140.331C300.646 131.764 282.296 123.236 262.051 123.467C255.797 123.544 249.7 124.545 243.935 126.547C239.265 128.164 234.809 130.436 230.666 133.362C228.028 135.23 225.546 137.29 223.181 139.484C220.758 141.698 218.472 144.066 216.263 146.492C215.834 146.376 215.423 146.242 215.013 146.107C217.651 143.2 220.387 140.389 223.318 137.771C226.328 135.076 229.533 132.573 233.011 130.397C236.802 128.029 240.769 126.239 244.834 124.968C262.344 119.482 281.827 123.39 298.809 130.166C305.512 132.842 312.079 135.942 318.625 139.061C319.641 139.542 320.638 140.023 321.654 140.505C325.328 142.295 329.041 144.047 332.774 145.741Z" fill="#D7C4AC"/>
<path d="M322.044 162.413C319.191 161.836 316.358 161.239 313.504 160.642C303.343 158.544 293.181 156.368 282.999 154.385C273.111 152.46 263.008 150.939 252.885 151.594C241.765 152.306 229.981 156.388 221.95 164.127C221.95 164.088 221.95 164.031 221.95 163.992C221.969 163.511 221.969 163.029 221.989 162.529C224.099 160.604 226.425 158.91 228.907 157.427C245.674 147.532 265.744 149.803 284.054 153.403C296.718 155.887 309.342 158.505 321.966 161.143C321.986 161.566 322.005 161.99 322.044 162.413Z" fill="#D7C4AC"/>
<path d="M259.686 190.983C258.064 199.089 254.429 207.136 250.774 214.529C247.061 222.037 242.41 229.102 236.255 234.897C235.707 235.417 234.848 234.589 235.414 234.069C241.746 228.12 246.436 220.805 250.188 213.065C253.432 206.366 256.578 199.204 258.279 191.946C259.979 184.746 259.392 176.352 252.357 172.097C246.495 168.574 238.834 169.017 232.913 172.117C228.614 174.369 225.135 177.68 222.184 181.435C222.145 180.838 222.126 180.26 222.106 179.663C225.643 175.409 229.903 171.77 235.18 169.806C241.296 167.515 248.918 167.977 254.233 171.943C260.272 176.468 261.073 184.13 259.686 190.983Z" fill="#D7C4AC"/>
<path d="M302.893 237.842C293.923 232.202 285.892 225.155 279.247 216.954C269.672 205.153 256.5 183.552 274.108 172.424C281.495 167.746 290.894 166.745 299.454 166.63C307.251 166.514 315.009 167.457 322.553 169.248C322.553 169.363 322.572 169.479 322.592 169.594C322.611 169.883 322.65 170.191 322.67 170.48C314.364 168.478 305.805 167.515 297.246 167.862C289.096 168.189 280.088 169.383 273.365 174.35C265.646 180.067 265.372 189.366 268.655 197.664C271.919 205.884 277.508 213.489 283.429 220.034C289.292 226.522 296.053 232.163 303.499 236.841C304.144 237.226 303.558 238.247 302.893 237.842Z" fill="#D7C4AC"/>
<path d="M214.837 127.991C210.694 131.36 205.085 131.707 200.102 130.109C198.382 129.55 196.76 128.8 195.236 127.914C195.451 127.548 195.666 127.182 195.861 126.817C201.313 130.089 207.43 131.63 213.195 127.741C217.983 124.526 218.686 118.827 216.068 113.956C214.524 111.107 212.12 108.932 209.482 107.045C209.736 106.737 209.99 106.448 210.225 106.159C213.332 108.412 216.146 111.049 217.709 114.611C219.8 119.347 218.96 124.641 214.837 127.991Z" fill="#D7C4AC"/>
<path d="M355.501 135.114C355.129 135.365 354.719 135.615 354.269 135.904C348.309 133.632 342.935 129.82 338.948 124.795C333.027 117.325 330.545 107.603 331.776 98.2853C332.128 98.6126 332.5 98.9592 332.851 99.3057C331.913 108.046 334.336 117.075 339.867 124.064C343.912 129.146 349.403 132.939 355.501 135.114Z" fill="#D7C4AC"/>
<path d="M251.595 94.9934C250.52 95.5132 249.407 95.879 248.293 96.11C244.013 97.0148 239.46 96.0523 235.649 93.819C234.476 93.126 233.382 92.3366 232.385 91.4703C231.525 90.7195 230.705 89.8916 229.962 89.0253C230.314 88.8328 230.666 88.621 230.998 88.4477C231.643 89.1793 232.327 89.8724 233.069 90.527C233.89 91.2393 234.75 91.8938 235.688 92.4714C239.284 94.7239 243.681 95.8405 247.824 95.0319C248.898 94.8201 249.973 94.4736 251.009 93.9923C256.188 91.5281 258.689 86.33 257.673 80.8047C257.614 80.439 257.516 80.0732 257.438 79.7266C257.81 79.5726 258.181 79.4186 258.533 79.2646C258.767 80.1502 258.943 81.055 259.041 81.9984C259.549 87.5237 256.676 92.5677 251.595 94.9934Z" fill="#D7C4AC"/>
<path d="M243.151 297.061C243.151 297.061 241.138 297.908 237.874 299.352C236.936 299.756 235.92 300.219 234.806 300.719C233.321 301.374 231.719 302.105 229.979 302.914C229.002 303.357 227.967 303.838 226.931 304.319C213.916 310.384 196.816 319.047 190.524 325.208C190.074 325.65 189.664 326.074 189.254 326.497C179.776 336.316 178.935 343.17 176.571 342.342C174.109 341.475 172.389 336.046 175.086 331.638C176.962 328.596 177.841 324.553 180.206 319.855C180.851 318.585 181.593 317.276 182.512 315.928C186.537 309.96 193.592 303.145 197.305 298.293C197.54 297.985 197.774 297.677 197.969 297.369C200.959 293.134 200.842 285.76 207.232 282.122C210.359 280.351 214.463 279.869 218.567 280.043C219.29 280.062 220.033 280.12 220.756 280.177C221.83 280.274 222.905 280.408 223.941 280.562C225.368 280.774 226.735 281.044 227.986 281.313C229.198 281.583 230.292 281.852 231.25 282.102C233.556 282.719 235.002 283.219 235.002 283.219L243.151 297.061Z" fill="white"/>
<path d="M218.569 280.042C215.697 286.164 208.583 298.216 197.288 298.293C197.522 297.985 197.757 297.677 197.952 297.369C200.942 293.134 200.825 285.76 207.215 282.122C210.342 280.35 214.465 279.869 218.569 280.042Z" fill="#425045"/>
<path d="M189.237 326.497C179.759 336.316 178.919 343.17 176.554 342.342C174.092 341.475 172.372 336.046 175.069 331.638C176.945 328.596 177.824 324.553 180.189 319.855C183.394 321.184 186.931 323.282 189.237 326.497Z" fill="#425045"/>
<path d="M237.858 299.352C236.92 299.756 235.903 300.219 234.79 300.719C231.936 297.504 229.924 293.288 228.849 288.205C228.302 285.626 228.087 283.238 227.989 281.332C229.201 281.602 230.295 281.871 231.252 282.122C231.35 283.72 231.585 285.587 231.995 287.589C232.855 291.574 234.555 296.022 237.858 299.352Z" fill="#425045"/>
<path d="M223.944 280.562C222.908 280.408 221.853 280.273 220.759 280.177C220.524 282.199 220.29 285.548 220.7 289.36C221.364 295.521 223.494 300.603 226.914 304.319C227.97 303.838 228.986 303.356 229.963 302.914C222.986 296.175 223.455 284.894 223.944 280.562Z" fill="#425045"/>
<path d="M234.77 277.039C233.91 298.235 247.316 299.468 247.316 299.468C247.316 299.468 250.071 299.391 256.423 297.677C257.009 297.523 257.634 297.35 258.299 297.157C262.422 295.964 267.796 294.173 274.616 291.459C275.417 291.131 276.258 290.804 277.098 290.458C281.554 288.629 286.596 286.415 292.224 283.758C300.744 279.754 310.652 274.71 322.084 268.395C355.032 250.202 383.974 224.924 394.663 204.055C401.894 189.982 400.819 177.892 387.042 171.365C384.619 170.21 382.078 169.556 379.479 169.267C362.087 167.399 344.655 183.841 344.655 183.841C309.577 207.386 298.731 227.311 284.426 243.367C283.84 244.041 283.234 244.696 282.629 245.35C282.238 245.774 281.847 246.178 281.417 246.602C279.111 248.951 276.453 251.28 273.62 253.513C264.181 261.002 252.69 267.683 244.658 271.995C244.091 272.303 243.544 272.592 243.017 272.881C238.053 275.499 234.77 277.039 234.77 277.039Z" fill="#131E07"/>
<path d="M243.036 272.881C243.368 274.402 243.837 275.923 244.385 277.424C244.6 277.982 244.814 278.56 245.049 279.118C248.449 287.454 254.234 294.963 256.442 297.677C257.028 297.523 257.654 297.35 258.318 297.157C256.716 295.232 250.208 287.108 246.632 278.233C246.397 277.674 246.182 277.097 245.987 276.539C245.44 275.037 245.01 273.516 244.697 272.014C244.111 272.303 243.564 272.592 243.036 272.881Z" fill="#425045"/>
<path d="M394.683 204.055C378.952 190.656 378.346 176.698 379.479 169.286C382.078 169.556 384.619 170.23 387.042 171.366C400.819 177.892 401.914 189.963 394.683 204.055Z" fill="#425045"/>
<path d="M244.365 277.424C244.58 277.982 244.795 278.56 245.029 279.118C245.537 278.83 246.065 278.541 246.612 278.233C259.432 270.898 278.466 257.441 299.904 240.441C319.993 224.501 342.896 204.613 345.71 198.626C347.235 195.392 347.313 192.928 345.964 191.349C343.952 188.962 339.496 189.462 337.483 189.847C336.975 189.943 336.643 190.444 336.76 190.945C336.858 191.33 337.21 191.599 337.581 191.618C337.659 191.618 337.718 191.618 337.796 191.599C339.77 191.233 343.268 190.964 344.557 192.485C345.632 193.755 344.87 196.104 344.049 197.875C341.782 202.707 322.748 220.034 298.751 239.055C281.808 252.493 260.604 268.125 245.948 276.558C245.42 276.847 244.893 277.135 244.365 277.424Z" fill="#425045"/>
<path d="M238.893 273.535C242.215 284.008 246.788 293.268 254.292 299.679C254.292 299.679 249.7 304.338 244.404 302.49C240.359 301.085 230.255 285.568 231.35 276.153C234.125 273.959 236.665 272.919 238.893 273.535Z" fill="#425045"/>
<path d="M328.904 295.02C328.904 295.02 330.976 295.733 334.317 296.965C335.275 297.311 336.33 297.696 337.464 298.12C338.988 298.678 340.649 299.313 342.427 300.006C343.443 300.391 344.479 300.796 345.574 301.219C358.96 306.456 376.587 314.003 383.27 319.759C383.739 320.163 384.189 320.567 384.619 320.953C394.722 330.136 396.012 336.951 398.298 335.95C400.702 334.929 402.07 329.404 399.08 325.188C397.008 322.262 395.875 318.277 393.198 313.752C392.475 312.52 391.634 311.269 390.638 309.979C386.241 304.28 378.737 297.927 374.73 293.307C374.476 293.018 374.222 292.71 374.007 292.44C370.744 288.398 370.372 281.043 363.767 277.828C360.543 276.25 356.4 276.038 352.316 276.461C351.593 276.538 350.869 276.635 350.146 276.75C349.072 276.923 348.016 277.116 347 277.328C345.593 277.636 344.245 277.982 343.014 278.348C341.821 278.695 340.747 279.022 339.809 279.349C337.542 280.1 336.135 280.716 336.135 280.716L328.904 295.02Z" fill="white"/>
<path d="M352.316 276.461C355.599 282.391 363.455 293.961 374.75 293.326C374.496 293.037 374.242 292.729 374.027 292.46C370.763 288.417 370.392 281.062 363.787 277.847C360.543 276.249 356.4 276.038 352.316 276.461Z" fill="#425045"/>
<path d="M384.619 320.953C394.722 330.136 396.012 336.951 398.298 335.95C400.702 334.929 402.07 329.404 399.08 325.188C397.008 322.262 395.875 318.277 393.198 313.752C390.11 315.292 386.71 317.603 384.619 320.953Z" fill="#425045"/>
<path d="M334.337 296.964C335.294 297.311 336.35 297.696 337.483 298.12C340.121 294.731 341.86 290.4 342.603 285.24C342.974 282.641 343.053 280.235 342.994 278.329C341.802 278.675 340.727 279.002 339.789 279.33C339.789 280.928 339.691 282.814 339.398 284.817C338.831 288.879 337.424 293.422 334.337 296.964Z" fill="#425045"/>
<path d="M342.447 300.006C343.463 300.391 344.499 300.795 345.593 301.219C348.759 297.311 350.557 292.113 350.811 285.914C350.967 282.083 350.518 278.752 350.166 276.75C349.091 276.923 348.036 277.116 347.02 277.327C347.762 281.621 348.974 292.844 342.447 300.006Z" fill="#425045"/>
<path d="M171.727 214.066C184.566 233.722 215.384 254.379 248.273 269.916C279.638 284.72 299.317 291.69 310.671 294.982C311.043 295.097 311.414 295.193 311.785 295.29C320.286 297.677 323.706 297.869 323.706 297.869C323.706 297.869 336.994 295.79 334.767 274.69C334.767 274.69 330.819 271.687 324.917 267.201C324.409 266.816 323.882 266.412 323.354 266.008C312.117 257.479 295.077 244.561 283.918 236.109C252.651 212.43 249.778 213.816 220.953 190.559C220.953 190.559 202.799 174.888 186.247 175.986C182.651 176.217 179.133 177.102 175.909 178.893C161.917 186.651 162.307 199.627 171.727 214.066Z" fill="#131E07"/>
<path d="M310.691 294.963C310.73 295.02 310.769 295.078 310.828 295.117C310.965 295.232 311.121 295.309 311.277 295.348C311.453 295.386 311.629 295.367 311.805 295.29C311.903 295.251 312.02 295.174 312.098 295.078C318.332 288.552 322.006 278.098 323.784 271.783C323.96 271.148 324.117 270.551 324.273 270.012C324.586 268.799 324.801 267.817 324.937 267.201C324.429 266.816 323.902 266.412 323.374 266.008C323.354 266.046 323.354 266.066 323.354 266.104C323.354 266.143 323.12 267.317 322.631 269.165C322.495 269.704 322.338 270.301 322.162 270.936C320.443 277.058 316.827 287.531 310.828 293.846C310.496 294.173 310.457 294.616 310.691 294.963Z" fill="#425045"/>
<path d="M186.246 175.986C186.246 183.052 185.23 206.597 171.746 214.067C162.326 199.628 161.936 186.652 175.928 178.893C179.133 177.103 182.65 176.217 186.246 175.986Z" fill="#425045"/>
<path d="M220.836 199.165C224.021 204.979 248.175 223.365 269.281 237.996C290.25 252.551 308.951 264.16 322.142 270.936C322.709 271.225 323.256 271.495 323.784 271.764C323.96 271.129 324.116 270.532 324.272 269.993C323.725 269.724 323.178 269.435 322.631 269.146C307.623 261.368 287.045 248.104 270.336 236.514C245.166 219.053 225.018 202.977 222.438 198.299C221.5 196.605 220.602 194.295 221.579 192.966C222.751 191.368 226.269 191.407 228.262 191.638C228.301 191.638 228.34 191.638 228.379 191.638C228.809 191.638 229.181 191.33 229.259 190.906C229.356 190.406 229.005 189.924 228.477 189.847C226.445 189.597 221.969 189.385 220.113 191.888C218.862 193.602 219.097 196.047 220.836 199.165Z" fill="#425045"/>
<path d="M330.428 271.437C327.79 282.103 323.843 291.632 316.768 298.505C316.768 298.505 321.654 302.856 326.813 300.7C330.761 299.044 339.828 282.93 338.128 273.593C335.216 271.572 332.617 270.686 330.428 271.437Z" fill="#425045"/>
<path d="M370.255 180.934C365.702 191.696 355.012 191.33 343.463 175.004C336.779 165.551 330.917 155.694 326.324 147.378C324.546 144.163 322.983 141.179 321.615 138.541L321.791 122.947L341.352 110.549C341.352 110.549 348.466 121.445 355.735 134.922C364.744 151.594 373.968 172.174 370.255 180.934Z" fill="#E8A36F"/>
<path d="M299.317 203.978C309.186 197.336 321.302 189.52 326.11 185.284C337.933 174.85 358.686 158.139 369.532 166.36C369.532 166.36 378.521 183.571 363.826 194.949C349.834 205.788 318.449 217.859 303.812 222.46C302.112 216.357 300.177 210.254 299.317 203.978Z" fill="#E8A36F"/>
<path d="M341.939 173.464C342.095 173.464 342.251 173.406 342.388 173.291C347.88 168.593 355.677 165.686 355.755 165.648C356.126 165.513 356.322 165.089 356.185 164.724C356.048 164.358 355.618 164.165 355.247 164.3C354.915 164.415 347.117 167.342 341.431 172.193C341.118 172.463 341.098 172.906 341.352 173.214C341.489 173.406 341.724 173.483 341.939 173.464Z" fill="#B05935"/>
<path d="M343.131 172.501C343.483 172.482 343.776 172.232 343.815 171.885C344.284 168.651 348.388 165.513 348.427 165.474C348.739 165.224 348.798 164.781 348.563 164.454C348.309 164.146 347.86 164.069 347.528 164.319C347.332 164.454 342.916 167.862 342.349 171.674C342.29 172.078 342.564 172.444 342.974 172.482C343.033 172.501 343.092 172.501 343.131 172.501Z" fill="#B05935"/>
<path d="M357.67 133.651C357.67 133.651 357.006 134.132 355.774 134.941C355.696 134.999 355.599 135.056 355.52 135.114C355.149 135.364 354.739 135.615 354.289 135.903C352.882 136.77 351.084 137.829 348.974 138.964C348.642 139.138 348.29 139.33 347.938 139.504C343.834 141.64 338.636 143.97 332.793 145.741C332.207 145.914 331.64 146.088 331.054 146.242C330.936 146.28 330.839 146.299 330.721 146.338C330.331 146.453 329.959 146.55 329.549 146.646C328.513 146.916 327.438 147.166 326.364 147.378C325.25 147.609 324.116 147.82 322.983 147.994C322.983 147.994 322.455 147.493 321.556 146.588L321.654 138.541L321.83 122.947L322.201 90.6229C325.074 92.5096 328.318 95.0124 331.796 98.2659C332.148 98.5932 332.519 98.9397 332.871 99.2863C334.552 100.923 336.31 102.732 338.089 104.735C338.362 105.043 338.616 105.331 338.89 105.639C341.802 108.97 344.811 112.84 347.86 117.306C348.133 117.691 348.388 118.095 348.661 118.5C351.631 122.947 354.661 127.972 357.67 133.651Z" fill="white"/>
<path d="M330.682 146.338C330.291 146.454 329.92 146.55 329.51 146.646C326.481 132.188 329.568 116.998 338.069 104.754C338.343 105.062 338.597 105.351 338.87 105.659C330.682 117.576 327.77 132.304 330.682 146.338Z" fill="#D7C4AC"/>
<path d="M348.954 138.965C348.622 139.138 348.271 139.331 347.919 139.504C344.909 132.554 344.753 124.526 347.86 117.306C348.134 117.691 348.388 118.096 348.661 118.5C346.023 125.2 346.219 132.554 348.954 138.965Z" fill="#D7C4AC"/>
<path d="M207.469 111.53C207.469 111.53 172.684 166.552 179.622 182.3C184.332 192.985 195.021 192.485 206.316 175.986C222.224 152.787 233.226 127.317 233.226 127.317L207.469 111.53Z" fill="#E8A36F"/>
<path d="M250.892 204.325C240.925 197.818 228.692 190.194 223.826 186.036C211.847 175.774 190.859 159.352 180.13 167.746C180.13 167.746 171.395 185.073 186.247 196.258C200.395 206.905 231.956 218.514 246.671 222.903C248.293 216.742 250.13 210.62 250.892 204.325Z" fill="#E8A36F"/>
<path d="M207.84 174.427C207.684 174.427 207.528 174.369 207.391 174.253C201.821 169.633 193.985 166.841 193.907 166.803C193.516 166.668 193.321 166.245 193.457 165.879C193.594 165.494 194.024 165.301 194.395 165.436C194.728 165.552 202.564 168.362 208.329 173.137C208.642 173.387 208.681 173.849 208.427 174.157C208.27 174.35 208.055 174.446 207.84 174.427Z" fill="#B05935"/>
<path d="M206.629 173.483C206.277 173.464 205.984 173.214 205.925 172.867C205.417 169.652 201.255 166.552 201.216 166.514C200.883 166.283 200.825 165.821 201.059 165.494C201.294 165.166 201.763 165.109 202.095 165.34C202.29 165.474 206.766 168.824 207.371 172.617C207.43 173.002 207.156 173.387 206.766 173.445C206.707 173.483 206.668 173.483 206.629 173.483Z" fill="#B05935"/>
<path d="M249.72 111.319C249.661 111.723 249.583 112.147 249.505 112.551C249.251 113.86 248.918 115.208 248.488 116.575C247.648 119.328 246.358 122.177 244.834 124.968C244.541 125.488 244.248 126.008 243.935 126.528C237.095 138.214 226.445 148.668 226.445 148.668C225.155 148.494 223.885 148.263 222.634 148.032C220.446 147.589 218.315 147.07 216.264 146.454C215.834 146.338 215.423 146.203 215.013 146.069C201.353 141.833 191.523 134.806 191.523 134.806C192.754 132.38 194.005 130.07 195.256 127.876C195.471 127.51 195.686 127.144 195.881 126.778C200.493 118.75 205.105 112.262 209.502 107.026C209.756 106.718 210.01 106.429 210.245 106.14C212.277 103.753 214.27 101.635 216.185 99.7485C216.459 99.4789 216.752 99.2094 217.026 98.9399C221.95 94.2424 226.367 91.1044 229.923 89.0444C230.275 88.8519 230.627 88.6401 230.959 88.4669C235.688 85.8679 238.659 85.2518 238.854 85.2325C242.665 87.562 245.792 90.8733 247.785 95.051C247.961 95.3975 248.117 95.7633 248.274 96.1291C250.052 100.384 250.677 105.486 249.72 111.319Z" fill="white"/>
<path d="M249.719 111.318C249.661 111.723 249.583 112.146 249.504 112.551C249.172 112.57 248.82 112.589 248.488 112.589C240.73 112.782 232.972 110.933 226.21 107.295C222.497 105.312 219.116 102.771 216.185 99.748C216.459 99.4785 216.752 99.209 217.025 98.9395C219.761 101.789 222.966 104.214 226.445 106.12C228.067 107.006 229.747 107.795 231.487 108.469C237.388 110.779 243.583 111.646 249.719 111.318Z" fill="#D7C4AC"/>
<path d="M244.814 124.968C244.521 125.488 244.228 126.008 243.916 126.528C239.245 128.145 234.789 130.416 230.646 133.343C228.008 135.21 225.526 137.27 223.162 139.465C220.739 141.679 218.452 144.047 216.244 146.473C215.814 146.357 215.404 146.222 214.993 146.087C217.631 143.18 220.367 140.37 223.299 137.751C226.308 135.056 229.513 132.553 232.991 130.378C236.802 128.029 240.75 126.239 244.814 124.968Z" fill="#D7C4AC"/>
<path d="M214.837 127.991C210.694 131.36 205.085 131.706 200.102 130.108C198.382 129.55 196.76 128.799 195.236 127.914C195.451 127.548 195.666 127.182 195.861 126.816C201.313 130.089 207.43 131.629 213.195 127.74C217.983 124.525 218.686 118.827 216.068 113.956C214.524 111.107 212.12 108.931 209.482 107.045C209.736 106.737 209.99 106.448 210.225 106.159C213.332 108.412 216.146 111.049 217.709 114.611C219.8 119.347 218.96 124.641 214.837 127.991Z" fill="#D7C4AC"/>
<path d="M248.293 96.1289C244.013 97.0338 239.46 96.0712 235.649 93.838C234.477 93.1449 233.382 92.3556 232.386 91.4892C231.526 90.7384 230.705 89.9106 229.962 89.0442C230.314 88.8517 230.666 88.6399 230.998 88.4667C231.643 89.1982 232.327 89.8913 233.07 90.5459C233.89 91.2582 234.75 91.9128 235.688 92.4903C239.284 94.7428 243.681 95.8594 247.824 95.0508C247.98 95.3974 248.137 95.7632 248.293 96.1289Z" fill="#D7C4AC"/>
<path d="M227.226 148.475C227.363 148.475 227.5 148.437 227.598 148.34C239.675 138.175 246.573 122.889 246.632 122.755C246.769 122.466 246.632 122.119 246.319 121.985C246.026 121.85 245.674 121.985 245.537 122.293C245.479 122.447 238.678 137.482 226.816 147.474C226.562 147.686 226.542 148.052 226.757 148.302C226.894 148.398 227.051 148.475 227.226 148.475Z" fill="#131E07"/>
<path d="M241.023 132.245C241.062 132.245 241.082 132.245 241.121 132.245C245.459 131.495 249.387 128.549 249.544 128.414C249.798 128.222 249.856 127.856 249.661 127.606C249.465 127.355 249.094 127.298 248.84 127.49C248.801 127.509 244.99 130.378 240.925 131.09C240.613 131.148 240.398 131.456 240.456 131.764C240.496 132.053 240.75 132.245 241.023 132.245Z" fill="#131E07"/>
<path d="M321.654 145.876C321.966 145.876 322.22 145.645 322.24 145.337C322.298 144.451 323.725 123.409 320.462 114.438C320.344 114.13 320.012 113.976 319.699 114.091C319.387 114.207 319.23 114.534 319.348 114.842C322.513 123.582 321.067 145.068 321.048 145.279C321.028 145.607 321.263 145.876 321.595 145.895C321.634 145.876 321.654 145.876 321.654 145.876Z" fill="#131E07"/>
<path d="M243.563 239.17L236.645 226.426C234.926 223.249 237.271 219.399 240.925 219.418L348.27 219.784L345.221 236.186L243.563 239.17Z" fill="#A36A24"/>
<path d="M343.052 236.726L247.003 237.419C244.677 237.438 242.997 235.59 243.231 233.318L249.348 174.812C249.582 172.521 251.654 170.653 253.979 170.634L350.029 169.941C352.354 169.922 354.035 171.77 353.8 174.041L347.684 232.548C347.449 234.839 345.378 236.706 343.052 236.726Z" fill="#D5963D"/>
<path d="M245.889 238.073C245.85 238.073 245.83 238.073 245.791 238.073C245.342 238.015 245.029 237.63 245.087 237.188L252.592 174.503C252.65 174.061 253.041 173.753 253.491 173.81C253.94 173.868 254.253 174.253 254.194 174.696L246.69 237.38C246.631 237.765 246.299 238.073 245.889 238.073Z" fill="#A36A24"/>
<path d="M292.36 202.881C292.028 207.578 295.565 211.602 300.275 211.872C304.984 212.141 309.049 208.541 309.381 203.844C309.714 199.146 306.176 195.122 301.467 194.872C296.777 194.583 292.692 198.183 292.36 202.881Z" fill="#A36A24"/>
<path d="M343.853 239.941L246.475 240.634C244.325 240.653 242.664 238.805 242.938 236.706L243.817 230.007L348.329 229.256L347.332 236.899C347.097 238.632 345.612 239.921 343.853 239.941Z" fill="#A36A24"/>
<path d="M91.8383 243.772C91.8383 243.772 90.7439 237.631 91.4279 228.197C92.5223 213.142 102.938 200.224 117.595 195.835C129.711 192.216 145.735 189.905 162.19 194.68C163.402 195.026 164.613 195.411 165.825 195.854C200.942 208.291 196.291 274.306 190.897 311.385C185.504 348.483 185.152 370.816 169.206 374.473C161.877 376.148 151.188 376.36 141.749 376.11C139.775 376.052 137.88 375.975 136.062 375.898C136.062 375.898 116.227 377.746 105.967 369.218C95.7076 360.689 91.8383 243.772 91.8383 243.772Z" fill="#24435C"/>
<path d="M141.729 376.11C151.168 376.379 161.858 376.168 169.186 374.473C185.132 370.816 185.484 348.464 190.878 311.385C196.271 274.306 200.942 208.291 165.805 195.854C164.593 195.431 163.382 195.046 162.17 194.68C156.21 196.124 150.758 200.07 147.865 208.657C140.009 231.99 153.357 312.694 141.729 376.11Z" fill="#4682B4"/>
<path d="M161.467 369.815C168.736 369.757 174.384 366.754 177.804 361.113C183.159 352.276 190.389 276.674 190.702 273.459C190.741 273.074 190.448 272.708 190.037 272.669C189.627 272.631 189.275 272.92 189.236 273.324C189.158 274.113 181.712 351.814 176.534 360.381C173.251 365.81 167.974 368.486 160.861 368.39C155.448 368.313 150.953 366.561 150.914 366.542C150.543 366.388 150.113 366.58 149.976 366.946C149.82 367.312 150.015 367.735 150.386 367.87C150.582 367.947 155.135 369.718 160.802 369.815C161.017 369.815 161.252 369.815 161.467 369.815Z" fill="#24435C"/>
<path d="M153.298 216.8C153.709 216.8 154.021 216.473 154.021 216.069C154.002 213.797 155.585 208.253 159.454 205.211C161.936 203.247 164.906 202.65 168.248 203.42C176.768 205.365 179.348 215.953 179.368 216.05C179.465 216.435 179.856 216.685 180.247 216.589C180.638 216.492 180.892 216.107 180.794 215.722C180.677 215.26 178 204.152 168.58 202.015C164.77 201.149 161.389 201.842 158.536 204.094C154.412 207.348 152.536 213.181 152.556 216.088C152.556 216.492 152.888 216.8 153.298 216.8Z" fill="#24435C"/>
<path d="M157.148 221.209C157.148 221.209 157.617 208.522 167.349 209.465C177.062 210.409 177.687 231.316 169.03 234.089C156.347 238.131 157.148 221.209 157.148 221.209Z" fill="#24435C"/>
<path d="M264.826 39.2781C264.826 39.2781 254.038 45.4964 257.869 49.7896C261.699 54.102 265.881 53.2357 265.881 53.2357C265.881 53.2357 260.605 59.223 266.741 62.7654C272.858 66.3077 279.951 51.8688 279.951 51.8688C279.951 51.8688 273.581 35.4084 264.826 39.2781Z" fill="#543E24"/>
<path d="M261.777 36.583C261.777 36.583 254.449 26.2062 257.087 20.5654C259.725 14.9246 264.063 15.7139 264.063 15.7139C264.063 15.7139 262.774 5.29863 267.991 2.62261C273.209 -0.0534012 279.932 3.20017 279.932 3.20017C279.932 3.20017 283.762 2.27608 290.054 2.64187C295.78 2.96915 296.855 7.32008 296.855 7.32008C296.855 7.32008 311.883 4.18202 316.632 9.09125C321.38 14.0005 314.775 20.3151 314.775 20.3151C314.775 20.3151 330.077 21.7398 327.38 32.0203C325.289 39.9906 312.762 39.798 312.762 39.798C312.762 39.798 314.677 49.1545 305.825 49.5203C302.268 49.6743 271.978 33.984 261.777 36.583Z" fill="#543E24"/>
<path d="M264.435 77.1663C268.285 80.8819 272.916 82.8456 276.825 83.9044C282.902 85.5793 289.918 83.9429 294.647 81.2092L294.999 72.2378L295.077 70.4088L295.214 66.9435L273.6 51.9078L272.349 51.0414L271.509 50.4639L271.196 51.2339L270.845 52.1195L270.942 52.5046C269.008 61.1679 267.913 71.0249 264.435 77.1663Z" fill="#E8A36F"/>
<path d="M294.725 79.3415C285.931 76.9543 281.339 69.138 279.424 64.8063C283.665 68.4257 288.843 70.8707 293.592 70.5819C294.1 70.5434 294.608 70.4856 295.077 70.4086L294.725 79.3415Z" fill="#131E07"/>
<path d="M270.493 51.2338C270.532 51.253 270.591 51.253 270.63 51.253C270.688 51.5418 270.747 51.8306 270.825 52.1194C270.864 52.2541 270.884 52.3697 270.923 52.5044C273.405 61.2448 284.27 71.1403 293.592 70.582C294.1 70.5435 294.608 70.4857 295.077 70.4087C303.871 68.8878 306.431 58.9731 305.63 51.7536C305.63 51.7536 305.649 51.4841 305.708 51.0028C305.727 50.8295 305.747 50.637 305.767 50.4252C305.845 49.7514 305.942 48.8273 306.079 47.7492C306.079 47.7299 306.079 47.7299 306.079 47.7107C306.49 44.4764 307.154 39.7212 308.112 35.0622C309.773 26.8416 304.887 14.3086 287.905 10.4583C270.923 6.60787 263.829 18.6981 263.868 27.4384C263.868 29.6332 264.298 32.1744 264.924 34.7542C263.282 34.7734 261.504 35.5627 260.429 38.335C258.416 43.4368 264.435 50.3097 270.493 51.2338Z" fill="#E8A36F"/>
<path d="M298.653 56.5282C295.819 57.2598 292.829 56.3742 290.914 54.1795C290.465 53.6597 291.207 52.8703 291.677 53.3901C293.338 55.2961 295.859 56.1239 298.34 55.4694C299.044 55.2961 299.337 56.3357 298.653 56.5282Z" fill="#B05935"/>
<g opacity="0.5">
<g opacity="0.5">
<g opacity="0.5">
<g opacity="0.5">
<g opacity="0.5">
<g opacity="0.5">
<path opacity="0.5" d="M280.909 46.8252C280.811 47.7493 283.078 48.7696 285.99 49.0969C288.902 49.4242 291.344 48.9236 291.462 47.9995C291.579 47.0754 289.292 46.0551 286.381 45.7278C283.449 45.4005 281.007 45.8818 280.909 46.8252Z" fill="#B05935"/>
</g>
</g>
</g>
</g>
</g>
</g>
<g opacity="0.5">
<g opacity="0.5">
<g opacity="0.5">
<g opacity="0.5">
<g opacity="0.5">
<g opacity="0.5">
<path opacity="0.5" d="M305.708 51.0222C305.727 50.8489 305.747 50.6564 305.766 50.4446C305.845 49.7708 305.942 48.8467 306.079 47.7686C306.079 47.7493 306.079 47.7493 306.079 47.7301C303.695 47.6338 301.838 48.1151 301.76 48.9237C301.663 49.713 303.343 50.5794 305.708 51.0222Z" fill="#B05935"/>
</g>
</g>
</g>
</g>
</g>
</g>
<path d="M287.006 36.1407C286.732 36.0637 286.498 35.9097 286.283 35.6979C285.599 35.0241 285.599 33.9267 286.283 33.2336C286.439 33.0796 290.367 29.3255 295.096 31.4625C295.976 31.8668 296.367 32.8871 295.956 33.7727C295.546 34.639 294.51 35.0241 293.611 34.6198C291.071 33.4647 288.784 35.6786 288.765 35.6979C288.296 36.1792 287.612 36.314 287.006 36.1407Z" fill="#A36A24"/>
<path d="M305.239 38.1621C304.75 38.008 304.32 37.6615 304.125 37.1417C303.578 35.7748 301.135 35.486 300.51 35.4668C299.532 35.4668 298.751 34.6775 298.77 33.7149C298.77 32.7523 299.572 31.9822 300.549 32.0015C302.522 32.0207 306.196 32.8485 307.427 35.8518C307.779 36.7374 307.349 37.7578 306.45 38.1043C306.02 38.2776 305.61 38.2776 305.239 38.1621Z" fill="#A36A24"/>
<path d="M302.523 44.169C302.308 45.3433 301.643 46.2097 301.018 46.1134C300.393 46.0172 300.06 44.9776 300.275 43.8032C300.49 42.6288 301.155 41.7625 301.78 41.8587C302.406 41.955 302.738 42.9946 302.523 44.169Z" fill="#131E07"/>
<path d="M298.985 41.4542C298.927 41.435 298.868 41.3772 298.849 41.3195C298.77 41.1655 298.809 40.9729 298.966 40.8959C299.103 40.8189 302.151 39.1633 304.535 41.1655C304.672 41.281 304.692 41.4735 304.574 41.6083C304.457 41.743 304.262 41.7623 304.125 41.6468C302.073 39.9333 299.318 41.435 299.278 41.4542C299.181 41.4927 299.063 41.4927 298.985 41.4542Z" fill="#131E07"/>
<path d="M306.587 37.6807C302.737 36.8529 298.946 39.2594 298.086 43.052C297.91 43.8028 297.891 44.5536 297.95 45.266L299.161 45.7088C299.005 44.9387 299.024 44.1109 299.2 43.3023C299.904 40.1065 303.089 38.1043 306.333 38.7973C309.558 39.4904 311.609 42.6285 310.906 45.8243C310.202 49.0201 306.998 51.0223 303.773 50.3292C302.268 50.0019 300.998 49.1549 300.177 47.9997L299.2 48.558C300.177 49.9827 301.702 51.0415 303.539 51.4266C307.369 52.2352 311.18 49.8479 312.02 46.0553C312.86 42.2434 310.417 38.5085 306.587 37.6807Z" fill="white"/>
<path d="M282.414 42.0894C283.254 38.316 287.065 35.9095 290.895 36.7181C294.726 37.5459 297.168 41.3001 296.348 45.0734C295.507 48.8468 291.697 51.2533 287.866 50.4447C284.017 49.6169 281.574 45.8628 282.414 42.0894ZM283.508 42.3204C282.805 45.497 284.857 48.6543 288.081 49.3474C291.306 50.0404 294.511 48.019 295.214 44.8424C295.918 41.6659 293.866 38.5085 290.641 37.8155C287.417 37.1224 284.212 39.1439 283.508 42.3204Z" fill="white"/>
<path d="M310.555 46.3824C310.73 46.4209 310.926 46.3824 311.063 46.2476C311.297 46.0359 311.297 45.6893 311.082 45.4583C311.024 45.4006 309.734 44.0722 307.135 43.6294C306.822 43.5716 306.529 43.7834 306.47 44.0914C306.412 44.3995 306.627 44.6882 306.939 44.746C309.147 45.131 310.242 46.2284 310.261 46.2476C310.359 46.3054 310.457 46.3632 310.555 46.3824Z" fill="white"/>
<path d="M283.665 39.5673C278.935 37.3726 275.457 37.4881 273.385 37.9501L273.503 39.086C275.34 38.6625 278.642 38.4892 283.196 40.5876C283.469 40.7224 283.821 40.6069 283.958 40.3181C284.075 40.0486 283.958 39.7021 283.665 39.5673Z" fill="white"/>
<path d="M264.923 34.7543C264.923 34.7543 268.714 34.4078 271.04 36.641C273.365 38.8549 273.229 44.5535 276.375 44.8615C279.521 45.1696 275.281 30.6344 276.942 28.6129C278.583 26.5915 287.788 28.9787 290.602 25.4171C293.396 21.8748 296.718 21.894 299.943 25.2053C303.167 28.5167 310.984 31.5777 310.339 26.63C309.694 21.6822 297.852 8.57169 287.533 8.26366C277.235 7.95563 266.545 10.1696 263.77 20.3154C260.995 30.4419 264.923 34.7543 264.923 34.7543Z" fill="#543E24"/>
<path d="M275.046 50.7525C274.617 51.2723 274.108 51.6573 273.6 51.9268C272.662 52.4081 271.666 52.5236 270.943 52.5236C270.904 52.3889 270.864 52.2734 270.845 52.1386C270.767 51.8498 270.708 51.561 270.649 51.253C270.61 51.253 270.571 51.2338 270.513 51.2338C270.708 51.253 270.943 51.253 271.197 51.2338C271.548 51.2145 271.939 51.176 272.35 51.0412C272.955 50.868 273.561 50.5407 274.05 49.9439C274.265 49.6744 274.675 49.6358 274.949 49.8476C275.222 50.0979 275.261 50.4829 275.046 50.7525Z" fill="#B05935"/>
<path d="M294.374 59.0115C293.494 58.742 293.084 58.0874 293.064 58.0489C292.947 57.8564 293.006 57.6061 293.201 57.4906C293.397 57.3751 293.651 57.4328 293.768 57.6254C293.787 57.6639 294.335 58.4917 295.527 58.2799C295.761 58.2414 295.976 58.3954 296.015 58.6072C296.054 58.8382 295.898 59.05 295.683 59.0885C295.155 59.1655 294.725 59.127 294.374 59.0115Z" fill="#B05935"/>
<path d="M269.497 46.8443C269.243 46.7673 269.067 46.5363 269.047 46.2667C268.832 41.8003 263.81 39.182 263.771 39.1435C263.458 38.9895 263.341 38.6045 263.497 38.2964C263.653 37.9884 264.044 37.8729 264.357 38.0269C264.592 38.1424 270.063 40.9917 270.337 46.209C270.356 46.5555 270.083 46.8443 269.731 46.8635C269.653 46.8635 269.575 46.8635 269.497 46.8443Z" fill="#B05935"/>
<path d="M264.337 43.6294C264.259 43.6102 264.181 43.5717 264.122 43.5139C263.848 43.2829 263.809 42.8979 264.044 42.6283C264.103 42.5513 265.588 40.8379 268.148 41.3C268.5 41.3577 268.734 41.685 268.656 42.0315C268.578 42.3781 268.265 42.6091 267.913 42.5321C266.076 42.2048 265.041 43.4177 265.041 43.4369C264.845 43.6487 264.572 43.7064 264.337 43.6294Z" fill="#B05935"/>
<path d="M297.07 50.2712C296.914 50.2327 296.797 50.1364 296.699 49.9824C296.523 49.6744 296.621 49.2894 296.933 49.1161L300.646 46.9984L297.696 45.747C297.52 45.67 297.402 45.5352 297.344 45.362L294.94 37.6612C294.842 37.3339 295.018 36.9681 295.37 36.8719C295.702 36.7756 296.074 36.9489 296.171 37.2954L298.497 44.7074L302.347 46.3438C302.562 46.4401 302.718 46.6518 302.737 46.8829C302.757 47.1139 302.62 47.3449 302.425 47.4604L297.617 50.2134C297.422 50.3097 297.227 50.329 297.07 50.2712Z" fill="#B05935"/>
<path d="M295.722 41.8007C295.898 41.8392 296.093 41.8007 296.23 41.666C296.406 41.4927 297.344 40.7419 298.321 41.7045C298.536 41.9163 298.907 41.9163 299.122 41.7045C299.337 41.4927 299.337 41.1269 299.122 40.9152C297.676 39.4713 296.093 40.2413 295.448 40.8574C295.214 41.0692 295.214 41.4157 295.429 41.6467C295.526 41.7237 295.624 41.7815 295.722 41.8007Z" fill="white"/>
<path d="M292.106 42.5707C291.891 43.7451 291.227 44.6114 290.602 44.5152C289.976 44.4189 289.644 43.3793 289.859 42.2049C290.074 41.0306 290.738 40.1642 291.364 40.2605C291.97 40.3567 292.302 41.3963 292.106 42.5707Z" fill="#131E07"/>
<path d="M288.003 40.2025C287.944 40.1832 287.885 40.1447 287.846 40.087C287.749 39.9522 287.768 39.7404 287.905 39.6442C288.022 39.5479 290.836 37.5265 293.474 39.2206C293.631 39.3169 293.67 39.5094 293.572 39.6634C293.474 39.8174 293.279 39.8559 293.123 39.7597C290.875 38.3158 288.315 40.1447 288.296 40.164C288.198 40.2025 288.1 40.2217 288.003 40.2025Z" fill="#131E07"/>
<path d="M135.046 37.7956L110.384 13.8655C110.071 13.5574 109.641 13.3842 109.172 13.4034C108.723 13.4227 108.293 13.6152 108 13.9425L73.0585 52.2345C72.7849 52.5426 72.6286 52.9276 72.6286 53.3319L75.2668 408.684L78.5694 408.664L75.9312 53.9287L109.309 17.3693L132.74 40.1251C133.385 40.7604 134.44 40.7411 135.066 40.1058C135.711 39.4513 135.691 38.4309 135.046 37.7956Z" fill="#131E07"/>
<path d="M110.931 423.392L43.1004 423.873L43.0809 421.371C43.0027 412.033 50.6437 404.41 60.1216 404.352L93.6559 404.102C103.134 404.025 110.873 411.552 110.931 420.889V423.392Z" fill="#131E07"/>
<path d="M168.951 49.3659C174.403 55.5265 173.759 64.9022 167.505 70.2735C161.252 75.6447 151.735 75.0094 146.282 68.8488C140.83 62.669 141.475 53.3125 147.728 47.9413C153.982 42.5507 163.499 43.186 168.951 49.3659Z" fill="white"/>
<path d="M190.663 34.5997C174.345 20.257 149.351 19.7757 132.427 34.2916C115.504 48.8268 112.592 73.2767 124.786 91.1618L190.663 34.5997Z" fill="#131E07"/>
<path d="M492.179 351.448L492.003 352.757L491.807 354.317L491.553 356.165L490.557 363.904L490.439 364.751L489.384 372.856L489.267 373.722L485.065 405.854L484.968 406.72L482.798 423.296L435.565 423.643L434.881 418.945L434.764 418.079L434.393 415.557L434.256 414.729L432.184 400.483L432.047 399.481L427.396 367.581L427.24 366.58L426.4 360.804L425.11 351.929L492.179 351.448Z" fill="#D5963D"/>
<path d="M440.509 387.122C439.708 392.474 436.639 397.364 432.184 400.463L432.047 399.482C437.597 395.381 440.821 388.219 439.551 381.404C438.359 375.032 433.454 369.795 427.396 367.562L427.24 366.561C429.116 367.196 430.914 368.12 432.536 369.295C438.261 373.395 441.545 380.172 440.509 387.122Z" fill="#A36A24"/>
<path d="M490.557 363.904L490.439 364.732C484.733 364.173 479.398 365.983 474.708 369.179C470.682 371.932 466.617 375.282 461.478 375.339C457.081 375.378 452.684 373.087 450.398 369.371C447.935 365.386 448.013 360.246 450.378 356.261C450.671 355.76 451.453 356.203 451.16 356.704C447.994 362.036 449.44 369.14 454.775 372.529C459.504 375.532 464.8 374.608 469.353 371.797C473.672 369.121 477.405 365.791 482.466 364.501C485.163 363.808 487.899 363.634 490.557 363.904Z" fill="#A36A24"/>
<path d="M492.003 352.757L491.807 354.317C491.358 355.01 490.85 355.645 490.283 356.261C487.703 359.091 484.147 361.016 480.258 361.498C475.861 362.037 471.386 360.612 468.025 357.84C467.321 357.262 466.657 356.608 466.051 355.914C465.679 355.491 466.305 354.856 466.676 355.279C467.477 356.203 468.376 357.031 469.353 357.743C472.343 359.9 476.056 361.016 479.808 360.65C483.287 360.323 486.511 358.725 488.954 356.338C489.97 355.337 490.869 354.201 491.573 352.969C491.671 352.796 491.846 352.738 492.003 352.757Z" fill="#A36A24"/>
<path d="M489.384 372.856L489.266 373.723C487.566 373.8 485.886 374.339 484.459 375.378C481.645 377.438 480.316 381.135 481.098 384.484C481.723 387.141 483.404 389.528 483.482 392.339C483.54 394.592 482.505 396.671 481.02 398.346C477.17 402.697 471.112 403.621 466.597 407.028C461.946 410.551 460.422 417.251 463.334 422.353C463.549 422.738 463.803 423.104 464.057 423.469H462.963C462.748 423.142 462.533 422.796 462.357 422.43C459.816 417.521 460.833 411.09 464.897 407.298C469.724 402.774 477.619 402.273 481.332 396.459C483.521 393.051 482.075 389.971 480.805 386.564C479.788 383.868 479.652 381.115 480.863 378.459C482.466 374.974 485.846 373.01 489.384 372.856Z" fill="#A36A24"/>
<path d="M476.408 415.384C476.349 418.907 478.421 421.852 481.352 423.315L479.632 423.335C476.994 421.486 475.314 418.406 475.529 414.941C475.841 409.801 480.121 406.066 485.085 405.854L484.967 406.72C480.375 406.97 476.467 410.628 476.408 415.384Z" fill="#A36A24"/>
<path d="M472.754 388.219C472.343 392.089 468.65 394.36 465.816 396.517C462.084 399.366 458.468 402.466 455.732 406.297C452.215 411.225 450.378 417.906 452.195 423.527H451.257C449.655 418.252 450.984 412.111 453.954 407.317C456.201 403.698 459.27 400.637 462.553 397.922C464.155 396.594 465.855 395.362 467.516 394.091C469.49 392.589 471.503 390.722 471.816 388.142C472.48 382.463 465.054 381.635 460.989 381.943C456.846 382.251 452.528 383.656 450.046 387.141C447.681 390.452 447.251 394.688 446.548 398.577C445.785 402.697 444.593 406.874 442.014 410.282C440.138 412.765 437.343 414.71 434.353 415.557L434.236 414.729C435.624 414.363 436.952 413.728 438.125 412.881C442.385 409.801 444.359 404.718 445.375 399.79C446.157 396.055 446.469 392.147 448.131 388.643C449.655 385.428 452.371 383.194 455.752 382.059C459.25 380.865 463.608 380.499 467.184 381.462C470.311 382.309 473.125 384.831 472.754 388.219Z" fill="#A36A24"/>
<path d="M444.105 423.566H443.186C442.815 422.007 442.053 420.563 440.607 419.658C438.75 418.464 436.757 418.368 434.881 418.926L434.764 418.079C437.128 417.367 439.63 417.617 441.818 419.446C443.089 420.543 443.772 422.007 444.105 423.566Z" fill="#A36A24"/>
<path d="M492.179 351.448L492.003 352.757L491.807 354.317L491.553 356.165L490.283 356.261L488.954 356.357L469.373 357.743L468.025 357.84L426.4 360.804L425.11 351.929L492.179 351.448Z" fill="#171612"/>
<path d="M498.158 351.794C471.835 354.182 445.492 354.374 419.149 352.372L419.091 345.307L498.1 344.748L498.158 351.794Z" fill="#D5963D"/>
<path d="M479.495 261.542C477.053 264.468 475.353 275.268 470.643 277.04C467.399 278.252 465.64 273.651 471.894 267.76C475.919 263.968 477.698 259.463 478.44 256.729C477.287 251.974 475.802 247.103 473.906 242.675C470.291 246.005 464.507 250.741 462.826 248.508C460.989 246.082 466.363 238.343 469.353 234.377C467.927 232.375 466.363 230.623 464.604 229.237C461.751 226.965 458.449 225.695 454.618 225.81C451.863 225.906 449.342 226.908 447.075 228.582C450.358 234.878 455.224 245.524 451.882 248.008C448.795 250.318 444.222 241.501 441.349 234.916C437.421 240.981 434.822 249.259 433.728 257.249C434.509 258.673 435.877 260.329 438.203 261.946C444.378 266.258 451.726 274.98 448.091 276.963C444.456 278.945 440.607 273.805 437.871 269.223C436.464 266.875 434.881 264.969 433.181 263.717C433.142 265.123 433.142 266.47 433.2 267.799C434.353 292.884 459.211 292.691 459.211 292.691C459.211 292.691 484.088 286.858 479.495 261.542ZM448.209 262.254C445.746 262.254 441.799 257.749 439.942 255.246C438.086 252.724 439.551 251.011 441.31 251.473C441.33 251.473 441.349 251.492 441.388 251.492C443.87 252.224 451.394 262.273 448.209 262.254ZM469.861 256.093C469.881 256.093 469.92 256.074 469.939 256.074C471.698 255.574 473.164 256.729 472.343 258.943C471.288 261.85 469.842 263.024 467.633 261.946C466.226 261.272 467.379 256.844 469.861 256.093Z" fill="#02897A"/>
<path d="M456.28 255.42C458.547 266.374 457.921 277.713 457.179 288.802C456.377 300.642 455.264 312.521 455.811 324.399C456.123 331.137 456.983 337.856 458.683 344.402C458.82 344.96 459.7 344.71 459.563 344.152C453.485 320.645 458.742 296.638 458.742 272.843C458.742 266.913 458.351 260.983 457.159 255.15C457.042 254.611 456.162 254.861 456.28 255.42Z" fill="#171612"/>
<path d="M445.375 292.903C445.16 296.696 450.241 306.398 447.505 310.576C445.609 313.445 441.447 310.73 442.971 302.356C443.948 296.946 442.678 292.287 441.662 289.649C437.89 286.473 433.767 283.412 429.585 280.928C428.666 285.722 426.829 292.903 424.133 292.075C421.201 291.17 420.908 281.814 420.947 276.866C418.602 276.077 416.277 275.576 414.029 275.48C410.375 275.307 406.936 276.192 403.907 278.522C401.737 280.197 400.291 282.468 399.471 285.144C405.9 288.321 416.179 294.097 414.987 298.024C413.873 301.682 404.903 297.215 398.65 293.577C399.119 300.758 401.972 308.959 405.861 316.044C407.346 316.737 409.437 317.276 412.29 317.237C419.853 317.122 431.031 319.913 429.272 323.61C427.533 327.325 421.338 325.4 416.374 323.302C413.834 322.224 411.411 321.607 409.281 321.588C410.082 322.743 410.903 323.841 411.743 324.861C427.689 344.44 447.661 329.847 447.661 329.847C447.661 329.847 464.233 310.711 445.375 292.903ZM420.537 311.674C418.544 313.098 412.661 311.751 409.671 310.807C406.662 309.864 406.818 307.611 408.519 306.976C408.538 306.976 408.558 306.957 408.597 306.957C411.02 306.09 423.116 309.825 420.537 311.674ZM434.334 294.116C434.353 294.097 434.373 294.077 434.373 294.058C435.487 292.633 437.363 292.71 438.027 294.982C438.906 297.947 438.437 299.718 436.014 300.142C434.51 300.411 432.79 296.156 434.334 294.116Z" fill="#02897A"/>
<path d="M422.921 301.431C428.803 306.687 434.627 312.135 439.395 318.431C443.049 323.244 445.864 328.538 448.424 333.967C450.241 337.818 451.961 341.706 453.739 345.557C453.974 346.077 454.755 345.615 454.521 345.095C451.609 338.742 448.893 332.273 445.492 326.151C442.444 320.664 438.653 315.678 434.334 311.115C430.933 307.496 427.279 304.107 423.566 300.796C423.136 300.411 422.491 301.046 422.921 301.431Z" fill="#171612"/>
<path d="M467.301 334.218C467.301 334.218 487.39 348.657 503.18 328.962C504.001 327.923 504.822 326.825 505.604 325.67C503.474 325.709 501.07 326.325 498.529 327.441C493.585 329.578 487.41 331.542 485.632 327.845C483.853 324.149 495.012 321.281 502.555 321.338C505.408 321.358 507.48 320.799 508.965 320.087C512.815 312.983 515.609 304.743 516 297.562C509.786 301.259 500.855 305.783 499.702 302.144C498.471 298.217 508.711 292.364 515.121 289.149C514.28 286.473 512.815 284.221 510.645 282.546C507.616 280.236 504.158 279.388 500.503 279.581C498.256 279.696 495.95 280.216 493.605 281.025C493.683 285.973 493.468 295.348 490.537 296.272C487.859 297.119 485.944 289.938 485.006 285.164C480.824 287.667 476.74 290.766 472.988 293.981C471.972 296.638 470.741 301.316 471.776 306.707C473.359 315.081 469.216 317.815 467.301 314.966C464.526 310.827 469.529 301.085 469.294 297.293C450.573 315.197 467.301 334.218 467.301 334.218ZM506.209 311.019C506.229 311.039 506.268 311.039 506.288 311.039C508.007 311.674 508.164 313.907 505.174 314.889C502.184 315.852 496.321 317.238 494.308 315.832C491.69 314.023 503.767 310.192 506.209 311.019ZM478.714 304.435C476.29 304.031 475.802 302.26 476.662 299.295C477.326 297.023 479.183 296.927 480.316 298.332C480.336 298.352 480.355 298.371 480.355 298.39C481.919 300.431 480.238 304.685 478.714 304.435Z" fill="#02897A"/>
<path d="M491.182 304.994C479.202 317.007 469.705 330.907 460.54 345.057C460.227 345.538 461.009 345.981 461.321 345.5C470.447 331.427 479.886 317.585 491.826 305.61C492.237 305.206 491.592 304.57 491.182 304.994Z" fill="#171612"/>
<path d="M498.1 344.729C498.1 345.441 480.414 346.154 458.605 346.308C436.776 346.462 419.091 346.019 419.091 345.287C419.091 344.575 436.776 343.863 458.585 343.709C480.414 343.555 498.1 344.017 498.1 344.729Z" fill="#171612"/>
</svg>
