<svg width="489" height="420" viewBox="0 0 489 420" fill="none" xmlns="http://www.w3.org/2000/svg">
<path d="M91.2937 374.16C182.215 435.28 329.686 435.28 420.607 374.16C511.529 313.04 511.529 213.959 420.607 152.852C329.686 91.7447 182.215 91.732 91.2937 152.852C0.372175 213.972 0.338913 313.053 91.2937 374.16Z" fill="#FAFAFA"/>
<path d="M446.841 148.372C447.34 141.28 452.141 129.189 459.249 120.608C466.356 112.026 477.733 107.836 484.751 111.307C491.293 114.55 489.852 124.52 481.225 130.414C472.599 136.307 459.759 143.551 455.357 154.72L446.841 168.123V148.372Z" fill="#02897A"/>
<path opacity="0.2" d="M446.841 148.372C447.34 141.28 452.141 129.189 459.249 120.608C466.356 112.026 477.733 107.836 484.751 111.307C491.293 114.55 489.852 124.52 481.225 130.414C472.599 136.307 459.759 143.551 455.357 154.72L446.841 168.123V148.372Z" fill="black"/>
<path d="M482.035 114.588C473.885 116.355 450.001 133.859 446.875 160.286" stroke="white" stroke-miterlimit="10" stroke-linecap="round"/>
<path d="M447.806 180.213C449.059 176.427 454.514 169.398 462.365 165.953C470.215 162.507 476.136 159.428 478.997 153.875C481.857 148.322 476.879 142.87 468.951 143.261C461.023 143.653 447.817 153.105 446.886 168.123L447.806 180.213Z" fill="#02897A"/>
<path d="M472.987 147.754C466.134 148.524 449.48 160.021 447.24 172.893" stroke="white" stroke-miterlimit="10" stroke-linecap="round"/>
<path d="M38.2487 216.257C37.9099 206.23 35.9516 196.361 32.4719 187.142C26.6285 171.379 14.8087 163.037 8.51072 161.901C2.21274 160.765 -4.29591 169.473 3.72071 179.822C11.7373 190.171 27.1053 204.028 31.5183 224.99L38.7366 239.301L38.2487 216.257Z" fill="#02897A"/>
<path opacity="0.2" d="M38.2487 216.257C37.9099 206.23 35.9516 196.361 32.4719 187.142C26.6285 171.379 14.8087 163.037 8.51072 161.901C2.21274 160.765 -4.29591 169.473 3.72071 179.822C11.7373 190.171 27.1053 204.028 31.5183 224.99L38.7366 239.301L38.2487 216.257Z" fill="black"/>
<path d="M8.51074 166.709C21.4393 175.468 36.4192 198.449 38.5149 228.99" stroke="white" stroke-linecap="round" stroke-linejoin="round"/>
<path d="M37.2618 253.978C35.4767 245.838 30.8086 237.9 21.4836 229.924C12.1586 221.948 -0.304297 215.095 0.715799 206.955C1.73589 198.815 11.1829 199.383 18.1018 202.98C25.0207 206.576 37.0179 221.38 38.7365 239.275L37.2618 253.978Z" fill="#02897A"/>
<path d="M7.25781 204.406C16.2391 206.93 35.51 226.997 38.3042 244.084" stroke="white" stroke-linecap="round" stroke-linejoin="round"/>
<path d="M39.8122 259.001C39.0672 258.448 38.4477 257.703 38.0045 256.825C37.5612 255.948 37.3068 254.964 37.262 253.953V71.7797C37.3085 70.7693 37.5637 69.7857 38.0068 68.9086C38.4499 68.0315 39.0684 67.2857 39.8122 66.7316L96.993 29.1611C97.7323 28.6358 98.5833 28.3495 99.4548 28.3329C100.326 28.3163 101.185 28.5699 101.94 29.0667C102.694 29.5635 103.315 30.2846 103.737 31.1528C104.159 32.0209 104.365 33.0033 104.333 33.9947V46.1606C104.333 48.0158 105.442 48.773 106.895 47.8391L178.445 0.828721C179.184 0.304121 180.034 0.0179466 180.904 0.00081688C181.775 -0.0163128 182.633 0.236247 183.387 0.731474C184.141 1.2267 184.762 1.94596 185.185 2.81227C185.608 3.67859 185.815 4.65936 185.786 5.64965V285.667L133.051 320.297L39.8122 259.001Z" fill="#263238"/>
<path d="M183.391 0.740437C182.618 0.311668 181.767 0.0972789 180.907 0.114827C180.048 0.132376 179.204 0.381365 178.445 0.841401L106.895 47.8518C105.475 48.7857 104.333 48.0284 104.333 46.1733V34.0074C104.365 33.016 104.159 32.0336 103.737 31.1654C103.315 30.2973 102.694 29.5761 101.94 29.0794C101.185 28.5826 100.326 28.3289 99.4548 28.3456C98.5834 28.3622 97.7324 28.6485 96.993 29.1738L39.8122 66.7442C39.0608 67.2858 38.4396 68.0318 38.0049 68.9149L70.8032 90.4703L185.786 14.8877V5.66233C185.754 4.68546 185.521 3.73077 185.105 2.87565C184.689 2.02052 184.102 1.28902 183.391 0.740437Z" fill="#455A64"/>
<path d="M183.235 3.98381L106.895 54.1492C105.475 55.0831 104.333 54.3259 104.333 52.4707V34.0073C104.333 32.1522 103.224 31.3949 101.783 32.3288L44.6022 69.8993C43.8579 70.4526 43.2389 71.1983 42.7957 72.0755C42.3525 72.9528 42.0977 73.9368 42.052 74.9473V250.886C42.0972 251.898 42.3529 252.884 42.7982 253.761C43.2435 254.639 43.8656 255.384 44.6133 255.934L137.874 317.218L185.786 285.743V5.6623C185.786 3.80713 184.644 3.06253 183.235 3.98381Z" fill="#37474F"/>
<path d="M42.8059 253.688C43.234 254.577 43.8565 255.324 44.6132 255.859L137.874 317.142L185.786 285.667V159.73L42.8059 253.688Z" fill="#263238"/>
<path d="M54.3818 293.795L53.6832 293.34C53.0876 292.9 52.5916 292.306 52.2352 291.606C51.8788 290.907 51.6722 290.122 51.632 289.315V118.373C51.6695 117.566 51.8751 116.779 52.2317 116.079C52.5883 115.38 53.0858 114.786 53.6832 114.348L207.695 13.1334C208.329 12.7665 209.03 12.5753 209.741 12.5753C210.452 12.5753 211.153 12.7665 211.787 13.1334L212.486 13.6003C213.083 14.0387 213.58 14.6322 213.937 15.3321C214.294 16.032 214.499 16.8183 214.537 17.6262V188.529C214.497 189.337 214.29 190.122 213.934 190.821C213.577 191.521 213.081 192.115 212.486 192.555L58.4732 293.795C57.8395 294.162 57.1385 294.353 56.4275 294.353C55.7165 294.353 55.0155 294.162 54.3818 293.795Z" fill="#F5F5F5"/>
<path d="M61.212 121.945L52.2307 116.039C51.8645 116.735 51.6586 117.525 51.632 118.336V289.277C51.6722 290.084 51.8788 290.869 52.2352 291.569C52.5916 292.268 53.0876 292.862 53.6832 293.303L54.3818 293.757C55.0155 294.124 55.7165 294.315 56.4275 294.315C57.1385 294.315 57.8395 294.124 58.4732 293.757L61.212 291.952V121.945Z" fill="#E0E0E0"/>
<path d="M56.4331 292.419V121.478C56.4712 120.672 56.6758 119.887 57.0303 119.188C57.3847 118.488 57.8791 117.894 58.4733 117.452L212.486 16.238C213.594 15.506 214.537 16.0992 214.537 17.5884V188.529C214.497 189.337 214.29 190.122 213.934 190.821C213.577 191.521 213.081 192.115 212.486 192.555L58.4733 293.795C57.3423 294.501 56.4331 293.908 56.4331 292.419Z" fill="#EBEBEB"/>
<path d="M68.5633 123.422L202.395 35.4839C203.804 34.55 204.946 35.3072 204.946 37.1623V168.968C204.901 169.979 204.646 170.963 204.203 171.841C203.76 172.718 203.14 173.464 202.395 174.016L68.5633 261.941C67.1551 262.875 66.0131 262.118 66.0131 260.263V128.47C66.0596 127.459 66.3148 126.476 66.7579 125.599C67.201 124.722 67.8195 123.976 68.5633 123.422Z" fill="white"/>
<path d="M90.6838 116.847C99.022 111.369 105.775 115.812 105.775 126.766C105.775 137.72 99.022 151.035 90.6838 156.512C82.3456 161.989 75.593 157.559 75.593 146.605C75.593 135.651 82.3456 122.324 90.6838 116.847Z" fill="#FFB900"/>
<path d="M104.666 156.575C105.178 155.489 105.908 154.556 106.797 153.853C107.686 153.15 108.709 152.696 109.781 152.529C110.854 152.362 111.946 152.485 112.969 152.89C113.991 153.295 114.915 153.97 115.665 154.859L133.051 175.467L166.093 83.201C166.578 81.8481 167.387 80.6771 168.427 79.8211C169.468 78.9651 170.698 78.4584 171.979 78.3585C173.26 78.2586 174.539 78.5695 175.673 79.256C176.806 79.9424 177.747 80.9769 178.39 82.2418L204.923 134.54V168.968C204.879 169.979 204.624 170.963 204.181 171.841C203.738 172.718 203.118 173.464 202.373 174.016L68.5633 261.941C67.1551 262.875 66.0131 262.118 66.0131 260.263V238.43L104.666 156.575Z" fill="#FFB900"/>
<path d="M83.1551 312.725L82.4455 312.258C81.8513 311.817 81.3569 311.223 81.0024 310.523C80.648 309.824 80.4434 309.039 80.4053 308.233V137.228C80.4434 136.422 80.648 135.637 81.0024 134.938C81.3569 134.238 81.8513 133.644 82.4455 133.203L236.469 32.001C237.099 31.6292 237.799 31.4352 238.509 31.4352C239.219 31.4352 239.919 31.6292 240.549 32.001L241.259 32.4553C241.853 32.8966 242.347 33.4911 242.702 34.1906C243.056 34.8901 243.261 35.6748 243.299 36.4812V207.422C243.267 208.23 243.065 209.018 242.71 209.718C242.355 210.419 241.857 211.012 241.259 211.448L87.2133 312.725C86.5857 313.093 85.89 313.285 85.1842 313.285C84.4784 313.285 83.7827 313.093 83.1551 312.725Z" fill="#F5F5F5"/>
<path d="M89.9632 140.85L80.9819 134.944C80.6171 135.636 80.4111 136.422 80.3832 137.228V308.169C80.4213 308.976 80.6259 309.761 80.9803 310.46C81.3348 311.16 81.8292 311.754 82.4234 312.195L83.133 312.662C83.7635 313.034 84.4631 313.228 85.1732 313.228C85.8832 313.228 86.5829 313.034 87.2134 312.662L89.9632 310.858V140.85Z" fill="#E0E0E0"/>
<path d="M85.1731 311.324V140.383C85.2121 139.577 85.417 138.793 85.7714 138.094C86.1258 137.394 86.6197 136.8 87.2133 136.358L241.237 35.1433C242.345 34.3987 243.277 35.0045 243.277 36.4811V207.422C243.245 208.23 243.043 209.018 242.688 209.718C242.333 210.419 241.835 211.012 241.237 211.448L87.2133 312.725C86.0934 313.407 85.1731 312.801 85.1731 311.324Z" fill="#EBEBEB"/>
<path d="M97.3145 142.352L231.147 54.4021C232.555 53.4808 233.697 54.238 233.697 56.0806V187.861C233.651 188.872 233.396 189.856 232.953 190.733C232.51 191.61 231.891 192.356 231.147 192.909L97.3145 280.859C95.8952 281.781 94.7532 281.036 94.7532 279.181V147.401C94.7992 146.389 95.0554 145.403 95.5006 144.526C95.9458 143.648 96.5674 142.904 97.3145 142.352Z" fill="white"/>
<path d="M119.435 135.751C127.762 130.274 134.526 134.717 134.526 145.671C134.526 156.625 127.762 169.94 119.435 175.417C111.108 180.894 104.344 176.452 104.344 165.497C104.344 154.543 111.097 141.229 119.435 135.751Z" fill="#11B5E4"/>
<path d="M133.417 175.48C133.928 174.395 134.657 173.462 135.545 172.759C136.433 172.056 137.455 171.602 138.527 171.434C139.599 171.267 140.69 171.391 141.712 171.796C142.734 172.201 143.657 172.875 144.405 173.764L161.88 194.373L194.911 102.106C195.395 100.75 196.203 99.5761 197.245 98.7177C198.286 97.8592 199.519 97.3511 200.802 97.2511C202.084 97.1511 203.366 97.4634 204.501 98.1522C205.635 98.8411 206.577 99.8789 207.219 101.147L233.741 153.446V187.861C233.695 188.871 233.441 189.855 232.997 190.733C232.554 191.61 231.935 192.356 231.191 192.909L97.3588 280.859C95.9395 281.781 94.7975 281.036 94.7975 279.181V257.348L133.417 175.48Z" fill="#11B5E4"/>
<path d="M111.873 331.541L111.174 331.087C110.58 330.646 110.086 330.051 109.731 329.352C109.377 328.652 109.172 327.867 109.134 327.061V156.12C109.172 155.312 109.377 154.526 109.734 153.826C110.091 153.126 110.588 152.533 111.186 152.094L265.198 50.88C265.832 50.5131 266.533 50.3219 267.244 50.3219C267.955 50.3219 268.656 50.5131 269.289 50.88L269.988 51.3469C270.585 51.7853 271.083 52.3788 271.439 53.0787C271.796 53.7786 272.002 54.5648 272.039 55.3728V226.314C271.999 227.121 271.792 227.906 271.436 228.606C271.08 229.305 270.583 229.899 269.988 230.34L115.976 331.541C115.34 331.91 114.637 332.103 113.924 332.103C113.211 332.103 112.508 331.91 111.873 331.541Z" fill="#F5F5F5"/>
<path d="M118.714 159.731L109.766 153.824C109.4 154.52 109.194 155.31 109.168 156.121V327.062C109.206 327.869 109.41 328.653 109.765 329.353C110.119 330.052 110.614 330.647 111.208 331.088L111.906 331.542C112.54 331.909 113.241 332.1 113.952 332.1C114.663 332.1 115.364 331.909 115.998 331.542L118.748 329.738L118.714 159.731Z" fill="#E0E0E0"/>
<path d="M113.924 330.204V159.263C113.963 158.457 114.167 157.672 114.522 156.973C114.876 156.273 115.37 155.679 115.965 155.238L269.977 54.0107C271.086 53.2787 272.028 53.8719 272.028 55.3611V226.315C271.988 227.122 271.781 227.907 271.425 228.606C271.069 229.306 270.572 229.9 269.977 230.341L115.965 331.542C114.834 332.287 113.924 331.656 113.924 330.204Z" fill="#EBEBEB"/>
<path d="M126.055 161.194L259.887 73.2566C261.295 72.3227 262.437 73.0799 262.437 74.935V206.715C262.391 207.726 262.136 208.71 261.693 209.587C261.25 210.465 260.631 211.21 259.887 211.764L126.055 299.727C124.646 300.66 123.504 299.903 123.504 298.048V166.23C123.553 165.222 123.809 164.241 124.252 163.366C124.695 162.491 125.312 161.747 126.055 161.194Z" fill="white"/>
<path d="M148.175 154.632C156.513 149.154 163.266 153.597 163.266 164.551C163.266 175.505 156.513 188.82 148.175 194.297C139.837 199.774 133.051 195.357 133.051 184.39C133.051 173.423 139.837 160.109 148.175 154.632Z" fill="#F03E3D"/>
<path d="M162.157 194.36C162.669 193.274 163.399 192.341 164.288 191.638C165.178 190.935 166.2 190.481 167.273 190.314C168.345 190.146 169.438 190.27 170.46 190.675C171.483 191.08 172.407 191.755 173.156 192.644L190.576 213.252L223.618 120.986C224.103 119.633 224.911 118.462 225.952 117.606C226.992 116.75 228.223 116.243 229.503 116.143C230.784 116.044 232.064 116.355 233.197 117.041C234.33 117.727 235.272 118.762 235.914 120.027L262.448 172.325V206.715C262.399 207.726 262.141 208.71 261.696 209.587C261.251 210.463 260.631 211.209 259.887 211.763L126.055 299.726C124.646 300.66 123.504 299.903 123.504 298.048V276.215L162.157 194.36Z" fill="#F03E3D"/>
<path d="M137.874 317.142L152.244 307.702V326.594L137.874 317.142Z" fill="#263238"/>
<path d="M152.244 185.122V323.238C152.244 325.093 151.136 325.838 149.694 324.916L137.874 317.142L133.051 320.297L154.451 334.356C155.242 334.817 156.118 335.057 157.007 335.057C157.895 335.057 158.771 334.817 159.562 334.356L307.798 237.004C308.544 236.451 309.164 235.706 309.609 234.829C310.054 233.952 310.311 232.967 310.359 231.956V87.53C310.388 86.5383 310.18 85.5562 309.757 84.6887C309.334 83.8212 308.712 83.1008 307.957 82.6045C307.202 82.1081 306.343 81.8545 305.471 81.8707C304.599 81.8869 303.748 82.1723 303.008 82.6964L154.806 180.087C154.06 180.637 153.439 181.38 152.994 182.255C152.549 183.13 152.292 184.112 152.244 185.122Z" fill="#263238"/>
<path d="M161.88 188.063L310.459 90.4705V87.53C310.488 86.5383 310.28 85.5562 309.857 84.6887C309.434 83.8212 308.812 83.1008 308.057 82.6045C307.302 82.1081 306.443 81.8545 305.571 81.8707C304.699 81.8869 303.848 82.1723 303.108 82.6964L154.806 180.087C154.049 180.621 153.426 181.369 152.998 182.257L161.88 188.063Z" fill="#455A64"/>
<path d="M307.798 85.851L159.596 183.241C158.85 183.794 158.229 184.539 157.784 185.416C157.339 186.294 157.082 187.278 157.034 188.289V332.677C157.034 334.533 158.143 335.29 159.596 334.356L307.798 237.003C308.544 236.451 309.164 235.706 309.609 234.828C310.055 233.951 310.311 232.967 310.359 231.955V87.5295C310.359 85.6743 309.206 84.9171 307.798 85.851Z" fill="#37474F"/>
<path d="M196.497 272.681C196.213 272.686 195.933 272.603 195.687 272.442C195.392 272.22 195.155 271.912 195.001 271.55C194.846 271.188 194.781 270.785 194.811 270.385V200.191C194.85 199.274 195.081 198.382 195.484 197.587C195.887 196.793 196.451 196.119 197.129 195.622L269.711 147.93C269.991 147.678 270.332 147.528 270.689 147.499C271.046 147.47 271.402 147.563 271.711 147.767C272.021 147.971 272.269 148.276 272.425 148.643C272.58 149.01 272.635 149.421 272.583 149.823V220.017C272.543 220.934 272.313 221.826 271.91 222.621C271.507 223.415 270.943 224.089 270.265 224.586L197.683 272.341C197.32 272.569 196.911 272.687 196.497 272.681ZM270.897 148.789C270.671 148.8 270.452 148.883 270.265 149.028L197.683 196.708C197.174 197.095 196.75 197.611 196.445 198.215C196.139 198.819 195.96 199.495 195.92 200.191V270.385C195.9 270.562 195.919 270.743 195.975 270.91C196.031 271.077 196.123 271.226 196.242 271.344C196.39 271.405 196.549 271.422 196.704 271.393C196.859 271.365 197.005 271.291 197.129 271.18L269.711 223.488C270.22 223.103 270.644 222.59 270.95 221.988C271.256 221.386 271.435 220.711 271.474 220.017V149.823C271.495 149.646 271.476 149.465 271.42 149.297C271.364 149.13 271.272 148.981 271.152 148.864C271.075 148.813 270.987 148.787 270.897 148.789Z" fill="#FAFAFA"/>
<path d="M208.195 212.23C207.562 212.238 206.938 212.055 206.387 211.7C205.702 211.165 205.156 210.431 204.805 209.575C204.454 208.718 204.311 207.77 204.391 206.829C204.51 204.405 205.128 202.046 206.195 199.944C207.262 197.841 208.748 196.054 210.534 194.726C211.182 194.126 211.976 193.765 212.809 193.691C213.642 193.617 214.476 193.833 215.198 194.311C215.92 194.789 216.498 195.507 216.853 196.368C217.208 197.229 217.325 198.192 217.187 199.13C217.071 201.555 216.454 203.915 215.387 206.018C214.32 208.121 212.832 209.907 211.044 211.233C210.184 211.836 209.204 212.179 208.195 212.23ZM213.428 194.991C212.598 195.033 211.792 195.32 211.089 195.824C209.471 197.035 208.126 198.662 207.163 200.573C206.2 202.485 205.645 204.628 205.545 206.829C205.398 207.551 205.459 208.307 205.718 208.987C205.978 209.666 206.422 210.233 206.986 210.604C207.55 210.974 208.203 211.128 208.85 211.044C209.497 210.96 210.103 210.641 210.578 210.135C212.196 208.924 213.54 207.297 214.503 205.385C215.466 203.473 216.021 201.331 216.122 199.13C216.199 198.411 216.105 197.681 215.852 197.015C215.599 196.35 215.195 195.773 214.681 195.344C214.3 195.097 213.866 194.975 213.428 194.991Z" fill="#FAFAFA"/>
<path d="M195.366 267.406C195.286 267.386 195.21 267.347 195.144 267.292C195.079 267.255 195.022 267.203 194.975 267.14C194.928 267.077 194.893 267.004 194.871 266.925C194.849 266.847 194.842 266.764 194.848 266.681C194.855 266.599 194.877 266.519 194.911 266.447L216.4 218.427C216.723 217.7 217.192 217.07 217.768 216.588C218.344 216.105 219.012 215.783 219.717 215.648C220.423 215.513 221.147 215.569 221.83 215.81C222.513 216.052 223.137 216.472 223.651 217.039L244.896 240.31C244.947 240.368 244.988 240.437 245.016 240.512C245.044 240.588 245.059 240.67 245.059 240.752C245.059 240.834 245.044 240.916 245.016 240.992C244.988 241.067 244.947 241.136 244.896 241.194C244.844 241.253 244.783 241.3 244.715 241.332C244.648 241.364 244.575 241.38 244.502 241.38C244.429 241.38 244.357 241.364 244.289 241.332C244.221 241.3 244.16 241.253 244.109 241.194L222.864 217.985C222.474 217.559 222.002 217.243 221.485 217.062C220.968 216.881 220.422 216.84 219.889 216.941C219.356 217.043 218.851 217.285 218.415 217.648C217.978 218.011 217.622 218.485 217.375 219.033L195.887 267.065C195.837 267.172 195.762 267.261 195.669 267.321C195.577 267.381 195.472 267.411 195.366 267.406Z" fill="#FAFAFA"/>
<path d="M233.697 229.621C233.624 229.639 233.548 229.639 233.475 229.621C233.342 229.554 233.238 229.431 233.184 229.278C233.13 229.124 233.131 228.953 233.187 228.801L249.819 185.034C250.116 184.238 250.587 183.543 251.188 183.015C251.789 182.486 252.499 182.142 253.25 182.016C254.001 181.889 254.768 181.984 255.478 182.291C256.188 182.599 256.816 183.109 257.303 183.772L272.427 204.582C272.475 204.645 272.511 204.718 272.533 204.796C272.556 204.875 272.564 204.958 272.558 205.04C272.552 205.122 272.531 205.203 272.497 205.276C272.463 205.349 272.417 205.413 272.361 205.466C272.259 205.556 272.133 205.604 272.004 205.602C271.875 205.6 271.75 205.547 271.651 205.453L256.527 184.642C256.164 184.142 255.695 183.755 255.164 183.521C254.632 183.286 254.057 183.21 253.492 183.302C252.928 183.393 252.393 183.648 251.94 184.042C251.488 184.435 251.131 184.955 250.905 185.551L234.273 229.305C234.218 229.419 234.132 229.511 234.029 229.567C233.926 229.624 233.81 229.643 233.697 229.621Z" fill="#FAFAFA"/>
<path d="M288.128 117.869C284.702 117.869 282.406 115.534 282.406 112.063L282.706 90.1799C282.706 84.2105 282.706 75.1492 288.56 71.2495C289.77 70.3751 291.164 69.8874 292.596 69.8376C294.029 69.7877 295.446 70.1776 296.701 70.9663C297.955 71.755 299 72.9134 299.725 74.32C300.451 75.7266 300.83 77.3295 300.824 78.9605C300.824 80.7147 300.768 82.8601 300.679 85.3463C300.674 85.5961 300.624 85.842 300.534 86.0695C300.443 86.2971 300.313 86.5016 300.152 86.6711C299.991 86.8405 299.801 86.9714 299.595 87.056C299.388 87.1406 299.169 87.1772 298.95 87.1636C298.731 87.1523 298.517 87.092 298.319 86.9863C298.121 86.8805 297.943 86.7313 297.796 86.5473C297.649 86.3632 297.535 86.1479 297.461 85.9137C297.387 85.6795 297.354 85.4309 297.364 85.1823C297.442 82.797 297.497 80.639 297.497 78.9605C297.504 77.9934 297.279 77.0424 296.846 76.2106C296.412 75.3789 295.787 74.698 295.037 74.2417C294.288 73.7854 293.444 73.5711 292.595 73.6221C291.747 73.6731 290.926 73.9873 290.224 74.5308C286.354 77.0548 286.032 83.365 286.032 90.1546L285.733 112.063C285.733 113.704 287.03 114.057 288.128 114.057C289.937 114.008 291.659 113.161 292.929 111.694C294.2 110.226 294.919 108.255 294.936 106.195L294.814 97.5501C294.814 97.048 294.989 96.5665 295.301 96.2115C295.613 95.8565 296.036 95.6571 296.477 95.6571C296.918 95.6571 297.341 95.8565 297.653 96.2115C297.965 96.5665 298.14 97.048 298.14 97.5501L298.262 106.208C298.271 109.282 297.21 112.234 295.311 114.42C293.411 116.605 290.829 117.845 288.128 117.869Z" fill="#BA68C8"/>
<path d="M313.098 252.375L197.417 328.399C196.821 328.84 196.325 329.434 195.969 330.133C195.612 330.833 195.406 331.618 195.366 332.425V333.346C195.405 334.156 195.611 334.943 195.968 335.644C196.324 336.346 196.82 336.942 197.417 337.385L293.938 400.814C294.572 401.181 295.273 401.372 295.984 401.372C296.695 401.372 297.396 401.181 298.029 400.814L413.71 324.79C414.306 324.349 414.802 323.755 415.158 323.056C415.515 322.356 415.721 321.571 415.762 320.764V319.83C415.721 319.023 415.515 318.238 415.158 317.538C414.802 316.839 414.306 316.245 413.71 315.804L317.189 252.375C316.556 252.008 315.855 251.817 315.144 251.817C314.433 251.817 313.732 252.008 313.098 252.375Z" fill="#455A64"/>
<path d="M195.366 332.425V333.346C195.405 334.155 195.611 334.943 195.968 335.644C196.324 336.346 196.82 336.942 197.417 337.385L293.938 400.814C294.566 401.191 295.268 401.382 295.978 401.369V389.557L200.156 326.607L197.417 328.412C196.823 328.851 196.328 329.443 195.971 330.14C195.615 330.837 195.408 331.62 195.366 332.425Z" fill="#263238"/>
<path d="M197.417 328.399L313.098 252.374C313.732 252.008 314.433 251.816 315.144 251.816C315.855 251.816 316.556 252.008 317.189 252.374L413.71 315.804C413.96 315.896 414.177 316.076 414.331 316.317C414.485 316.559 414.568 316.849 414.568 317.148C414.568 317.446 414.485 317.737 414.331 317.978C414.177 318.22 413.96 318.4 413.71 318.492L298.029 394.516C297.396 394.883 296.695 395.074 295.984 395.074C295.273 395.074 294.572 394.883 293.938 394.516L197.417 331.087C197.168 330.994 196.95 330.815 196.796 330.573C196.642 330.332 196.559 330.041 196.559 329.743C196.559 329.444 196.642 329.154 196.796 328.912C196.95 328.671 197.168 328.491 197.417 328.399Z" fill="#37474F"/>
<path d="M211.776 331.087L286.742 380.306C287.372 380.677 288.072 380.872 288.782 380.872C289.492 380.872 290.192 380.677 290.822 380.306L392.144 313.734C392.393 313.642 392.611 313.462 392.765 313.22C392.919 312.979 393.002 312.688 393.002 312.39C393.002 312.092 392.919 311.801 392.765 311.559C392.611 311.318 392.393 311.138 392.144 311.046L317.178 261.827C316.543 261.466 315.843 261.278 315.133 261.278C314.422 261.278 313.722 261.466 313.087 261.827L211.776 328.399C211.527 328.491 211.309 328.671 211.155 328.912C211.001 329.154 210.918 329.444 210.918 329.743C210.918 330.041 211.001 330.332 211.155 330.573C211.309 330.815 211.527 330.994 211.776 331.087Z" fill="white"/>
<path d="M234.894 320.675C240.183 317.205 248.765 317.205 254.054 320.675C259.343 324.146 259.354 329.787 254.054 333.295C248.754 336.804 240.183 336.766 234.894 333.295C229.605 329.825 229.605 324.158 234.894 320.675Z" fill="#02897A"/>
<path d="M392.155 311.084L370.246 296.684L303.718 289.63C302.908 289.544 302.094 289.696 301.351 290.072C300.608 290.448 299.963 291.034 299.477 291.775C298.991 292.516 298.68 293.387 298.574 294.304C298.468 295.221 298.57 296.153 298.872 297.012L310.359 329.737L273.769 327.364C273.055 327.316 272.341 327.452 271.681 327.762C271.02 328.072 270.43 328.549 269.954 329.156C269.478 329.763 269.129 330.485 268.933 331.268C268.738 332.05 268.7 332.873 268.824 333.674L274.456 372.279L286.786 380.382C287.417 380.753 288.116 380.947 288.826 380.947C289.536 380.947 290.236 380.753 290.867 380.382L392.189 313.81C392.45 313.724 392.679 313.542 392.841 313.294C393.003 313.045 393.089 312.742 393.085 312.432C393.081 312.123 392.988 311.823 392.82 311.579C392.652 311.336 392.419 311.162 392.155 311.084Z" fill="#02897A"/>
<path d="M391.801 219.55V169.17L449.292 131.398V181.765L391.801 219.55Z" fill="#EBEBEB"/>
<path d="M391.801 169.17L319.928 121.945V172.325L391.801 219.55V169.17Z" fill="#E6E6E6"/>
<path d="M391.801 169.17L450.999 130.262L377.419 81.9011L318.232 120.822L391.801 169.17Z" fill="#F0F0F0"/>
<path d="M391.801 169.17V181.765L450.999 142.869V130.262L391.801 169.17Z" fill="#EBEBEB"/>
<path d="M391.801 181.765L449.292 143.992V146.756L391.801 184.541V181.765Z" fill="#E6E6E6"/>
<path d="M318.232 120.822L391.801 169.17V181.765L318.232 133.417V120.822Z" fill="#EBEBEB"/>
<g style="mix-blend-mode:multiply" opacity="0.5">
<path d="M391.801 181.765L319.928 134.54V137.317L391.801 184.542V181.765Z" fill="#E0E0E0"/>
</g>
<path d="M410.728 176.83L430.365 163.92C431.207 163.364 431.895 163.819 431.895 164.929V178.143C431.867 178.749 431.714 179.339 431.448 179.865C431.182 180.392 430.811 180.839 430.365 181.172L410.728 194.095C409.874 194.65 409.198 194.208 409.198 193.098V179.846C409.222 179.241 409.374 178.651 409.64 178.126C409.906 177.601 410.279 177.157 410.728 176.83Z" fill="#E0E0E0"/>
<path d="M411.981 178.333L429.101 167.075C429.666 166.709 430.132 167.012 430.132 167.744V177.689C430.115 178.095 430.013 178.491 429.834 178.842C429.654 179.194 429.403 179.491 429.101 179.708L411.981 190.965C411.415 191.331 410.961 190.965 410.961 190.284V180.339C410.977 179.936 411.079 179.544 411.256 179.195C411.434 178.846 411.682 178.55 411.981 178.333Z" fill="white"/>
<path d="M391.801 162.847V112.467L449.292 74.6823V125.062L391.801 162.847Z" fill="#EBEBEB"/>
<path d="M391.801 112.468L319.928 65.2427V115.623L391.801 162.848V112.468Z" fill="#E6E6E6"/>
<path d="M391.801 112.467L450.999 73.5464L377.419 25.1983L318.232 64.1065L391.801 112.467Z" fill="#F5F5F5"/>
<path d="M391.801 112.468V125.063L450.999 86.1672V73.5469L391.801 112.468Z" fill="#EBEBEB"/>
<path d="M391.801 125.063L449.292 87.2776V90.054L391.801 127.826V125.063Z" fill="#E6E6E6"/>
<path d="M318.232 64.1066L391.801 112.467V125.062L318.232 76.7142V64.1066Z" fill="#EBEBEB"/>
<g style="mix-blend-mode:multiply" opacity="0.5">
<path d="M391.801 125.062L319.928 77.8371V80.6009L391.801 127.826V125.062Z" fill="#E0E0E0"/>
</g>
<path d="M410.728 120.128L430.365 107.217C431.207 106.662 431.895 107.116 431.895 108.227V121.44C431.864 122.046 431.71 122.635 431.444 123.161C431.179 123.687 430.809 124.135 430.365 124.469L410.728 137.367C409.874 137.922 409.198 137.468 409.198 136.357V123.144C409.222 122.539 409.374 121.949 409.64 121.424C409.906 120.899 410.279 120.454 410.728 120.128Z" fill="#E0E0E0"/>
<path d="M411.981 121.617L429.101 110.372C429.666 110.006 430.132 110.297 430.132 111.041V120.898C430.11 121.302 430.006 121.696 429.827 122.046C429.647 122.397 429.399 122.695 429.101 122.917L411.981 134.161C411.415 134.54 410.961 134.237 410.961 133.492V123.586C410.983 123.189 411.086 122.804 411.264 122.462C411.441 122.12 411.687 121.831 411.981 121.617Z" fill="white"/>
<path d="M446.187 127.094L391.801 162.847L323.033 117.629L321.347 118.765L391.801 164.904L447.884 128.205L446.187 127.094Z" fill="#E0E0E0"/>
</svg>
